<!-- Generator: Adobe Illustrator 25.2.1, SVG Export Plug-In  -->
<svg version="1.1" xmlns="http://www.w3.org/2000/svg" xmlns:xlink="http://www.w3.org/1999/xlink" x="0px" y="0px" width="71.3px"
	 height="78.1px" viewBox="0 0 71.3 78.1" style="overflow:visible;enable-background:new 0 0 71.3 78.1;" xml:space="preserve">
<style type="text/css">
	.st0{fill:#00AEEF;}
	.st1{fill:#FFFFFF;}
	.st2{fill:#EC2227;stroke:#FFFFFF;stroke-miterlimit:10;}
</style>
<defs>
</defs>
<path class="st0" d="M37.6,58.4H4.8c-2.6,0-4.8-2.1-4.8-4.8l0-35.6c0-2.6,2.1-4.8,4.8-4.8h32.8c2.6,0,4.8,2.1,4.8,4.8v35.6
	C42.3,56.3,40.2,58.4,37.6,58.4z"/>
<path class="st1" d="M55,32.1c0-0.1,0-0.3-0.1-0.4c-0.2-0.2-0.2-0.4-0.1-0.6c0.1-0.3,0.2-0.5,0.2-0.8c0-0.1,0.1-0.3-0.2-0.4
	c0,0,0,0-0.1-0.1c-0.1-0.1-0.2-0.2-0.2-0.4c0-0.1-0.1-0.3-0.2-0.4c-0.2-0.2-0.5-0.4-0.5-0.8c0-0.1-0.1-0.2-0.2-0.3
	c-0.2-0.2-0.3-0.3-0.5-0.5c-0.2-0.2-0.5-0.4-0.4-0.7c0,0,0,0,0,0c-0.1-0.2-0.2-0.3-0.2-0.5c-0.1-0.4,0-0.7,0.2-1.1
	c0.1-0.2,0.1-0.3-0.1-0.5c-0.2-0.1-0.3-0.3-0.4-0.5c-0.1-0.4,0-0.7,0.2-1c0.1-0.2,0.3-0.3,0.5-0.5c0.2-0.2,0.4-0.3,0.3-0.6
	C53,21.9,53,21.7,53,21.5c0-0.2,0-0.4,0-0.6c0-0.2-0.1-0.5-0.1-0.7c0-0.2-0.1-0.4-0.2-0.6c-0.2-0.3-0.3-0.7-0.1-1
	c0.1-0.2,0.3-0.4,0.1-0.6c0,0,0-0.1,0-0.1c0-0.1-0.1-0.3-0.1-0.4c0,0-0.1-0.1-0.1-0.1c-0.2,0-0.3-0.2-0.2-0.4c0-0.1,0.1-0.2,0-0.3
	c-0.1-0.2,0-0.3,0-0.5c0.1-0.2,0.2-0.4,0.2-0.7c0-0.2,0-0.3-0.1-0.5c-0.1-0.2-0.1-0.5,0.1-0.7c0,0,0.1,0,0.1-0.1
	c0.2-0.3,0.6-0.4,0.9-0.6c0.2-0.1,0.2-0.2,0.2-0.3c0-0.2,0-0.4,0-0.7c0-0.2,0-0.4-0.1-0.5c-0.1-0.2-0.3-0.3-0.4-0.4
	c-0.1-0.1-0.1-0.1-0.2-0.1c-0.2-0.1-0.3-0.3-0.6-0.3c-0.1,0-0.2,0-0.2-0.1c0-0.1,0-0.2,0-0.2c0-0.1,0-0.3-0.1-0.4
	c-0.1-0.1-0.2-0.2-0.3-0.3c-0.1-0.1-0.1-0.2-0.1-0.3c0-0.2,0-0.4,0-0.6C52,9.4,52,9.3,52,9c0-0.1,0-0.2,0-0.2c0.2-0.2,0.1-0.3,0-0.5
	c-0.1-0.3-0.3-0.6-0.4-0.9c-0.1-0.3-0.2-0.5-0.4-0.7c-0.1-0.1-0.3-0.2-0.2-0.4c0-0.1,0-0.2-0.1-0.2c-0.2-0.1-0.4-0.3-0.6-0.4
	c0,0-0.1,0-0.1,0c-0.1,0-0.2,0-0.3,0c0.2-0.1,0.3-0.2,0.5-0.3c0.3-0.2,0.3-0.4,0.2-0.6c-0.1-0.1,0-0.2,0-0.2
	c0.1-0.1,0.2-0.2,0.3-0.3C51,4,51.2,3.8,51.3,3.5c0.1-0.2,0.3-0.4,0.3-0.6c0.1-0.3,0.3-0.6,0.3-0.9c0.2-0.2,0.3-0.6,0.7-0.6V1.2
	c-0.1,0-0.2,0-0.3,0c-0.1-0.1-0.2,0-0.3,0.1c-0.1,0-0.1,0.1-0.2,0.1c-0.1,0-0.3,0.1-0.4,0.1c-0.1,0-0.2,0.1-0.3,0
	c-0.1-0.1-0.3-0.1-0.4-0.2C50.4,1.1,50.1,1,49.9,1c-0.2,0-0.4,0-0.6,0c-0.2,0-0.4,0-0.6-0.1c-0.2,0-0.4-0.1-0.6-0.2
	c-0.3-0.1-0.6-0.1-0.9-0.4C46.9,0.1,46.7,0,46.3,0c-0.3,0-0.6,0-0.8,0.1c-0.1,0-0.2,0.1-0.3,0c0,0-0.1,0-0.2,0c0,0-0.1,0.1-0.1,0.1
	c0,0.2-0.1,0.4-0.2,0.6c0,0-0.1,0.1-0.1,0.1c0,0.2-0.1,0.4-0.2,0.6c-0.1,0.2-0.1,0.4-0.2,0.6c-0.1,0.2-0.1,0.4-0.2,0.6
	c0,0.1-0.1,0.1-0.2,0.2c-0.1,0.1-0.1,0.1-0.2,0.2c-0.1,0.1-0.1,0.3-0.1,0.4c-0.1,0.2-0.3,0.5-0.4,0.7c-0.1,0.1-0.1,0.2-0.2,0.3
	c-0.2,0.3-0.3,0.6-0.6,0.7c-0.1,0.1-0.3,0.1-0.4,0.1c-0.3,0-0.5-0.2-0.8-0.2c-0.2,0-0.4-0.2-0.6-0.3c-0.1-0.1-0.3-0.1-0.5-0.1
	c-0.2,0-0.4,0-0.6-0.1c-0.2-0.1-0.3-0.2-0.5-0.3c-0.2,0-0.5,0-0.7,0c0,0,0,0,0,0c-0.2,0.1-0.3,0.2-0.5,0.3c0,0-0.1,0-0.1,0
	c-0.2,0.1-0.5,0.2-0.7,0.3c-0.2,0.1-0.3,0.2-0.4,0.4c0,0,0,0.1-0.1,0.2c-0.1,0.1-0.2,0.2-0.2,0.3c-0.1,0.2-0.1,0.4-0.2,0.6
	c-0.1,0.3-0.3,0.5-0.4,0.8c-0.1,0.2-0.3,0.4-0.4,0.6c-0.2,0.2-0.2,0.4-0.3,0.7C35,8.8,35,8.9,34.9,9c-0.2,0.1-0.3,0.1-0.5,0.2
	c-0.2,0.1-0.3,0.2-0.3,0.4c0,0.1-0.1,0.1-0.1,0.2c-0.2,0.1-0.2,0.3-0.1,0.4c0,0.1,0,0.1,0,0.2c0,0.2-0.1,0.3,0,0.5c0,0,0,0.1,0,0.2
	c-0.1,0.3-0.2,0.7-0.3,1.1c-0.1,0.3-0.1,0.5-0.1,0.8c0,0.1-0.1,0.2-0.1,0.4c-0.1,0.3-0.3,0.6-0.4,0.9c-0.1,0.2-0.3,0.5-0.4,0.7
	c-0.1,0.1-0.1,0.2-0.1,0.3c-0.1,0.1-0.2,0.3-0.3,0.4c-0.1,0.1-0.1,0.2-0.2,0.2c-0.1,0.1-0.1,0.1-0.2,0.2c-0.3,0.2-0.6,0.4-0.9,0.5
	c-0.1,0.1-0.3,0.1-0.5,0.1c-0.2,0.1-0.4,0.1-0.5,0c0,0-0.1,0-0.1-0.1c-0.1-0.1-0.2-0.3-0.3-0.2c-0.2,0.1-0.4,0.2-0.6,0.2
	c0,0.2-0.1,0.3-0.1,0.4c-0.1,0.4-0.3,0.7-0.4,1.1c0,0.1-0.1,0.2-0.2,0.2c-0.2,0-0.3,0.2-0.4,0.4c0,0.2-0.2,0.3-0.4,0.3
	c-0.1,0-0.2,0-0.3,0.1c0,0.2,0,0.4,0,0.5c0,0.1-0.1,0.2-0.1,0.2c0,0.2-0.1,0.4-0.1,0.6c-0.1,0.3-0.2,0.5-0.2,0.8
	c0,0.3-0.2,0.5-0.3,0.7c0,0.1,0,0.1-0.1,0.2c0,0.1,0,0.2,0,0.2c0,0.1-0.1,0.2-0.1,0.2c0,0.2-0.1,0.3-0.1,0.5
	c-0.1,0.2-0.2,0.5-0.2,0.7c-0.1,0.2-0.1,0.3-0.2,0.5c0,0.1-0.1,0.1-0.1,0.2c-0.1,0.3-0.1,0.5-0.2,0.8c-0.1,0.3-0.2,0.5-0.5,0.6
	c-0.2,0.1-0.3,0.3-0.3,0.5c0,0.3-0.1,0.5-0.1,0.8c-0.1,0.4-0.3,0.8-0.4,1.3c-0.1,0.3-0.3,0.6-0.3,0.9c0,0.7-0.1,1.4-0.2,2.1
	c-0.1,0.4-0.1,0.7-0.2,1.1c0,0.1-0.1,0.1-0.1,0.2c0,0.3,0,0.5-0.1,0.8c-0.1,0.2-0.2,0.4-0.2,0.6c-0.1,0.2-0.2,0.4-0.3,0.6
	c-0.1,0.3-0.3,0.6-0.2,1c0,0.1,0,0.2,0,0.3c0,0.2-0.1,0.4-0.1,0.6c0,0.2-0.1,0.4-0.1,0.5c-0.1,0.2-0.2,0.4-0.2,0.6
	c0,0.3-0.2,0.5-0.2,0.7c0,0.1-0.1,0.2-0.1,0.3c-0.1,0.2-0.1,0.4-0.2,0.6c-0.1,0.2-0.1,0.4-0.2,0.5c-0.2,0.2-0.4,0.5-0.5,0.9
	c0,0.2-0.1,0.3-0.1,0.5c-0.2,0.2-0.2,0.5-0.3,0.8c0,0.1-0.1,0.3-0.2,0.4c-0.1,0.2-0.2,0.3-0.3,0.5c-0.1,0.1-0.2,0.3-0.3,0.3
	c-0.4,0.1-0.5,0.4-0.6,0.8c-0.1,0.3-0.1,0.5-0.2,0.8c0,0.1-0.1,0.1-0.1,0.2c-0.1,0.3-0.2,0.6-0.5,0.8c-0.2,0.1-0.4,0.4-0.3,0.7
	c0,0.2,0,0.4,0,0.5c0,0.3,0,0.5,0.1,0.8c0.1,0.3,0.1,0.6,0.1,0.8c0,0.2,0,0.4,0,0.7c0,0.2,0.1,0.4,0.1,0.6c0,0.4,0,0.9,0,1.3
	c0,0.2,0,0.4,0,0.5c0.1,0.3,0.1,0.6,0.2,0.9c0,0.2,0.1,0.3,0.1,0.5c0,0.4,0,0.8,0,1.2c0,0.3-0.1,0.5-0.2,0.8
	c-0.1,0.1-0.2,0.2-0.3,0.4c-0.1,0.2-0.1,0.3,0.1,0.4c0,0,0.1,0.1,0.1,0.1c0,0.5,0.1,0.9,0.1,1.4c0,0.2,0,0.5,0,0.8
	c0,0.4,0,0.7-0.1,1.1c0,0.3,0,0.7-0.1,1c0,0.1,0,0.2,0,0.3c-0.1,0.3-0.1,0.6-0.1,1c0,0.3-0.1,0.6-0.1,0.9c0,0,0,0.1,0,0.1
	c0.1,0.2,0,0.4-0.2,0.5c-0.1,0.1-0.2,0.4-0.1,0.6c0,0.1,0,0.2,0,0.3c0,0,0,0.1,0,0.1c0,0.3-0.1,0.5-0.1,0.8c0,0.1,0,0.3,0,0.4
	c0,0.1-0.1,0.2-0.1,0.4c0,0.2-0.3,0.4-0.2,0.6c0,0,0,0,0,0c-0.2,0.1-0.3,0.2-0.5,0.3c-0.2,0.1-0.2,0.1-0.2,0.3
	c-0.1,0-0.2-0.1-0.3-0.1c-0.1,0-0.2,0-0.2,0.1c0,0,0,0.1,0,0.1c0,0.3,0.1,0.3,0.4,0.2c0.1,0,0.2,0,0.2,0c0,0.2,0.1,0.4,0,0.6
	c0,0.2,0,0.5-0.1,0.7c0,0.1,0,0.1,0,0.2c0,0.2-0.1,0.3-0.1,0.5c0,0.1,0,0.1,0.1,0.2c-0.1,0.1-0.1,0.3-0.4,0.3
	c-0.1,0-0.3,0.1-0.4,0.2c-0.1,0.1-0.1,0.4-0.1,0.5c0,0.2,0,0.3-0.2,0.4c-0.1,0-0.2,0.1-0.2,0.2c0,0.1-0.1,0.1-0.2,0.1
	c-0.1,0-0.1,0-0.1,0.1c0,0.2,0,0.3,0,0.5c0.1,0.2,0.2,0.4,0.2,0.6c0,0.1,0,0.1,0,0.2c0.1,0.3,0.2,0.3,0.5,0.2
	c0.2,0.2,0.3,0.4,0.5,0.6c0,0,0.1,0.1,0.1,0.1c0.1,0,0.2,0,0.3,0.1c0.1,0.2,0.1,0.4,0.2,0.5c-0.1,0.1-0.3,0.1-0.3,0.2
	c0,0.2-0.2,0.3-0.4,0.4c-0.2,0-0.1,0.2-0.2,0.3c0,0.2,0,0.4,0,0.6c0,0,0,0.1,0,0.1c-0.1,0.1-0.1,0.2-0.2,0.3c0,0.2,0,0.4,0,0.5
	c0,0.2,0,0.4,0.1,0.5c0,0,0,0.1-0.1,0.2c-0.1,0.1-0.2,0.1-0.3,0.2c-0.1,0.2-0.3,0.3-0.5,0.3c0,0.1-0.1,0.2-0.1,0.2v0.6h0.1
	c0-0.1,0.1-0.3,0.2-0.3c-0.1,0.1,0,0,0,0c0,0,0,0,0.1-0.1c0.1-0.1,0.1-0.1,0.2-0.2c0,0,0.1,0,0.1-0.1c0,0,0.1-0.1,0,0
	c0.1,0,0.1-0.1,0.2-0.1c0.1-0.1,0.3-0.2,0.4-0.3c0,0,0.1,0,0.1-0.1c0,0,0,0,0,0c0,0,0.1-0.1,0.1-0.1c0,0,0.1-0.1,0.1-0.1
	c0,0,0,0,0,0c0,0,0,0,0,0c0,0,0,0,0,0c0,0,0,0,0,0c0,0,0,0,0,0c0,0,0.1-0.1,0.1-0.1c0,0,0,0,0,0c0,0,0,0,0-0.1c0,0,0-0.1,0-0.1
	c0-0.1,0-0.1,0-0.2c0-0.2,0-0.4,0-0.5c0.1-0.3,0.3-0.4,0.6-0.3c0.1,0,0.1,0.1,0.2,0.1c0,0,0.1-0.1,0.1-0.1c0,0,0,0,0-0.1
	c0-0.1,0.1-0.2,0.2-0.3c0.1,0,0.1-0.1,0.1-0.2c0-0.1,0-0.2,0.2-0.2c0.1,0,0.2-0.1,0.2-0.2c0.1-0.2,0.1-0.2,0.3-0.2
	c0.2,0,0.2-0.1,0.1-0.3c-0.2-0.2-0.2-0.5-0.5-0.7c0,0,0-0.1,0-0.1c0.4,0,0.7,0,0.9-0.4c-0.1-0.1-0.2-0.1-0.3-0.2
	c0.1-0.1,0.2-0.1,0.3-0.2c0,0,0-0.1,0-0.2c0.1,0,0.2,0,0.2,0c0.1,0,0.3-0.1,0.4-0.1c0.1,0,0.1-0.1,0.1-0.1c0.1,0,0.1-0.1,0.2-0.1
	c0,0,0.1,0,0.2-0.1c0.1-0.1,0.2-0.2,0.4-0.2c0,0,0.1,0,0.1-0.1c0.1-0.1,0.2-0.3,0.3-0.4c0.2-0.3,0.2-0.4,0-0.7c0,0-0.1-0.1-0.1-0.1
	c0-0.2,0-0.3-0.2-0.5c0,0,0-0.1,0-0.2c0.1,0,0.1,0,0.2,0c0.1,0,0.2,0,0.2,0c0.1-0.1,0.1-0.1,0.3-0.1c0.1,0,0.2,0,0.3,0
	c0-0.1,0-0.2,0-0.3c0-0.1-0.1-0.1-0.2-0.2c0.5-0.3,0.6-0.3,0.5-0.7c0.3,0,0.5-0.2,0.6-0.4c0.1-0.2,0.2-0.5,0.3-0.7
	c0-0.1,0.1-0.3,0.1-0.4c-0.1-0.2,0-0.3,0.2-0.5c0,0,0.1-0.1,0.1-0.2c0-0.1,0-0.3,0-0.3c0.2-0.1,0.1-0.2,0.2-0.3
	c0.1-0.2,0.2-0.5,0.1-0.7c0.1-0.1,0.2-0.2,0.2-0.3c0-0.3,0.2-0.6,0.3-0.9c0-0.1,0.1-0.2,0.1-0.3c0.1-0.2,0.3-0.4,0.3-0.6
	c0-0.2,0.1-0.3,0.3-0.5c0.1-0.1,0.1-0.2,0.1-0.2c0-0.2,0-0.4,0.1-0.7c0.2-0.4,0.4-0.7,0.5-1.1c0-0.1,0.1-0.3,0.3-0.4
	c0.1,0,0.2-0.2,0.2-0.3c0.2-0.3,0.4-0.5,0.8-0.4c0.2,0,0.4,0.1,0.5,0.1c0.2,0.1,0.5,0.2,0.7,0.4c0.2,0.1,0.4,0.2,0.6,0.3
	c0.2,0.1,0.3,0.2,0.2,0.4c0,0,0,0,0,0c0,0.1,0,0.1,0,0.2c0,0,0.1,0.1,0.1,0.1c0,0,0,0.1,0,0.1c0,0.1,0.1,0.3-0.1,0.3c0,0,0,0,0,0.1
	c0,0.1,0,0.2,0.2,0.3c0,0,0.1,0.1,0.1,0.1c0,0.2,0,0.4-0.2,0.6c-0.1,0.1-0.2,0.3-0.3,0.5c0,0.1,0,0.3,0,0.5c0.1,0.2,0.2,0.4,0.3,0.7
	c0,0,0,0.1,0,0.1c-0.1,0.2,0,0.4,0.1,0.5c0.2,0.2,0.3,0.4,0.5,0.5c0.2,0.1,0.2,0.3,0.2,0.5c0,0,0,0.1,0.1,0.2c0,0.1,0.1,0.1,0.1,0.2
	c0,0.2,0,0.3,0.1,0.4c0.1,0.1,0.1,0.2,0.1,0.3c0,0.3,0.1,0.6,0.1,0.9c0,0,0,0.1,0,0.1c0.2,0.3,0.4,0.7,0.9,0.6c0,0.1,0,0.2,0,0.2
	c0,0,0.1,0.1,0.2,0.1c0.1-0.1,0.1-0.1,0.2-0.2c0,0,0.1,0,0.2,0c0-0.1,0.1-0.2,0.1-0.3c-0.1-0.1,0-0.2,0.1-0.3
	c0.1-0.1,0.1-0.2,0.2-0.2c0.3-0.1,0.6-0.1,0.8,0.1c0.1,0.1,0.2,0,0.2,0c0.1-0.1,0-0.2-0.1-0.2c0,0,0,0,0-0.1c0,0,0.1,0,0.1,0.1
	c0.1,0.1,0.3,0.2,0.5,0.1c0.1-0.1,0.3-0.1,0.5-0.1c0.2,0,0.3,0.1,0.3,0.3c0,0.3,0,0.6-0.1,0.9c0,0.1-0.1,0.2-0.2,0.2
	c-0.3,0-0.4,0.2-0.3,0.5c0,0.1,0,0.1,0,0.2c0,0.1,0,0.2,0,0.2c0,0.2,0.1,0.3,0.1,0.5c0.1,0.3,0.1,0.6,0.2,0.9
	c-0.1,0.1-0.3,0.2-0.1,0.4c0,0,0.1,0,0.2,0c0.1,0.1,0.1,0.3,0.2,0.4c0.1,0.1,0.1,0.2,0.2,0.2c0.1,0.1,0.3,0.1,0.4,0.2
	c0.1,0,0.1,0.1,0.2,0.2c-0.1,0-0.2,0-0.3,0c0.1,0.1,0.1,0.1,0.1,0.2c0.1,0.1,0.2,0.2,0.2,0.3c0,0.1,0.1,0.3,0.1,0.4
	c0.1,0.3,0.5,0.4,0.8,0.2c0.2-0.1,0.4-0.3,0.7-0.2c0.1,0,0.2,0,0.3-0.2c0.1-0.1,0.2-0.3,0.5-0.3c-0.1-0.1-0.1-0.2-0.1-0.2
	c-0.1-0.2-0.2-0.4-0.3-0.6c0-0.3-0.1-0.5-0.4-0.6c-0.1-0.1-0.2-0.2-0.3-0.3c-0.1-0.2-0.2-0.4-0.3-0.6c-0.1-0.1-0.2-0.3-0.2-0.5
	c0-0.4,0.2-0.7,0.1-1.1c-0.1-0.3,0.1-0.5,0.3-0.7c0.2-0.2,0.4-0.5,0.5-0.8c0,0,0.1-0.1,0.1-0.1c0.1-0.1,0.3-0.1,0.4-0.2
	c0.3-0.1,0.4-0.4,0.6-0.6c0.1-0.2,0.2-0.3,0.3-0.5c0.1-0.1,0.2-0.2,0.1-0.4c0,0,0.1-0.1,0.1-0.1c0.1,0,0.2-0.1,0.3-0.2
	c0.1-0.1,0.2-0.1,0.2-0.2c0.1,0,0.3,0,0.3,0.2c0,0.1,0.1,0.2,0.1,0.3c0.1,0.3,0.2,0.5,0.4,0.7c0.1,0.1,0.2,0.3,0.2,0.4
	c0,0,0,0.1,0.1,0.1c0.2,0.2,0.4,0.2,0.6,0.3c0.2,0,0.4,0,0.7,0.1c0.2,0,0.3,0,0.4-0.1c0,0,0.2-0.1,0.2-0.1c0.2,0.1,0.4,0.2,0.5,0.3
	c0.1,0.1,0.3,0.1,0.4,0c0.2-0.2,0.3-0.4,0.5-0.6c0.2-0.2,0.3-0.3,0.3-0.5c0.1,0,0.3,0,0.4,0.1c0.2,0.1,0.3,0.3,0.6,0.3c0,0,0,0,0,0
	c0,0,0,0.1-0.1,0.1c0,0,0,0.1,0,0.1c0.1,0,0.2,0,0.3,0c0.2,0,0.3,0,0.3-0.3c0-0.1,0.1-0.3,0.1-0.4c0.1-0.2,0.2-0.3,0.2-0.5
	c0-0.2,0-0.5,0.2-0.7c0,0,0-0.1,0-0.2c-0.1-0.2-0.2-0.5-0.2-0.7c0-0.1-0.1-0.3,0.1-0.3c0,0,0.1,0,0.1-0.1c0.1-0.2,0.2-0.4,0.2-0.6
	c0-0.2,0.1-0.4,0-0.6c0-0.1-0.2-0.2-0.3-0.3c-0.2-0.3-0.5-0.3-0.9-0.2c0,0-0.1,0-0.1-0.1c-0.1-0.2-0.2-0.3-0.2-0.5
	c0-0.1,0-0.2,0-0.2c0.1,0,0.2,0,0.3,0c0.1,0,0.1,0.2,0.2,0.2c0.2,0.1,0.4,0.3,0.6,0.4c0.1,0,0.2,0.1,0.2,0.1c0.1,0,0.3,0,0.4,0.1
	c0,0,0.1,0.1,0.1,0.1c0.1,0.1,0.1,0.2,0.2,0.4c0.1,0.1,0.1,0.2,0.2,0.3c0,0.1,0,0.2-0.1,0.3c-0.1,0.1-0.1,0.4-0.1,0.5
	c0.2,0.1,0.3,0.1,0.3-0.1c0-0.1,0-0.2,0.1-0.2c0.1-0.1,0.2-0.2,0.2-0.2c0.2,0,0.4,0,0.6,0c0.2,0,0.3,0,0.5-0.1c0,0,0.1-0.2,0.1-0.2
	c-0.2-0.1-0.3-0.2-0.4-0.4c-0.1-0.1-0.1-0.1-0.2-0.2c-0.3-0.1-0.4-0.4-0.7-0.5c-0.2-0.2-0.1-0.4-0.1-0.5c0.2-0.4,0.1-0.8,0.1-1.2
	c0-0.1-0.1-0.2-0.2-0.3c-0.1-0.1-0.1-0.3,0-0.3c0.3-0.1,0.3-0.3,0.3-0.5c0.1-0.3,0-0.6,0-0.8c0,0,0,0,0,0c0-0.1-0.1-0.2-0.1-0.2
	c0-0.1,0-0.2,0.1-0.3c0.1,0,0.2,0,0.3,0c0.1,0,0.2,0.1,0.3,0.1c0.2,0.1,0.4,0.2,0.5,0.5c0.1,0.4,0.1,0.8,0.3,1.2
	c0.1,0.2,0.2,0.4,0.3,0.7c0.1,0.3,0.2,0.6,0.3,0.9c0.1,0.2,0.2,0.4,0.2,0.5c0,0,0,0,0,0c0.1,0.1,0.2,0.1,0.3,0
	c0.2-0.1,0.4-0.2,0.5-0.4c0.1,0.3,0.2,0.5,0.3,0.8c0,0.1,0.1,0.2,0.2,0.3c0.1,0.1,0.3,0.1,0.4,0.1c0.3,0,0.3,0,0.5-0.4
	c0.1-0.3,0.2-0.4,0.4-0.4c0.5,0,0.7-0.3,0.7-0.8c0.1-0.1,0.1-0.1,0.1-0.4c0.1-0.1,0.1-0.1,0.2-0.2c0-0.1,0.1-0.2,0.1-0.3
	c0.1-0.2,0.1-0.4,0.1-0.6c0-0.1,0-0.1,0-0.2c0-0.2,0.1-0.3,0.1-0.5c0.1-0.2,0-0.3-0.1-0.4c-0.1-0.1-0.1-0.2-0.2-0.3
	c0-0.1,0-0.1,0-0.2c0-0.2-0.1-0.4,0-0.6c0-0.1,0-0.2,0-0.3c0-0.2-0.1-0.4-0.1-0.5c0-0.2,0.1-0.3,0.1-0.5c0-0.2,0.1-0.3-0.1-0.4
	c-0.2-0.1-0.3-0.3-0.4-0.5c-0.1-0.1-0.1-0.3-0.2-0.4c0-0.1,0-0.1-0.1-0.2c0-0.5-0.2-0.9-0.5-1.3c-0.1-0.1-0.1-0.2-0.1-0.3
	c-0.1-0.3-0.1-0.6-0.3-0.8c-0.1-0.1-0.2-0.2-0.2-0.4c-0.1-0.2-0.3-0.4-0.4-0.6c-0.1-0.1-0.1-0.2-0.1-0.3c0.1-0.3,0-0.6-0.1-0.9
	c0-0.1,0-0.1,0-0.2c-0.1-0.2-0.1-0.6,0-0.7c0,0,0-0.1,0.1-0.1c0.1-0.1,0.2-0.1,0.3-0.1c0.2-0.1,0.3,0,0.3,0.2c0,0.2,0.1,0.4,0.2,0.6
	c0.1,0.1,0.1,0.1,0.2,0.1c0.2,0,0.3,0,0.4-0.1c0.2-0.1,0.4-0.3,0.4-0.6c0-0.2,0.1-0.3,0.3-0.4c0.1,0,0.2-0.1,0.2-0.1
	c0-0.1,0-0.2-0.1-0.3c-0.1-0.2-0.2-0.2,0-0.4c0,0,0-0.1,0-0.1c0-0.2,0.1-0.4,0.3-0.5c0.1-0.1,0.2-0.4,0.1-0.5
	c-0.1-0.2-0.2-0.3-0.3-0.5c0,0,0-0.1,0-0.1c0.1-0.1,0.2-0.2,0.1-0.4C53.1,45,53,44.9,53,44.8c-0.1-0.2-0.2-0.4-0.1-0.6
	c0.1-0.3,0-0.3-0.3-0.4c0,0,0,0,0,0c-0.1,0-0.2-0.1-0.1-0.2c0.1-0.1,0.1-0.1,0.1-0.2c0.1,0,0.3,0,0.4-0.1c0-0.1,0-0.1,0-0.1
	c-0.1-0.2,0-0.3,0.2-0.4c0.2-0.1,0.2-0.2,0.1-0.4c0-0.1-0.1-0.3-0.2-0.3c-0.1,0-0.3,0-0.4,0c-0.1,0.1-0.2,0-0.3,0
	c-0.1-0.1,0-0.2,0-0.3c0,0,0-0.1,0-0.1c-0.1-0.1-0.2-0.2-0.3-0.1c0-0.1-0.1-0.2-0.1-0.3c0-0.1,0.1-0.1,0.1-0.2c0-0.1,0-0.2,0-0.2
	c0-0.1,0-0.2-0.1-0.3c-0.1-0.1-0.2-0.2-0.3-0.4c-0.1-0.1-0.1-0.3-0.3-0.3c0,0,0,0-0.1-0.1c-0.1-0.1-0.2-0.3-0.4-0.2
	c-0.1,0.1-0.2,0.2-0.3,0.3c0,0.1,0.1,0.2,0.2,0.3c0.1,0,0.1,0.1,0.2,0.2c0.1,0.1,0.1,0.2,0.1,0.2c0,0.1-0.1,0.2-0.3,0.2
	c-0.1,0-0.2,0-0.3,0c-0.1,0-0.2,0.1-0.3,0.2c-0.1,0.1-0.2,0.2-0.2,0.2c-0.2,0-0.2,0.2-0.3,0.3c0,0.1,0,0.1,0,0.2
	c0,0.2,0,0.5,0.1,0.7c0,0.1,0.1,0.2,0,0.3c-0.1,0.2-0.1,0.3,0,0.5c0.2,0.2,0.2,0.4,0.3,0.6c0.1,0.2,0.1,0.6,0.5,0.6
	c-0.2,0.2-0.3,0.4-0.5,0.6c-0.1,0.1-0.1,0.2-0.1,0.3c0,0.1,0,0.2-0.2,0.3c0,0-0.1,0.1-0.1,0.1c-0.1,0.3-0.2,0.5-0.2,0.8
	c0,0.2,0,0.4,0.1,0.6c-0.1,0.1-0.3,0.2-0.4,0.3c0,0-0.1,0-0.1,0c-0.1-0.2-0.3-0.1-0.4-0.2c-0.1,0-0.2-0.1-0.4-0.1
	c0,0-0.1-0.1-0.1-0.1c-0.3-0.1-0.5-0.2-0.7-0.5c0,0,0-0.1,0-0.2c0.1-0.2,0.2-0.3,0.2-0.5c0-0.1,0-0.1,0-0.2c0-0.3,0-0.6,0-0.9
	c0-0.1,0-0.1,0-0.2c0-0.2,0-0.4,0-0.6c0-0.2,0-0.4,0.1-0.4c0.2,0,0.3-0.2,0.5-0.3c0.4-0.3,0.8-0.6,1.1-1c0.1-0.2,0.3-0.4,0.2-0.7
	c-0.1-0.2,0-0.4-0.1-0.6c0,0,0-0.1,0-0.1c0.2-0.1,0.2-0.3,0.2-0.5c0-0.2,0.1-0.4,0.1-0.5c0-0.1,0.1-0.2,0.2-0.4
	c0.1-0.3,0.3-0.4,0.5-0.5c0.2,0,0.3-0.1,0.3-0.3c0.1-0.2,0.1-0.3,0.3-0.4c0.2-0.1,0.2-0.2,0.1-0.4c-0.1-0.2-0.1-0.4,0-0.6
	c0.1-0.1,0.1-0.2,0.2-0.3c0.1-0.1,0.2-0.2,0.3-0.2c0.2,0,0.4,0,0.6,0c0.2,0,0.3-0.1,0.3-0.3c0-0.1,0.1-0.1,0.1-0.2
	c0.1-0.1,0.1-0.2,0.2-0.3c0.1-0.3,0.3-0.5,0.5-0.6c0.2-0.1,0.3-0.2,0.5-0.3c0.1,0,0.1-0.1,0.2-0.2c0.1-0.3,0.2-0.5,0.2-0.9
	c0-0.1,0-0.3,0.1-0.4c0.1-0.2,0.2-0.3,0.3-0.5c0.1-0.2,0.1-0.3,0-0.5c0-0.1,0-0.1,0-0.2C54.9,32.2,55,32.1,55,32.1z M49.7,4.4
	c-0.1,0-0.2,0-0.3,0c-0.2,0-0.5,0.1-0.7,0.1c-0.2,0-0.4,0-0.5,0c-0.1,0-0.1-0.1-0.2-0.1c-0.2,0-0.4,0-0.6-0.1
	c-0.2-0.1-0.4,0-0.6-0.1c-0.1-0.1-0.2,0-0.3,0.1c0,0,0,0,0,0c-0.3,0-0.4,0.5-0.8,0.5c-0.1,0-0.2,0.1-0.4,0.1c-0.1,0-0.2-0.1-0.3-0.1
	c-0.1,0-0.2-0.1-0.3-0.1c0-0.1-0.1-0.2-0.1-0.3c0,0,0,0,0,0c0.1,0,0.2-0.1,0.2-0.1c0-0.1-0.1-0.1-0.2-0.1c-0.2,0-0.3-0.1-0.2-0.3
	c0.1-0.3,0.2-0.6,0.3-0.9c0,0,0-0.1,0.1-0.1c0.1-0.1,0.2-0.1,0.3-0.2c0.1,0,0.2-0.1,0.2,0c0.2,0.1,0.3,0.1,0.5,0c0,0,0,0.1,0,0.1
	c0,0,0.1,0.1,0.1,0.1C45.9,3,46,3,46,2.9c0-0.1,0-0.2,0-0.2c0-0.1,0-0.2,0-0.4c0-0.2,0-0.3,0-0.5c0-0.3,0-0.6,0-0.9
	c0,0,0.1-0.1,0.1-0.1c0.2,0,0.4,0,0.6,0c0.1,0,0.3,0.2,0.3,0.4c0,0.3,0,0.6,0.2,0.9c0,0.1,0.1,0.1,0.2,0.1c0,0,0.1-0.1,0.1-0.1
	c0.2-0.3,0.8-0.7,1.3-0.6c0.1,0,0.2,0,0.2,0c0.2,0,0.5,0,0.7,0.1c0,0,0,0,0,0c0.1,0.3,0.3,0.3,0.5,0.3c0.1,0,0.1,0.1,0.2,0.2
	c0.1,0,0.1-0.1,0.1-0.2c0-0.1-0.1-0.1-0.2-0.2c0.1-0.1,0.4,0.1,0.6,0.2c0,0.1-0.1,0.1-0.1,0.2c0.1,0.3,0.2,0.3,0.5,0.3
	c0.1-0.1,0.1-0.2,0.2-0.2c0,0,0,0,0.1,0c-0.1,0.1-0.1,0.2-0.2,0.3c-0.2,0.4-0.3,0.7-0.5,1.1c-0.2,0.3-0.4,0.4-0.6,0.7
	C50.2,4.4,49.9,4.4,49.7,4.4z"/>
<path class="st1" d="M55.9,51.8c0.2-0.1,0.1-0.3,0.1-0.5c0-0.3,0-0.5,0.1-0.8c0-0.2,0.1-0.3,0.3-0.3c0.1,0,0.2-0.1,0.2-0.1
	c0,0,0-0.1,0-0.1c-0.1,0-0.3,0-0.3,0c0-0.1,0-0.2,0-0.3c0-0.2,0.2-0.3,0.3-0.4c0,0,0,0,0,0c0.3,0.1,0.6,0.2,0.9,0.3
	c0.2,0.1,0.3,0.1,0.4,0c0.1-0.1,0.2,0,0.3,0.1c0.1,0.1,0,0.2,0,0.2c0,0,0,0-0.1,0.1c0.1,0.1,0.2,0.3,0.4,0.2c0,0,0.1,0,0.1,0
	c0.1,0.1,0.2,0.1,0.3,0c0.1,0,0.2,0.1,0.2,0.2c0,0.2,0.1,0.1,0.2,0.1c0.2-0.1,0.3-0.1,0.4,0.2c0.1,0,0.3-0.1,0.4-0.1
	c0.1,0,0.2,0,0.3,0.1c0.1,0.1,0,0.2,0,0.3c0,0.1-0.2,0.2-0.1,0.3c0,0,0,0.1,0.1,0.1c0.2,0.1,0.3,0.2,0.3,0.4c0,0,0.1,0.1,0.2,0.1
	c0.1,0,0.1-0.1,0.2-0.1c0.2-0.1,0.1-0.2,0-0.3c-0.2-0.3-0.2-0.5,0.2-0.7c-0.1-0.2,0-0.5-0.3-0.7c-0.1-0.1,0-0.4,0.1-0.5
	c0.2-0.1,0.3-0.1,0.5,0c0,0.1,0.1,0.1,0.1,0.2c0,0.1,0.1,0.1,0.1,0.2c0,0,0,0,0,0c0.2-0.2,0.4-0.1,0.5,0c0,0,0.1,0,0.1,0
	c0,0,0-0.1,0-0.1c0-0.1-0.1-0.1-0.1-0.2c-0.1-0.2-0.1-0.5,0.2-0.6c0.3-0.1,0.3-0.1,0.5,0.1c0.2-0.1,0.4-0.2,0.6-0.1
	c0.2,0.1,0,0.3,0,0.4c0.1,0,0.3,0,0.4,0.1s0,0.3,0,0.5c0.1-0.1,0.3-0.2,0.4-0.1c0.1,0.1,0.2,0.2,0.4,0.3c0.1,0,0.2,0,0.2,0
	c0,0,0.1,0,0.1,0c0,0,0-0.1,0-0.1c0-0.2-0.1-0.2-0.3-0.3c-0.2-0.1-0.3-0.3-0.5-0.4c-0.1-0.1-0.1-0.2-0.1-0.3
	c-0.1-0.2-0.2-0.3-0.2-0.5c-0.1-0.1,0-0.2,0.1-0.2c0,0,0.1,0,0.1,0c0.1,0,0.1-0.1,0-0.2c-0.4-0.3-0.2-0.6,0.1-0.8
	c0.1-0.1,0.1-0.3,0.2-0.5c0.1-0.2,0.1-0.3,0.2-0.5c0-0.1,0.1,0,0.2,0c0,0.2,0.1,0.1,0.2,0c0.1-0.1,0.2-0.2,0.3,0
	c0.1,0.1,0.1,0.3,0,0.4c-0.1,0.1-0.1,0.2-0.2,0.2c0,0-0.1,0.1-0.2,0.1c-0.1,0-0.2,0-0.3,0c0,0.1,0.2,0.2,0.1,0.3
	c-0.1,0.1-0.1,0.1-0.2,0.2c0,0.1,0,0.2,0,0.2c0.1-0.1,0.2-0.2,0.4-0.3c0.1-0.1,0.2,0,0.3,0.1c0,0,0,0.1,0.1,0.1
	c0.1,0.1,0.2,0.2,0.1,0.4c-0.1,0.1,0,0.3,0,0.5c0,0,0.1-0.1,0.1-0.1c0-0.1,0.1-0.3,0.2-0.3c0,0,0.1-0.1,0-0.1
	c-0.1-0.2-0.2-0.3-0.2-0.5c0-0.1,0-0.2,0-0.2c0.1-0.1,0.2-0.2,0.3-0.3c0.1-0.1,0.2,0,0.3,0.1c0.1-0.1,0.3-0.4,0.5-0.1
	c0.1,0.2-0.1,0.3-0.2,0.5c0.2,0,0.4,0,0.6,0c0,0.1,0,0.1,0,0.1c-0.1,0.1-0.1,0.2-0.1,0.3c0,0.2-0.1,0.2-0.3,0.2c-0.2,0-0.3,0-0.4,0
	c-0.1,0.2-0.2,0.4-0.3,0.6c0.1,0.1,0.3,0,0.4-0.1c0,0,0.1-0.1,0.1-0.1c0.1,0,0.2,0.1,0.2,0.1c0,0.1,0,0.1-0.1,0.2
	c-0.1,0.2-0.2,0.2-0.2,0.5c0,0.2-0.1,0.4-0.3,0.5c0,0,0,0-0.1,0c0,0,0,0-0.1,0.1c0.2,0.1,0.4,0.1,0.6,0.2c0,0,0.1,0,0.1-0.1
	c-0.1-0.3,0.2-0.6,0.2-0.9c0,0,0,0,0-0.1c0.2,0.1,0,0.3,0.2,0.4c0.1,0,0.2-0.3,0.4-0.1c0-0.2,0-0.3-0.1-0.4c-0.1-0.1-0.1-0.3,0-0.4
	c0-0.1,0.1-0.1,0.1-0.2c0.3,0.3,0.3,0.1,0.4,0.7c0.1-0.1,0.2-0.2,0.2-0.3c0-0.1,0-0.2,0-0.3c0-0.2,0.2-0.2,0.3-0.1
	c0.1,0.1,0.2,0.1,0.2,0c0,0,0-0.1,0-0.1c0.2,0,0.3-0.3,0.5-0.3c0.2,0,0.3,0,0.3,0.2c0,0,0,0.1,0.1,0.1c0.1,0.1,0.1,0.2,0,0.2
	c-0.3,0.1-0.5,0.3-0.8,0.3c-0.3,0-0.4,0.2-0.6,0.4c0,0.1-0.1,0.1-0.1,0.2c0,0.1,0,0.1,0,0.2c0.1,0,0.2-0.1,0.2-0.1c0,0,0,0,0,0
	c0,0.3,0.1,0.6-0.2,0.9c-0.1,0.1-0.2,0.1-0.2,0.2c0,0,0,0.1,0.1,0.2c0.1,0.1,0.1,0.1,0.1,0.2c0,0.1,0.1,0.1,0.1,0.2
	c0,0,0.1-0.1,0.1-0.1c0.1-0.2,0.2-0.5,0.3-0.7c0.1-0.1,0.2-0.1,0.4-0.2c0-0.1,0-0.2,0-0.3c0.1,0,0.3,0,0.4,0
	c-0.1-0.2-0.2-0.4,0.1-0.5c0.1,0,0.1,0.1,0.2,0.1c0.2,0.1,0.3,0.1,0.3-0.2c0-0.3,0.1-0.3,0.3-0.2c0,0,0,0,0,0c0,0,0.1-0.1,0.1-0.1
	c0,0,0.1,0,0.1,0.1c0,0,0,0.1,0,0.2c-0.1,0.1-0.2,0.2-0.2,0.4c0,0.1,0,0.1,0,0.2c0,0,0.1,0.1,0.1,0.1c0,0.1-0.1,0.2-0.2,0.2
	c0,0-0.1,0-0.1,0c-0.2,0-0.3,0.1-0.3,0.3c0,0,0,0.1,0,0.2c0.1,0,0.2,0,0.3,0c0,0.1,0,0.3,0,0.4c0,0.1,0,0.3,0,0.4
	c0,0.1-0.1,0.2-0.2,0.2c-0.1,0-0.2,0-0.2,0c-0.1,0-0.2,0-0.2,0.1c-0.1,0.1-0.3,0.1-0.4,0.2c-0.1,0-0.2,0-0.3,0
	c-0.1,0-0.1,0.1-0.1,0.2c0.1,0.1,0.1,0.3-0.1,0.4c-0.2,0-0.3,0.1-0.5,0.1c0,0-0.1,0.1-0.1,0.1c0,0,0.1,0.1,0.1,0.1
	c0.1,0,0.2,0.1,0.3,0.1c0.2,0,0.3,0,0.5,0c0.2,0,0.4,0,0.6,0c0,0.3,0,0.5-0.2,0.6c-0.2,0.1-0.4,0.1-0.5,0.1c-0.1,0-0.2,0-0.2,0
	c0,0.1,0,0.2,0,0.3c0,0.2-0.2,0.2-0.3,0.1c0,0,0,0-0.1,0c-0.2,0-0.3-0.1-0.5-0.1c0,0,0,0.1,0,0.1c0.1,0.2,0,0.3-0.1,0.3
	c-0.2,0.1-0.5,0.3-0.7,0.4c-0.1,0.1-0.3,0.1-0.4,0.1c0,0,0,0.1,0,0.1c0.1,0.2,0.1,0.2-0.1,0.3c-0.1,0-0.2,0.1-0.3,0.1
	c0,0,0.1,0.1,0.1,0.1c0.1,0.1,0.1,0.3,0,0.3c-0.2,0.1-0.4,0.2-0.6,0.1c0,0-0.1,0-0.1,0c-0.2,0.1-0.3,0-0.3-0.1
	c-0.1,0.1-0.3,0.2-0.4,0.3c0,0,0.1,0.1,0.2,0.1c-0.1,0.1-0.1,0.1-0.2,0.2c-0.1,0.1-0.2,0.1-0.3,0.2c-0.1,0.1-0.2,0-0.3-0.1
	c-0.2-0.2-0.3-0.2-0.5,0c-0.1,0.1-0.2,0.1-0.3,0.2c-0.3,0.2-0.4,0.2-0.5-0.2c-0.1-0.2-0.2-0.5-0.2-0.8c0-0.1-0.1-0.1-0.1-0.2
	c-0.1-0.2-0.2-0.3-0.4-0.5c-0.1,0-0.2,0.1-0.3,0.1c0,0.1,0,0.2,0,0.3c-0.2,0-0.4,0.1-0.6-0.1c0,0.1,0,0.2,0,0.3c0,0,0,0.1-0.1,0.1
	c-0.1,0.1-0.1,0.2-0.2,0.3c-0.1,0.3-0.3,0.4-0.7,0.2c0.1,0.3,0,0.4-0.2,0.6c0,0-0.1,0.1-0.1,0.1c0.1,0.2,0,0.4-0.2,0.5
	c0,0,0,0,0,0.1c-0.1,0.1-0.1,0.2-0.2,0.4c0,0,0,0.1,0,0.1c0.1,0.2,0.1,0.4,0.1,0.7c-0.1,0-0.1,0-0.2,0c0,0.2,0.1,0.3-0.2,0.4
	c0,0.1,0.1,0.2,0.1,0.2c0,0.1,0,0.2,0,0.2c-0.2,0.2-0.2,0.5-0.3,0.7c-0.1,0.2-0.2,0.3-0.3,0.5c0.1,0,0.2,0,0.2,0
	c0.2-0.1,0.3,0,0.4,0.1c0.1,0.1,0.2,0.2,0.3,0.3c0.1-0.1,0.1-0.1,0.2-0.2c0.1,0.2,0.4,0.2,0.4,0.4c0,0,0,0.1,0.1,0.1
	c0,0,0,0.2,0.1,0.1c0,0,0,0,0,0c0.1,0.1,0.2,0.2,0.3,0.4c0.1,0.3,0.3,0.6,0.5,0.9c0.1,0.2,0.3,0.4,0.4,0.5c0.1,0.1,0.2,0.2,0.3,0.3
	c0.1,0.1,0.1,0.2,0.1,0.3c0.1,0.1,0.1,0.2,0.3,0.2c0,0,0.1,0.1,0.2,0.1c0,0.1,0.1,0.1,0.1,0.2c0.1,0.2,0.3,0.3,0.5,0.4
	c0.2,0.1,0.5,0.2,0.7,0.3c0.1,0,0.1,0.2,0.2,0.3c0,0,0.1,0.1,0.1,0.1c0.2,0.1,0.5,0.2,0.7,0.3c0.3,0.1,0.5,0.3,0.8,0.4
	c0.1,0,0.2,0.1,0.2,0.1c0.2,0.1,0.5,0.3,0.7,0.4c0.1,0.1,0.3,0.1,0.4,0.1c0.3-0.1,0.5,0.1,0.7,0.2c0.2,0.1,0.3,0.3,0.5,0.5
	c0,0,0,0,0,0c0.1,0.3,0.2,0.6,0.5,0.8c0.2,0.2,0.4,0.3,0.5,0.5c0.2,0.1,0.3,0.2,0.5,0.4c0.3,0.2,0.5,0.4,0.8,0.6
	c0.2,0.1,0.3,0.3,0.4,0.4c0,0.1,0.1,0.1,0.1,0.2c-0.1,0.1-0.2,0.1-0.3,0c-0.2-0.1-0.5-0.2-0.7-0.3v0.3c-0.2-0.1-0.3-0.1-0.5-0.2
	c0,0-0.1-0.1-0.1-0.2c0,0,0-0.1,0-0.1c0,0-0.1,0-0.1,0c-0.1,0-0.1,0-0.1,0.1c-0.1,0.2-0.2,0.1-0.3,0c-0.1-0.1-0.2-0.2-0.3-0.3
	c-0.4,0.1-0.5,0-0.4-0.4c-0.1,0-0.1,0-0.2,0c-0.2,0-0.3-0.1-0.3-0.3c0-0.1-0.1-0.1-0.1-0.1c0,0-0.1-0.1-0.1-0.1
	c0-0.2-0.1-0.2-0.2-0.2c-0.1,0-0.2,0-0.1-0.2c0-0.1-0.1-0.2-0.1-0.2C67,68,66.9,68,67,67.9c0.1-0.1,0-0.2-0.1-0.3c0,0,0,0,0,0
	c-0.1-0.2-0.2-0.3-0.5-0.2c-0.1,0-0.3-0.2-0.4-0.3c-0.1-0.1-0.2-0.2-0.2-0.2c-0.1,0-0.3,0-0.4-0.1c0,0,0-0.1-0.1-0.2
	c0.1,0,0.2,0,0.2,0c0,0,0,0,0-0.1c-0.1,0-0.2-0.1-0.3-0.1c-0.1,0-0.2,0-0.3-0.1c-0.1-0.1-0.3-0.2-0.5-0.2c-0.1,0-0.2,0-0.3-0.1
	c-0.3-0.1-0.6-0.2-0.9-0.2c0,0-0.1,0-0.1-0.1c-0.1-0.2-0.2-0.2-0.4-0.3c-0.1,0-0.2-0.1-0.2-0.2c0-0.1,0-0.2-0.2-0.2
	c0,0-0.1-0.1-0.2-0.2c-0.1-0.1-0.1-0.3-0.2-0.4c0,0,0,0,0,0v0.2c-0.1,0-0.1,0-0.2,0c-0.2,0-0.2-0.1-0.2-0.2c0,0,0-0.1,0-0.2
	c-0.2,0-0.3-0.1-0.3-0.3c0,0,0,0-0.1,0.1C61.1,64,61,63.9,61,63.9c0,0,0,0,0,0c-0.3,0-0.3-0.3-0.5-0.5c-0.1-0.1-0.1-0.1-0.3-0.1
	c-0.1,0-0.2-0.1-0.2-0.2c-0.1-0.2-0.2-0.4-0.3-0.6c0,0,0,0,0-0.1c-0.2-0.1-0.4-0.3-0.6-0.4c-0.3-0.1-0.4-0.4-0.6-0.6
	c-0.1-0.1-0.1-0.2-0.2-0.3c-0.2-0.1-0.5-0.3-0.7-0.5c-0.2-0.2-0.3-0.4-0.4-0.5c0,0-0.1-0.1-0.1-0.1c-0.3-0.1-0.4-0.4-0.6-0.6
	c-0.1-0.1-0.2-0.2-0.3-0.3c-0.1-0.1-0.1-0.1-0.1-0.2c0,0,0-0.1-0.1-0.1c-0.2-0.1-0.3-0.4-0.3-0.6c0-0.2-0.1-0.3-0.2-0.5
	c-0.2-0.3-0.3-0.5-0.3-0.8c0-0.2,0.1-0.4,0-0.5c0,0,0.1-0.1,0.1-0.2c0.1-0.1,0.1-0.2,0.1-0.3c0.1-0.1,0.2-0.3,0.2-0.4
	c0.1-0.3,0.3-0.5,0.4-0.8c0,0,0-0.1,0-0.1c0-0.1-0.1-0.2-0.1-0.3c0,0,0-0.1,0-0.1c-0.2-0.1-0.1-0.3-0.1-0.5c0-0.3,0-0.5,0.1-0.7
	c0.1-0.2,0.1-0.5,0-0.7C56,52.1,56,52,55.9,51.8"/>
<path class="st2" d="M32.9,37.4c0,1.9-1.6,3.5-3.5,3.5c-1.9,0-3.5-1.6-3.5-3.5c0-1.9,1.6-3.5,3.5-3.5C31.3,33.9,32.9,35.4,32.9,37.4
	"/>
</svg>
