<!-- Generator: Adobe Illustrator 25.2.1, SVG Export Plug-In  -->
<svg version="1.1" xmlns="http://www.w3.org/2000/svg" xmlns:xlink="http://www.w3.org/1999/xlink" x="0px" y="0px" width="67px"
	 height="78.1px" viewBox="0 0 67 78.1" style="overflow:visible;enable-background:new 0 0 67 78.1;" xml:space="preserve">
<style type="text/css">
	.st0{fill:#00AEEF;}
	.st1{fill:#FFFFFF;}
	.st2{fill:#EC2227;stroke:#FFFFFF;stroke-miterlimit:10;}
</style>
<defs>
</defs>
<path class="st0" d="M62.2,64.5H4.8c-2.6,0-4.8-2.1-4.8-4.8l0-41.4c0-2.6,2.1-4.8,4.8-4.8h57.5c2.6,0,4.8,2.1,4.8,4.8v41.4
	C67,62.4,64.9,64.5,62.2,64.5z"/>
<g>
	<path class="st1" d="M48.1,32.1c0-0.1,0-0.3-0.1-0.4c-0.2-0.2-0.2-0.4-0.1-0.6c0.1-0.3,0.2-0.5,0.2-0.8c0-0.1,0.1-0.3-0.2-0.4
		c0,0,0,0-0.1-0.1c-0.1-0.1-0.2-0.2-0.2-0.4c0-0.1-0.1-0.3-0.2-0.4c-0.2-0.2-0.5-0.4-0.5-0.8c0-0.1-0.1-0.2-0.2-0.3
		c-0.2-0.2-0.3-0.3-0.5-0.5c-0.2-0.2-0.5-0.4-0.4-0.7c0,0,0,0,0,0c-0.1-0.2-0.2-0.3-0.2-0.5c-0.1-0.4,0-0.7,0.2-1.1
		c0.1-0.2,0.1-0.3-0.1-0.5c-0.2-0.1-0.3-0.3-0.4-0.5c-0.1-0.4,0-0.7,0.2-1c0.1-0.2,0.3-0.3,0.5-0.5c0.2-0.2,0.4-0.3,0.3-0.6
		c-0.1-0.2-0.1-0.4-0.1-0.6c0-0.2,0-0.4,0-0.6c0-0.2-0.1-0.5-0.1-0.7c0-0.2-0.1-0.4-0.2-0.6c-0.2-0.3-0.3-0.7-0.1-1
		c0.1-0.2,0.3-0.4,0.1-0.6c0,0,0-0.1,0-0.1c0-0.1-0.1-0.3-0.1-0.4c0,0-0.1-0.1-0.1-0.1c-0.2,0-0.3-0.2-0.2-0.4c0-0.1,0.1-0.2,0-0.3
		c-0.1-0.2,0-0.3,0-0.5c0.1-0.2,0.2-0.4,0.2-0.7c0-0.2,0-0.3-0.1-0.5c-0.1-0.2-0.1-0.5,0.1-0.7c0,0,0.1,0,0.1-0.1
		c0.2-0.3,0.6-0.4,0.9-0.6c0.2-0.1,0.2-0.2,0.2-0.3c0-0.2,0-0.4,0-0.7c0-0.2,0-0.4-0.1-0.5c-0.1-0.2-0.3-0.3-0.4-0.4
		c-0.1-0.1-0.1-0.1-0.2-0.1c-0.2-0.1-0.3-0.3-0.6-0.3c-0.1,0-0.2,0-0.2-0.1c0-0.1,0-0.2,0-0.2c0-0.1,0-0.3-0.1-0.4
		c-0.1-0.1-0.2-0.2-0.3-0.3c-0.1-0.1-0.1-0.2-0.1-0.3c0-0.2,0-0.4,0-0.6c0.3,0,0.3-0.1,0.3-0.4c0-0.1,0-0.2,0-0.2
		c0.2-0.2,0.1-0.3,0-0.5c-0.1-0.3-0.3-0.6-0.4-0.9c-0.1-0.3-0.2-0.5-0.4-0.7c-0.1-0.1-0.3-0.2-0.2-0.4c0-0.1,0-0.2-0.1-0.2
		c-0.2-0.1-0.4-0.3-0.6-0.4c0,0-0.1,0-0.1,0c-0.1,0-0.2,0-0.3,0c0.2-0.1,0.3-0.2,0.5-0.3c0.3-0.2,0.3-0.4,0.2-0.6
		c-0.1-0.1,0-0.2,0-0.2c0.1-0.1,0.2-0.2,0.3-0.3c0.2-0.2,0.3-0.4,0.5-0.7c0.1-0.2,0.3-0.4,0.3-0.6c0.1-0.3,0.3-0.6,0.3-0.9
		c0.2-0.2,0.3-0.6,0.7-0.6V1.2c-0.1,0-0.2,0-0.3,0c-0.1-0.1-0.2,0-0.3,0.1c-0.1,0-0.1,0.1-0.2,0.1c-0.1,0-0.3,0.1-0.4,0.1
		c-0.1,0-0.2,0.1-0.3,0c-0.1-0.1-0.3-0.1-0.4-0.2C43.5,1.1,43.3,1,43,1c-0.2,0-0.4,0-0.6,0c-0.2,0-0.4,0-0.6-0.1
		c-0.2,0-0.4-0.1-0.6-0.2c-0.3-0.1-0.6-0.1-0.9-0.4C40.1,0.1,39.8,0,39.5,0c-0.3,0-0.6,0-0.8,0.1c-0.1,0-0.2,0.1-0.3,0
		c0,0-0.1,0-0.2,0c0,0-0.1,0.1-0.1,0.1c0,0.2-0.1,0.4-0.2,0.6c0,0-0.1,0.1-0.1,0.1c0,0.2-0.1,0.4-0.2,0.6c-0.1,0.2-0.1,0.4-0.2,0.6
		c-0.1,0.2-0.1,0.4-0.2,0.6c0,0.1-0.1,0.1-0.2,0.2c-0.1,0.1-0.1,0.1-0.2,0.2C37,3.4,37,3.6,36.9,3.7c-0.1,0.2-0.3,0.5-0.4,0.7
		c-0.1,0.1-0.1,0.2-0.2,0.3c-0.2,0.3-0.3,0.6-0.6,0.7c-0.1,0.1-0.3,0.1-0.4,0.1c-0.3,0-0.5-0.2-0.8-0.2c-0.2,0-0.4-0.2-0.6-0.3
		c-0.1-0.1-0.3-0.1-0.5-0.1c-0.2,0-0.4,0-0.6-0.1c-0.2-0.1-0.3-0.2-0.5-0.3c-0.2,0-0.5,0-0.7,0c0,0,0,0,0,0
		c-0.2,0.1-0.3,0.2-0.5,0.3c0,0-0.1,0-0.1,0c-0.2,0.1-0.5,0.2-0.7,0.3c-0.2,0.1-0.3,0.2-0.4,0.4c0,0,0,0.1-0.1,0.2
		c-0.1,0.1-0.2,0.2-0.2,0.3c-0.1,0.2-0.1,0.4-0.2,0.6c-0.1,0.3-0.3,0.5-0.4,0.8c-0.1,0.2-0.3,0.4-0.4,0.6c-0.2,0.2-0.2,0.4-0.3,0.7
		c-0.1,0.1,0,0.3-0.2,0.3c-0.2,0.1-0.3,0.1-0.5,0.2c-0.2,0.1-0.3,0.2-0.3,0.4c0,0.1-0.1,0.1-0.1,0.2c-0.2,0.1-0.2,0.3-0.1,0.4
		c0,0.1,0,0.1,0,0.2c0,0.2-0.1,0.3,0,0.5c0,0,0,0.1,0,0.2c-0.1,0.3-0.2,0.7-0.3,1.1c-0.1,0.3-0.1,0.5-0.1,0.8c0,0.1-0.1,0.2-0.1,0.4
		c-0.1,0.3-0.3,0.6-0.4,0.9c-0.1,0.2-0.3,0.5-0.4,0.7c-0.1,0.1-0.1,0.2-0.1,0.3c-0.1,0.1-0.2,0.3-0.3,0.4c-0.1,0.1-0.1,0.2-0.2,0.2
		c-0.1,0.1-0.1,0.1-0.2,0.2c-0.3,0.2-0.6,0.4-0.9,0.5c-0.1,0.1-0.3,0.1-0.5,0.1c-0.2,0.1-0.4,0.1-0.5,0c0,0-0.1,0-0.1-0.1
		c-0.1-0.1-0.2-0.3-0.3-0.2c-0.2,0.1-0.4,0.2-0.6,0.2c0,0.2-0.1,0.3-0.1,0.4c-0.1,0.4-0.3,0.7-0.4,1.1c0,0.1-0.1,0.2-0.2,0.2
		c-0.2,0-0.3,0.2-0.4,0.4c0,0.2-0.2,0.3-0.4,0.3c-0.1,0-0.2,0-0.3,0.1c0,0.2,0,0.4,0,0.5c0,0.1-0.1,0.2-0.1,0.2
		c0,0.2-0.1,0.4-0.1,0.6c-0.1,0.3-0.2,0.5-0.2,0.8c0,0.3-0.2,0.5-0.3,0.7c0,0.1,0,0.1-0.1,0.2c0,0.1,0,0.2,0,0.2
		c0,0.1-0.1,0.2-0.1,0.2c0,0.2-0.1,0.3-0.1,0.5c-0.1,0.2-0.2,0.5-0.2,0.7c-0.1,0.2-0.1,0.3-0.2,0.5c0,0.1-0.1,0.1-0.1,0.2
		c-0.1,0.3-0.1,0.5-0.2,0.8c-0.1,0.3-0.2,0.5-0.5,0.6c-0.2,0.1-0.3,0.3-0.3,0.5c0,0.3-0.1,0.5-0.1,0.8c-0.1,0.4-0.3,0.8-0.4,1.3
		c-0.1,0.3-0.3,0.6-0.3,0.9c0,0.7-0.1,1.4-0.2,2.1c-0.1,0.4-0.1,0.7-0.2,1.1c0,0.1-0.1,0.1-0.1,0.2c0,0.3,0,0.5-0.1,0.8
		c-0.1,0.2-0.2,0.4-0.2,0.6c-0.1,0.2-0.2,0.4-0.3,0.6c-0.1,0.3-0.3,0.6-0.2,1c0,0.1,0,0.2,0,0.3c0,0.2-0.1,0.4-0.1,0.6
		c0,0.2-0.1,0.4-0.1,0.5c-0.1,0.2-0.2,0.4-0.2,0.6c0,0.3-0.2,0.5-0.2,0.7c0,0.1-0.1,0.2-0.1,0.3c-0.1,0.2-0.1,0.4-0.2,0.6
		c-0.1,0.2-0.1,0.4-0.2,0.5c-0.2,0.2-0.4,0.5-0.5,0.9c0,0.2-0.1,0.3-0.1,0.5c-0.2,0.2-0.2,0.5-0.3,0.8c0,0.1-0.1,0.3-0.2,0.4
		c-0.1,0.2-0.2,0.3-0.3,0.5c-0.1,0.1-0.2,0.3-0.3,0.3c-0.4,0.1-0.5,0.4-0.6,0.8c-0.1,0.3-0.1,0.5-0.2,0.8c0,0.1-0.1,0.1-0.1,0.2
		c-0.1,0.3-0.2,0.6-0.5,0.8c-0.2,0.1-0.4,0.4-0.3,0.7c0,0.2,0,0.4,0,0.5c0,0.3,0,0.5,0.1,0.8c0.1,0.3,0.1,0.6,0.1,0.8
		c0,0.2,0,0.4,0,0.7c0,0.2,0.1,0.4,0.1,0.6c0,0.4,0,0.9,0,1.3c0,0.2,0,0.4,0,0.5c0.1,0.3,0.1,0.6,0.2,0.9c0,0.2,0.1,0.3,0.1,0.5
		c0,0.4,0,0.8,0,1.2c0,0.3-0.1,0.5-0.2,0.8c-0.1,0.1-0.2,0.2-0.3,0.4c-0.1,0.2-0.1,0.3,0.1,0.4c0,0,0.1,0.1,0.1,0.1
		c0,0.5,0.1,0.9,0.1,1.4c0,0.2,0,0.5,0,0.8c0,0.4,0,0.7-0.1,1.1c0,0.3,0,0.7-0.1,1c0,0.1,0,0.2,0,0.3c-0.1,0.3-0.1,0.6-0.1,1
		c0,0.3-0.1,0.6-0.1,0.9c0,0,0,0.1,0,0.1c0.1,0.2,0,0.4-0.2,0.5c-0.1,0.1-0.2,0.4-0.1,0.6c0,0.1,0,0.2,0,0.3c0,0,0,0.1,0,0.1
		c0,0.3-0.1,0.5-0.1,0.8c0,0.1,0,0.3,0,0.4c0,0.1-0.1,0.2-0.1,0.4c0,0.2-0.3,0.4-0.2,0.6c0,0,0,0,0,0c-0.2,0.1-0.3,0.2-0.5,0.3
		c-0.2,0.1-0.2,0.1-0.2,0.3c-0.1,0-0.2-0.1-0.3-0.1c-0.1,0-0.2,0-0.2,0.1c0,0,0,0.1,0,0.1c0,0.3,0.1,0.3,0.4,0.2c0.1,0,0.2,0,0.2,0
		c0,0.2,0.1,0.4,0,0.6c0,0.2,0,0.5-0.1,0.7c0,0.1,0,0.1,0,0.2c0,0.2-0.1,0.3-0.1,0.5c0,0.1,0,0.1,0.1,0.2c-0.1,0.1-0.1,0.3-0.4,0.3
		c-0.1,0-0.3,0.1-0.4,0.2c-0.1,0.1-0.1,0.4-0.1,0.5c0,0.2,0,0.3-0.2,0.4c-0.1,0-0.2,0.1-0.2,0.2c0,0.1-0.1,0.1-0.2,0.1
		c-0.1,0-0.1,0-0.1,0.1c0,0.2,0,0.3,0,0.5c0.1,0.2,0.2,0.4,0.2,0.6c0,0.1,0,0.1,0,0.2c0.1,0.3,0.2,0.3,0.5,0.2
		c0.2,0.2,0.3,0.4,0.5,0.6c0,0,0.1,0.1,0.1,0.1c0.1,0,0.2,0,0.3,0.1c0.1,0.2,0.1,0.4,0.2,0.5c-0.1,0.1-0.3,0.1-0.3,0.2
		c0,0.2-0.2,0.3-0.4,0.4c-0.2,0-0.1,0.2-0.2,0.3c0,0.2,0,0.4,0,0.6c0,0,0,0.1,0,0.1c-0.1,0.1-0.1,0.2-0.2,0.3c0,0.2,0,0.4,0,0.5
		c0,0.2,0,0.4,0.1,0.5c0,0,0,0.1-0.1,0.2c-0.1,0.1-0.2,0.1-0.3,0.2c-0.1,0.2-0.3,0.3-0.5,0.3c0,0.1-0.1,0.2-0.1,0.2v0.6h0.1
		c0-0.1,0.1-0.3,0.2-0.3c-0.1,0.1,0,0,0,0c0,0,0,0,0.1-0.1c0.1-0.1,0.1-0.1,0.2-0.2c0,0,0.1,0,0.1-0.1c0,0,0.1-0.1,0,0
		c0.1,0,0.1-0.1,0.2-0.1c0.1-0.1,0.3-0.2,0.4-0.3c0,0,0.1,0,0.1-0.1c0,0,0,0,0,0c0,0,0.1-0.1,0.1-0.1c0,0,0.1-0.1,0.1-0.1
		c0,0,0,0,0,0c0,0,0,0,0,0c0,0,0,0,0,0c0,0,0,0,0,0c0,0,0,0,0,0c0,0,0.1-0.1,0.1-0.1c0,0,0,0,0,0c0,0,0,0,0-0.1c0,0,0-0.1,0-0.1
		c0-0.1,0-0.1,0-0.2c0-0.2,0-0.4,0-0.5c0.1-0.3,0.3-0.4,0.6-0.3c0.1,0,0.1,0.1,0.2,0.1c0,0,0.1-0.1,0.1-0.1c0,0,0,0,0-0.1
		c0-0.1,0.1-0.2,0.2-0.3c0.1,0,0.1-0.1,0.1-0.2c0-0.1,0-0.2,0.2-0.2c0.1,0,0.2-0.1,0.2-0.2c0.1-0.2,0.1-0.2,0.3-0.2
		c0.2,0,0.2-0.1,0.1-0.3c-0.2-0.2-0.2-0.5-0.5-0.7c0,0,0-0.1,0-0.1c0.4,0,0.7,0,0.9-0.4c-0.1-0.1-0.2-0.1-0.3-0.2
		c0.1-0.1,0.2-0.1,0.3-0.2c0,0,0-0.1,0-0.2c0.1,0,0.2,0,0.2,0c0.1,0,0.3-0.1,0.4-0.1c0.1,0,0.1-0.1,0.1-0.1c0.1,0,0.1-0.1,0.2-0.1
		c0,0,0.1,0,0.2-0.1c0.1-0.1,0.2-0.2,0.4-0.2c0,0,0.1,0,0.1-0.1c0.1-0.1,0.2-0.3,0.3-0.4c0.2-0.3,0.2-0.4,0-0.7c0,0-0.1-0.1-0.1-0.1
		c0-0.2,0-0.3-0.2-0.5c0,0,0-0.1,0-0.2c0.1,0,0.1,0,0.2,0c0.1,0,0.2,0,0.2,0c0.1-0.1,0.1-0.1,0.3-0.1c0.1,0,0.2,0,0.3,0
		c0-0.1,0-0.2,0-0.3c0-0.1-0.1-0.1-0.2-0.2c0.5-0.3,0.6-0.3,0.5-0.7c0.3,0,0.5-0.2,0.6-0.4c0.1-0.2,0.2-0.5,0.3-0.7
		c0-0.1,0.1-0.3,0.1-0.4c-0.1-0.2,0-0.3,0.2-0.5c0,0,0.1-0.1,0.1-0.2c0-0.1,0-0.3,0-0.3c0.2-0.1,0.1-0.2,0.2-0.3
		c0.1-0.2,0.2-0.5,0.1-0.7c0.1-0.1,0.2-0.2,0.2-0.3c0-0.3,0.2-0.6,0.3-0.9c0-0.1,0.1-0.2,0.1-0.3c0.1-0.2,0.3-0.4,0.3-0.6
		c0-0.2,0.1-0.3,0.3-0.5c0.1-0.1,0.1-0.2,0.1-0.2c0-0.2,0-0.4,0.1-0.7c0.2-0.4,0.4-0.7,0.5-1.1c0-0.1,0.1-0.3,0.3-0.4
		c0.1,0,0.2-0.2,0.2-0.3c0.2-0.3,0.4-0.5,0.8-0.4c0.2,0,0.4,0.1,0.5,0.1c0.2,0.1,0.5,0.2,0.7,0.4c0.2,0.1,0.4,0.2,0.6,0.3
		c0.2,0.1,0.3,0.2,0.2,0.4c0,0,0,0,0,0c0,0.1,0,0.1,0,0.2c0,0,0.1,0.1,0.1,0.1c0,0,0,0.1,0,0.1c0,0.1,0.1,0.3-0.1,0.3c0,0,0,0,0,0.1
		c0,0.1,0,0.2,0.2,0.3c0,0,0.1,0.1,0.1,0.1c0,0.2,0,0.4-0.2,0.6c-0.1,0.1-0.2,0.3-0.3,0.5c0,0.1,0,0.3,0,0.5
		c0.1,0.2,0.2,0.4,0.3,0.7c0,0,0,0.1,0,0.1c-0.1,0.2,0,0.4,0.1,0.5c0.2,0.2,0.3,0.4,0.5,0.5c0.2,0.1,0.2,0.3,0.2,0.5
		c0,0,0,0.1,0.1,0.2c0,0.1,0.1,0.1,0.1,0.2c0,0.2,0,0.3,0.1,0.4c0.1,0.1,0.1,0.2,0.1,0.3c0,0.3,0.1,0.6,0.1,0.9c0,0,0,0.1,0,0.1
		c0.2,0.3,0.4,0.7,0.9,0.6c0,0.1,0,0.2,0,0.2c0,0,0.1,0.1,0.2,0.1c0.1-0.1,0.1-0.1,0.2-0.2c0,0,0.1,0,0.2,0c0-0.1,0.1-0.2,0.1-0.3
		c-0.1-0.1,0-0.2,0.1-0.3c0.1-0.1,0.1-0.2,0.2-0.2c0.3-0.1,0.6-0.1,0.8,0.1c0.1,0.1,0.2,0,0.2,0c0.1-0.1,0-0.2-0.1-0.2
		c0,0,0,0,0-0.1c0,0,0.1,0,0.1,0.1c0.1,0.1,0.3,0.2,0.5,0.1c0.1-0.1,0.3-0.1,0.5-0.1c0.2,0,0.3,0.1,0.3,0.3c0,0.3,0,0.6-0.1,0.9
		c0,0.1-0.1,0.2-0.2,0.2c-0.3,0-0.4,0.2-0.3,0.5c0,0.1,0,0.1,0,0.2c0,0.1,0,0.2,0,0.2c0,0.2,0.1,0.3,0.1,0.5
		c0.1,0.3,0.1,0.6,0.2,0.9c-0.1,0.1-0.3,0.2-0.1,0.4c0,0,0.1,0,0.2,0c0.1,0.1,0.1,0.3,0.2,0.4c0.1,0.1,0.1,0.2,0.2,0.2
		c0.1,0.1,0.3,0.1,0.4,0.2c0.1,0,0.1,0.1,0.2,0.2c-0.1,0-0.2,0-0.3,0c0.1,0.1,0.1,0.1,0.1,0.2c0.1,0.1,0.2,0.2,0.2,0.3
		c0,0.1,0.1,0.3,0.1,0.4c0.1,0.3,0.5,0.4,0.8,0.2c0.2-0.1,0.4-0.3,0.7-0.2c0.1,0,0.2,0,0.3-0.2c0.1-0.1,0.2-0.3,0.5-0.3
		c-0.1-0.1-0.1-0.2-0.1-0.2c-0.1-0.2-0.2-0.4-0.3-0.6c0-0.3-0.1-0.5-0.4-0.6c-0.1-0.1-0.2-0.2-0.3-0.3c-0.1-0.2-0.2-0.4-0.3-0.6
		c-0.1-0.1-0.2-0.3-0.2-0.5c0-0.4,0.2-0.7,0.1-1.1c-0.1-0.3,0.1-0.5,0.3-0.7c0.2-0.2,0.4-0.5,0.5-0.8c0,0,0.1-0.1,0.1-0.1
		c0.1-0.1,0.3-0.1,0.4-0.2c0.3-0.1,0.4-0.4,0.6-0.6c0.1-0.2,0.2-0.3,0.3-0.5c0.1-0.1,0.2-0.2,0.1-0.4c0,0,0.1-0.1,0.1-0.1
		c0.1,0,0.2-0.1,0.3-0.2c0.1-0.1,0.2-0.1,0.2-0.2c0.1,0,0.3,0,0.3,0.2c0,0.1,0.1,0.2,0.1,0.3c0.1,0.3,0.2,0.5,0.4,0.7
		c0.1,0.1,0.2,0.3,0.2,0.4c0,0,0,0.1,0.1,0.1c0.2,0.2,0.4,0.2,0.6,0.3c0.2,0,0.4,0,0.7,0.1c0.2,0,0.3,0,0.4-0.1c0,0,0.2-0.1,0.2-0.1
		c0.2,0.1,0.4,0.2,0.5,0.3c0.1,0.1,0.3,0.1,0.4,0c0.2-0.2,0.3-0.4,0.5-0.6c0.2-0.2,0.3-0.3,0.3-0.5c0.1,0,0.3,0,0.4,0.1
		c0.2,0.1,0.3,0.3,0.6,0.3c0,0,0,0,0,0c0,0,0,0.1-0.1,0.1c0,0,0,0.1,0,0.1c0.1,0,0.2,0,0.3,0c0.2,0,0.3,0,0.3-0.3
		c0-0.1,0.1-0.3,0.1-0.4c0.1-0.2,0.2-0.3,0.2-0.5c0-0.2,0-0.5,0.2-0.7c0,0,0-0.1,0-0.2c-0.1-0.2-0.2-0.5-0.2-0.7
		c0-0.1-0.1-0.3,0.1-0.3c0,0,0.1,0,0.1-0.1c0.1-0.2,0.2-0.4,0.2-0.6c0-0.2,0.1-0.4,0-0.6c0-0.1-0.2-0.2-0.3-0.3
		c-0.2-0.3-0.5-0.3-0.9-0.2c0,0-0.1,0-0.1-0.1c-0.1-0.2-0.2-0.3-0.2-0.5c0-0.1,0-0.2,0-0.2c0.1,0,0.2,0,0.3,0c0.1,0,0.1,0.2,0.2,0.2
		c0.2,0.1,0.4,0.3,0.6,0.4c0.1,0,0.2,0.1,0.2,0.1c0.1,0,0.3,0,0.4,0.1c0,0,0.1,0.1,0.1,0.1c0.1,0.1,0.1,0.2,0.2,0.4
		c0.1,0.1,0.1,0.2,0.2,0.3c0,0.1,0,0.2-0.1,0.3c-0.1,0.1-0.1,0.4-0.1,0.5c0.2,0.1,0.3,0.1,0.3-0.1c0-0.1,0-0.2,0.1-0.2
		c0.1-0.1,0.2-0.2,0.2-0.2c0.2,0,0.4,0,0.6,0c0.2,0,0.3,0,0.5-0.1c0,0,0.1-0.2,0.1-0.2c-0.2-0.1-0.3-0.2-0.4-0.4
		c-0.1-0.1-0.1-0.1-0.2-0.2c-0.3-0.1-0.4-0.4-0.7-0.5c-0.2-0.2-0.1-0.4-0.1-0.5c0.2-0.4,0.1-0.8,0.1-1.2c0-0.1-0.1-0.2-0.2-0.3
		c-0.1-0.1-0.1-0.3,0-0.3c0.3-0.1,0.3-0.3,0.3-0.5c0.1-0.3,0-0.6,0-0.8c0,0,0,0,0,0c0-0.1-0.1-0.2-0.1-0.2c0-0.1,0-0.2,0.1-0.3
		c0.1,0,0.2,0,0.3,0c0.1,0,0.2,0.1,0.3,0.1c0.2,0.1,0.4,0.2,0.5,0.5c0.1,0.4,0.1,0.8,0.3,1.2c0.1,0.2,0.2,0.4,0.3,0.7
		c0.1,0.3,0.2,0.6,0.3,0.9c0.1,0.2,0.2,0.4,0.2,0.5c0,0,0,0,0,0c0.1,0.1,0.2,0.1,0.3,0c0.2-0.1,0.4-0.2,0.5-0.4
		c0.1,0.3,0.2,0.5,0.3,0.8c0,0.1,0.1,0.2,0.2,0.3c0.1,0.1,0.3,0.1,0.4,0.1c0.3,0,0.3,0,0.5-0.4c0.1-0.3,0.2-0.4,0.4-0.4
		c0.5,0,0.7-0.3,0.7-0.8c0.1-0.1,0.1-0.1,0.1-0.4c0.1-0.1,0.1-0.1,0.2-0.2c0-0.1,0.1-0.2,0.1-0.3c0.1-0.2,0.1-0.4,0.1-0.6
		c0-0.1,0-0.1,0-0.2c0-0.2,0.1-0.3,0.1-0.5c0.1-0.2,0-0.3-0.1-0.4c-0.1-0.1-0.1-0.2-0.2-0.3c0-0.1,0-0.1,0-0.2c0-0.2-0.1-0.4,0-0.6
		c0-0.1,0-0.2,0-0.3c0-0.2-0.1-0.4-0.1-0.5c0-0.2,0.1-0.3,0.1-0.5c0-0.2,0.1-0.3-0.1-0.4c-0.2-0.1-0.3-0.3-0.4-0.5
		c-0.1-0.1-0.1-0.3-0.2-0.4c0-0.1,0-0.1-0.1-0.2c0-0.5-0.2-0.9-0.5-1.3c-0.1-0.1-0.1-0.2-0.1-0.3c-0.1-0.3-0.1-0.6-0.3-0.8
		c-0.1-0.1-0.2-0.2-0.2-0.4c-0.1-0.2-0.3-0.4-0.4-0.6c-0.1-0.1-0.1-0.2-0.1-0.3c0.1-0.3,0-0.6-0.1-0.9c0-0.1,0-0.1,0-0.2
		c-0.1-0.2-0.1-0.6,0-0.7c0,0,0-0.1,0.1-0.1c0.1-0.1,0.2-0.1,0.3-0.1c0.2-0.1,0.3,0,0.3,0.2c0,0.2,0.1,0.4,0.2,0.6
		c0.1,0.1,0.1,0.1,0.2,0.1c0.2,0,0.3,0,0.4-0.1c0.2-0.1,0.4-0.3,0.4-0.6c0-0.2,0.1-0.3,0.3-0.4c0.1,0,0.2-0.1,0.2-0.1
		c0-0.1,0-0.2-0.1-0.3c-0.1-0.2-0.2-0.2,0-0.4c0,0,0-0.1,0-0.1c0-0.2,0.1-0.4,0.3-0.5c0.1-0.1,0.2-0.4,0.1-0.5
		c-0.1-0.2-0.2-0.3-0.3-0.5c0,0,0-0.1,0-0.1c0.1-0.1,0.2-0.2,0.1-0.4c-0.1-0.1-0.2-0.2-0.2-0.3c-0.1-0.2-0.2-0.4-0.1-0.6
		c0.1-0.3,0-0.3-0.3-0.4c0,0,0,0,0,0c-0.1,0-0.2-0.1-0.1-0.2c0.1-0.1,0.1-0.1,0.1-0.2c0.1,0,0.3,0,0.4-0.1c0-0.1,0-0.1,0-0.1
		c-0.1-0.2,0-0.3,0.2-0.4c0.2-0.1,0.2-0.2,0.1-0.4c0-0.1-0.1-0.3-0.2-0.3c-0.1,0-0.3,0-0.4,0c-0.1,0.1-0.2,0-0.3,0
		c-0.1-0.1,0-0.2,0-0.3c0,0,0-0.1,0-0.1c-0.1-0.1-0.2-0.2-0.3-0.1c0-0.1-0.1-0.2-0.1-0.3c0-0.1,0.1-0.1,0.1-0.2c0-0.1,0-0.2,0-0.2
		c0-0.1,0-0.2-0.1-0.3c-0.1-0.1-0.2-0.2-0.3-0.4c-0.1-0.1-0.1-0.3-0.3-0.3c0,0,0,0-0.1-0.1c-0.1-0.1-0.2-0.3-0.4-0.2
		c-0.1,0.1-0.2,0.2-0.3,0.3c0,0.1,0.1,0.2,0.2,0.3c0.1,0,0.1,0.1,0.2,0.2c0.1,0.1,0.1,0.2,0.1,0.2c0,0.1-0.1,0.2-0.3,0.2
		c-0.1,0-0.2,0-0.3,0c-0.1,0-0.2,0.1-0.3,0.2c-0.1,0.1-0.2,0.2-0.2,0.2c-0.2,0-0.2,0.2-0.3,0.3c0,0.1,0,0.1,0,0.2
		c0,0.2,0,0.5,0.1,0.7c0,0.1,0.1,0.2,0,0.3c-0.1,0.2-0.1,0.3,0,0.5c0.2,0.2,0.2,0.4,0.3,0.6c0.1,0.2,0.1,0.6,0.5,0.6
		c-0.2,0.2-0.3,0.4-0.5,0.6c-0.1,0.1-0.1,0.2-0.1,0.3c0,0.1,0,0.2-0.2,0.3c0,0-0.1,0.1-0.1,0.1c-0.1,0.3-0.2,0.5-0.2,0.8
		c0,0.2,0,0.4,0.1,0.6c-0.1,0.1-0.3,0.2-0.4,0.3c0,0-0.1,0-0.1,0c-0.1-0.2-0.3-0.1-0.4-0.2c-0.1,0-0.2-0.1-0.4-0.1
		c0,0-0.1-0.1-0.1-0.1c-0.3-0.1-0.5-0.2-0.7-0.5c0,0,0-0.1,0-0.2c0.1-0.2,0.2-0.3,0.2-0.5c0-0.1,0-0.1,0-0.2c0-0.3,0-0.6,0-0.9
		c0-0.1,0-0.1,0-0.2c0-0.2,0-0.4,0-0.6c0-0.2,0-0.4,0.1-0.4c0.2,0,0.3-0.2,0.5-0.3c0.4-0.3,0.8-0.6,1.1-1c0.1-0.2,0.3-0.4,0.2-0.7
		c-0.1-0.2,0-0.4-0.1-0.6c0,0,0-0.1,0-0.1c0.2-0.1,0.2-0.3,0.2-0.5c0-0.2,0.1-0.4,0.1-0.5c0-0.1,0.1-0.2,0.2-0.4
		c0.1-0.3,0.3-0.4,0.5-0.5c0.2,0,0.3-0.1,0.3-0.3c0.1-0.2,0.1-0.3,0.3-0.4c0.2-0.1,0.2-0.2,0.1-0.4c-0.1-0.2-0.1-0.4,0-0.6
		c0.1-0.1,0.1-0.2,0.2-0.3c0.1-0.1,0.2-0.2,0.3-0.2c0.2,0,0.4,0,0.6,0c0.2,0,0.3-0.1,0.3-0.3c0-0.1,0.1-0.1,0.1-0.2
		c0.1-0.1,0.1-0.2,0.2-0.3c0.1-0.3,0.3-0.5,0.5-0.6c0.2-0.1,0.3-0.2,0.5-0.3c0.1,0,0.1-0.1,0.2-0.2c0.1-0.3,0.2-0.5,0.2-0.9
		c0-0.1,0-0.3,0.1-0.4c0.1-0.2,0.2-0.3,0.3-0.5c0.1-0.2,0.1-0.3,0-0.5c0-0.1,0-0.1,0-0.2C48.1,32.2,48.1,32.1,48.1,32.1z M42.9,4.4
		c-0.1,0-0.2,0-0.3,0c-0.2,0-0.5,0.1-0.7,0.1c-0.2,0-0.4,0-0.5,0c-0.1,0-0.1-0.1-0.2-0.1c-0.2,0-0.4,0-0.6-0.1
		c-0.2-0.1-0.4,0-0.6-0.1c-0.1-0.1-0.2,0-0.3,0.1c0,0,0,0,0,0c-0.3,0-0.4,0.5-0.8,0.5c-0.1,0-0.2,0.1-0.4,0.1
		c-0.1,0-0.2-0.1-0.3-0.1c-0.1,0-0.2-0.1-0.3-0.1c0-0.1-0.1-0.2-0.1-0.3c0,0,0,0,0,0c0.1,0,0.2-0.1,0.2-0.1c0-0.1-0.1-0.1-0.2-0.1
		c-0.2,0-0.3-0.1-0.2-0.3c0.1-0.3,0.2-0.6,0.3-0.9c0,0,0-0.1,0.1-0.1c0.1-0.1,0.2-0.1,0.3-0.2c0.1,0,0.2-0.1,0.2,0
		c0.2,0.1,0.3,0.1,0.5,0c0,0,0,0.1,0,0.1C38.9,3,39,3,39,3c0.1,0,0.2,0,0.2-0.1c0-0.1,0-0.2,0-0.2c0-0.1,0-0.2,0-0.4
		c0-0.2,0-0.3,0-0.5c0-0.3,0-0.6,0-0.9c0,0,0.1-0.1,0.1-0.1c0.2,0,0.4,0,0.6,0c0.1,0,0.3,0.2,0.3,0.4c0,0.3,0,0.6,0.2,0.9
		c0,0.1,0.1,0.1,0.2,0.1c0,0,0.1-0.1,0.1-0.1c0.2-0.3,0.8-0.7,1.3-0.6c0.1,0,0.2,0,0.2,0c0.2,0,0.5,0,0.7,0.1c0,0,0,0,0,0
		c0.1,0.3,0.3,0.3,0.5,0.3c0.1,0,0.1,0.1,0.2,0.2c0.1,0,0.1-0.1,0.1-0.2c0-0.1-0.1-0.1-0.2-0.2c0.1-0.1,0.4,0.1,0.6,0.2
		c0,0.1-0.1,0.1-0.1,0.2c0.1,0.3,0.2,0.3,0.5,0.3c0.1-0.1,0.1-0.2,0.2-0.2c0,0,0,0,0.1,0c-0.1,0.1-0.1,0.2-0.2,0.3
		c-0.2,0.4-0.3,0.7-0.5,1.1c-0.2,0.3-0.4,0.4-0.6,0.7C43.4,4.4,43.1,4.4,42.9,4.4z"/>
	<path class="st1" d="M49.1,51.8c0.2-0.1,0.1-0.3,0.1-0.5c0-0.3,0-0.5,0.1-0.8c0-0.2,0.1-0.3,0.3-0.3c0.1,0,0.2-0.1,0.2-0.1
		c0,0,0-0.1,0-0.1c-0.1,0-0.3,0-0.3,0c0-0.1,0-0.2,0-0.3c0-0.2,0.2-0.3,0.3-0.4c0,0,0,0,0,0c0.3,0.1,0.6,0.2,0.9,0.3
		c0.2,0.1,0.3,0.1,0.4,0c0.1-0.1,0.2,0,0.3,0.1c0.1,0.1,0,0.2,0,0.2c0,0,0,0-0.1,0.1c0.1,0.1,0.2,0.3,0.4,0.2c0,0,0.1,0,0.1,0
		c0.1,0.1,0.2,0.1,0.3,0c0.1,0,0.2,0.1,0.2,0.2c0,0.2,0.1,0.1,0.2,0.1c0.2-0.1,0.3-0.1,0.4,0.2c0.1,0,0.3-0.1,0.4-0.1
		c0.1,0,0.2,0,0.3,0.1c0.1,0.1,0,0.2,0,0.3c0,0.1-0.2,0.2-0.1,0.3c0,0,0,0.1,0.1,0.1c0.2,0.1,0.3,0.2,0.3,0.4c0,0,0.1,0.1,0.2,0.1
		c0.1,0,0.1-0.1,0.2-0.1c0.2-0.1,0.1-0.2,0-0.3c-0.2-0.3-0.2-0.5,0.2-0.7c-0.1-0.2,0-0.5-0.3-0.7c-0.1-0.1,0-0.4,0.1-0.5
		c0.2-0.1,0.3-0.1,0.5,0c0,0.1,0.1,0.1,0.1,0.2c0,0.1,0.1,0.1,0.1,0.2c0,0,0,0,0,0c0.2-0.2,0.4-0.1,0.5,0c0,0,0.1,0,0.1,0
		c0,0,0-0.1,0-0.1c0-0.1-0.1-0.1-0.1-0.2c-0.1-0.2-0.1-0.5,0.2-0.6c0.3-0.1,0.3-0.1,0.5,0.1c0.2-0.1,0.4-0.2,0.6-0.1
		c0.2,0.1,0,0.3,0,0.4c0.1,0,0.3,0,0.4,0.1s0,0.3,0,0.5c0.1-0.1,0.3-0.2,0.4-0.1c0.1,0.1,0.2,0.2,0.4,0.3c0.1,0,0.2,0,0.2,0
		c0,0,0.1,0,0.1,0c0,0,0-0.1,0-0.1c0-0.2-0.1-0.2-0.3-0.3c-0.2-0.1-0.3-0.3-0.5-0.4c-0.1-0.1-0.1-0.2-0.1-0.3
		c-0.1-0.2-0.2-0.3-0.2-0.5c-0.1-0.1,0-0.2,0.1-0.2c0,0,0.1,0,0.1,0c0.1,0,0.1-0.1,0-0.2c-0.4-0.3-0.2-0.6,0.1-0.8
		c0.1-0.1,0.1-0.3,0.2-0.5c0.1-0.2,0.1-0.3,0.2-0.5c0-0.1,0.1,0,0.2,0c0,0.2,0.1,0.1,0.2,0c0.1-0.1,0.2-0.2,0.3,0
		c0.1,0.1,0.1,0.3,0,0.4c-0.1,0.1-0.1,0.2-0.2,0.2c0,0-0.1,0.1-0.2,0.1c-0.1,0-0.2,0-0.3,0c0,0.1,0.2,0.2,0.1,0.3
		c-0.1,0.1-0.1,0.1-0.2,0.2c0,0.1,0,0.2,0,0.2c0.1-0.1,0.2-0.2,0.4-0.3c0.1-0.1,0.2,0,0.3,0.1c0,0,0,0.1,0.1,0.1
		c0.1,0.1,0.2,0.2,0.1,0.4c-0.1,0.1,0,0.3,0,0.5c0,0,0.1-0.1,0.1-0.1c0-0.1,0.1-0.3,0.2-0.3c0,0,0.1-0.1,0-0.1
		c-0.1-0.2-0.2-0.3-0.2-0.5c0-0.1,0-0.2,0-0.2c0.1-0.1,0.2-0.2,0.3-0.3c0.1-0.1,0.2,0,0.3,0.1c0.1-0.1,0.3-0.4,0.5-0.1
		c0.1,0.2-0.1,0.3-0.2,0.5c0.2,0,0.4,0,0.6,0c0,0.1,0,0.1,0,0.1c-0.1,0.1-0.1,0.2-0.1,0.3c0,0.2-0.1,0.2-0.3,0.2c-0.2,0-0.3,0-0.4,0
		c-0.1,0.2-0.2,0.4-0.3,0.6c0.1,0.1,0.3,0,0.4-0.1c0,0,0.1-0.1,0.1-0.1c0.1,0,0.2,0.1,0.2,0.1c0,0.1,0,0.1-0.1,0.2
		c-0.1,0.2-0.2,0.2-0.2,0.5c0,0.2-0.1,0.4-0.3,0.5c0,0,0,0-0.1,0c0,0,0,0-0.1,0.1c0.2,0.1,0.4,0.1,0.6,0.2c0,0,0.1,0,0.1-0.1
		c-0.1-0.3,0.2-0.6,0.2-0.9c0,0,0,0,0-0.1c0.2,0.1,0,0.3,0.2,0.4c0.1,0,0.2-0.3,0.4-0.1c0-0.2,0-0.3-0.1-0.4c-0.1-0.1-0.1-0.3,0-0.4
		c0-0.1,0.1-0.1,0.1-0.2c0.3,0.3,0.3,0.1,0.4,0.7c0.1-0.1,0.2-0.2,0.2-0.3c0-0.1,0-0.2,0-0.3c0-0.2,0.2-0.2,0.3-0.1
		c0.1,0.1,0.2,0.1,0.2,0c0,0,0-0.1,0-0.1c0.2,0,0.3-0.3,0.5-0.3c0.2,0,0.3,0,0.3,0.2c0,0,0,0.1,0.1,0.1c0.1,0.1,0.1,0.2,0,0.2
		c-0.3,0.1-0.5,0.3-0.8,0.3c-0.3,0-0.4,0.2-0.6,0.4c0,0.1-0.1,0.1-0.1,0.2c0,0.1,0,0.1,0,0.2c0.1,0,0.2-0.1,0.2-0.1c0,0,0,0,0,0
		c0,0.3,0.1,0.6-0.2,0.9c-0.1,0.1-0.2,0.1-0.2,0.2c0,0,0,0.1,0.1,0.2c0.1,0.1,0.1,0.1,0.1,0.2c0,0.1,0.1,0.1,0.1,0.2
		c0,0,0.1-0.1,0.1-0.1c0.1-0.2,0.2-0.5,0.3-0.7c0.1-0.1,0.2-0.1,0.4-0.2c0-0.1,0-0.2,0-0.3c0.1,0,0.3,0,0.4,0
		c-0.1-0.2-0.2-0.4,0.1-0.5c0.1,0,0.1,0.1,0.2,0.1c0.2,0.1,0.3,0.1,0.3-0.2c0-0.3,0.1-0.3,0.3-0.2c0,0,0,0,0,0c0,0,0.1-0.1,0.1-0.1
		c0,0,0.1,0,0.1,0.1c0,0,0,0.1,0,0.2c-0.1,0.1-0.2,0.2-0.2,0.4c0,0.1,0,0.1,0,0.2c0,0,0.1,0.1,0.1,0.1c0,0.1-0.1,0.2-0.2,0.2
		c0,0-0.1,0-0.1,0c-0.2,0-0.3,0.1-0.3,0.3c0,0,0,0.1,0,0.2c0.1,0,0.2,0,0.3,0c0,0.1,0,0.3,0,0.4c0,0.1,0,0.3,0,0.4
		c0,0.1-0.1,0.2-0.2,0.2c-0.1,0-0.2,0-0.2,0c-0.1,0-0.2,0-0.2,0.1c-0.1,0.1-0.3,0.1-0.4,0.2c-0.1,0-0.2,0-0.3,0
		c-0.1,0-0.1,0.1-0.1,0.2c0.1,0.1,0.1,0.3-0.1,0.4c-0.2,0-0.3,0.1-0.5,0.1c0,0-0.1,0.1-0.1,0.1c0,0,0.1,0.1,0.1,0.1
		c0.1,0,0.2,0.1,0.3,0.1c0.2,0,0.3,0,0.5,0c0.2,0,0.4,0,0.6,0c0,0.3,0,0.5-0.2,0.6c-0.2,0.1-0.4,0.1-0.5,0.1c-0.1,0-0.2,0-0.2,0
		c0,0.1,0,0.2,0,0.3c0,0.2-0.2,0.2-0.3,0.1c0,0,0,0-0.1,0c-0.2,0-0.3-0.1-0.5-0.1c0,0,0,0.1,0,0.1c0.1,0.2,0,0.3-0.1,0.3
		c-0.2,0.1-0.5,0.3-0.7,0.4c-0.1,0.1-0.3,0.1-0.4,0.1c0,0,0,0.1,0,0.1c0.1,0.2,0.1,0.2-0.1,0.3c-0.1,0-0.2,0.1-0.3,0.1
		c0,0,0.1,0.1,0.1,0.1c0.1,0.1,0.1,0.3,0,0.3c-0.2,0.1-0.4,0.2-0.6,0.1c0,0-0.1,0-0.1,0c-0.2,0.1-0.3,0-0.3-0.1
		c-0.1,0.1-0.3,0.2-0.4,0.3c0,0,0.1,0.1,0.2,0.1c-0.1,0.1-0.1,0.1-0.2,0.2c-0.1,0.1-0.2,0.1-0.3,0.2c-0.1,0.1-0.2,0-0.3-0.1
		c-0.2-0.2-0.3-0.2-0.5,0c-0.1,0.1-0.2,0.1-0.3,0.2c-0.3,0.2-0.4,0.2-0.5-0.2C56.1,56.2,56,56,56,55.7c0-0.1-0.1-0.1-0.1-0.2
		c-0.1-0.2-0.2-0.3-0.4-0.5c-0.1,0-0.2,0.1-0.3,0.1c0,0.1,0,0.2,0,0.3c-0.2,0-0.4,0.1-0.6-0.1c0,0.1,0,0.2,0,0.3c0,0,0,0.1-0.1,0.1
		c-0.1,0.1-0.1,0.2-0.2,0.3c-0.1,0.3-0.3,0.4-0.7,0.2c0.1,0.3,0,0.4-0.2,0.6c0,0-0.1,0.1-0.1,0.1c0.1,0.2,0,0.4-0.2,0.5
		c0,0,0,0,0,0.1c-0.1,0.1-0.1,0.2-0.2,0.4c0,0,0,0.1,0,0.1c0.1,0.2,0.1,0.4,0.1,0.7c-0.1,0-0.1,0-0.2,0c0,0.2,0.1,0.3-0.2,0.4
		c0,0.1,0.1,0.2,0.1,0.2c0,0.1,0,0.2,0,0.2c-0.2,0.2-0.2,0.5-0.3,0.7c-0.1,0.2-0.2,0.3-0.3,0.5c0.1,0,0.2,0,0.2,0
		c0.2-0.1,0.3,0,0.4,0.1c0.1,0.1,0.2,0.2,0.3,0.3c0.1-0.1,0.1-0.1,0.2-0.2c0.1,0.2,0.4,0.2,0.4,0.4c0,0,0,0.1,0.1,0.1
		c0,0,0,0.2,0.1,0.1c0,0,0,0,0,0c0.1,0.1,0.2,0.2,0.3,0.4c0.1,0.3,0.3,0.6,0.5,0.9c0.1,0.2,0.3,0.4,0.4,0.5c0.1,0.1,0.2,0.2,0.3,0.3
		c0.1,0.1,0.1,0.2,0.1,0.3c0.1,0.1,0.1,0.2,0.3,0.2c0,0,0.1,0.1,0.2,0.1c0,0.1,0.1,0.1,0.1,0.2c0.1,0.2,0.3,0.3,0.5,0.4
		c0.2,0.1,0.5,0.2,0.7,0.3c0.1,0,0.1,0.2,0.2,0.3c0,0,0.1,0.1,0.1,0.1c0.2,0.1,0.5,0.2,0.7,0.3c0.3,0.1,0.5,0.3,0.8,0.4
		c0.1,0,0.2,0.1,0.2,0.1c0.2,0.1,0.5,0.3,0.7,0.4c0.1,0.1,0.3,0.1,0.4,0.1c0.3-0.1,0.5,0.1,0.7,0.2c0.2,0.1,0.3,0.3,0.5,0.5
		c0,0,0,0,0,0c0.1,0.3,0.2,0.6,0.5,0.8c0.2,0.2,0.4,0.3,0.5,0.5c0.2,0.1,0.3,0.2,0.5,0.4c0.3,0.2,0.5,0.4,0.8,0.6
		c0.2,0.1,0.3,0.3,0.4,0.4c0,0.1,0.1,0.1,0.1,0.2c-0.1,0.1-0.2,0.1-0.3,0c-0.2-0.1-0.5-0.2-0.7-0.3v0.3c-0.2-0.1-0.3-0.1-0.5-0.2
		c0,0-0.1-0.1-0.1-0.2c0,0,0-0.1,0-0.1c0,0-0.1,0-0.1,0c-0.1,0-0.1,0-0.1,0.1c-0.1,0.2-0.2,0.1-0.3,0c-0.1-0.1-0.2-0.2-0.3-0.3
		c-0.4,0.1-0.5,0-0.4-0.4c-0.1,0-0.1,0-0.2,0c-0.2,0-0.3-0.1-0.3-0.3c0-0.1-0.1-0.1-0.1-0.1c0,0-0.1-0.1-0.1-0.1
		c0-0.2-0.1-0.2-0.2-0.2c-0.1,0-0.2,0-0.1-0.2c0-0.1-0.1-0.2-0.1-0.2C60.2,68,60,68,60.2,67.9c0.1-0.1,0-0.2-0.1-0.3c0,0,0,0,0,0
		c-0.1-0.2-0.2-0.3-0.5-0.2c-0.1,0-0.3-0.2-0.4-0.3c-0.1-0.1-0.2-0.2-0.2-0.2c-0.1,0-0.3,0-0.4-0.1c0,0,0-0.1-0.1-0.2
		c0.1,0,0.2,0,0.2,0c0,0,0,0,0-0.1c-0.1,0-0.2-0.1-0.3-0.1c-0.1,0-0.2,0-0.3-0.1c-0.1-0.1-0.3-0.2-0.5-0.2c-0.1,0-0.2,0-0.3-0.1
		c-0.3-0.1-0.6-0.2-0.9-0.2c0,0-0.1,0-0.1-0.1c-0.1-0.2-0.2-0.2-0.4-0.3c-0.1,0-0.2-0.1-0.2-0.2c0-0.1,0-0.2-0.2-0.2
		c0,0-0.1-0.1-0.2-0.2c-0.1-0.1-0.1-0.3-0.2-0.4c0,0,0,0,0,0v0.2c-0.1,0-0.1,0-0.2,0c-0.2,0-0.2-0.1-0.2-0.2c0,0,0-0.1,0-0.2
		c-0.2,0-0.3-0.1-0.3-0.3c0,0,0,0-0.1,0.1c-0.1-0.1-0.1-0.1-0.2-0.2c0,0,0,0,0,0c-0.3,0-0.3-0.3-0.5-0.5c-0.1-0.1-0.1-0.1-0.3-0.1
		c-0.1,0-0.2-0.1-0.2-0.2c-0.1-0.2-0.2-0.4-0.3-0.6c0,0,0,0,0-0.1c-0.2-0.1-0.4-0.3-0.6-0.4c-0.3-0.1-0.4-0.4-0.6-0.6
		c-0.1-0.1-0.1-0.2-0.2-0.3c-0.2-0.1-0.5-0.3-0.7-0.5c-0.2-0.2-0.3-0.4-0.4-0.5c0,0-0.1-0.1-0.1-0.1c-0.3-0.1-0.4-0.4-0.6-0.6
		c-0.1-0.1-0.2-0.2-0.3-0.3c-0.1-0.1-0.1-0.1-0.1-0.2c0,0,0-0.1-0.1-0.1c-0.2-0.1-0.3-0.4-0.3-0.6c0-0.2-0.1-0.3-0.2-0.5
		c-0.2-0.3-0.3-0.5-0.3-0.8c0-0.2,0.1-0.4,0-0.5c0,0,0.1-0.1,0.1-0.2c0.1-0.1,0.1-0.2,0.1-0.3c0.1-0.1,0.2-0.3,0.2-0.4
		c0.1-0.3,0.3-0.5,0.4-0.8c0,0,0-0.1,0-0.1c0-0.1-0.1-0.2-0.1-0.3c0,0,0-0.1,0-0.1c-0.2-0.1-0.1-0.3-0.1-0.5c0-0.3,0-0.5,0.1-0.7
		c0.1-0.2,0.1-0.5,0-0.7C49.2,52.1,49.1,52,49.1,51.8"/>
</g>
<path class="st2" d="M26,37.4c0,1.9-1.6,3.5-3.5,3.5c-1.9,0-3.5-1.6-3.5-3.5c0-1.9,1.6-3.5,3.5-3.5C24.5,33.9,26,35.4,26,37.4"/>
</svg>
