<svg xmlns="http://www.w3.org/2000/svg" viewBox="0 0 56.84 78.1"><g id="Layer_2" data-name="Layer 2"><g id="Layer_1-2" data-name="Layer 1"><path d="M0,77.53c0-.08.07-.15.11-.25a.57.57,0,0,0,.51-.34c.06-.08.21-.1.3-.17A.3.3,0,0,0,1,76.61c-.16-.14-.08-.34-.12-.51a1.3,1.3,0,0,1,0-.52,1,1,0,0,1,.17-.3l0-.07a5.43,5.43,0,0,1,0-.57c0-.1,0-.21.15-.25s.35-.12.39-.36.18-.15.28-.23l-.21-.54-.3-.05a.4.4,0,0,1-.15-.1l-.47-.55c-.25.14-.35.1-.45-.19a.46.46,0,0,1-.05-.2,1.39,1.39,0,0,0-.17-.6,1,1,0,0,1,0-.45s.09-.05.14-.06.18,0,.21-.14.12-.11.19-.15.24-.21.22-.44a.91.91,0,0,1,.08-.52.56.56,0,0,1,.43-.21c.28,0,.32-.17.38-.3s-.09-.18-.08-.25.05-.3.07-.45,0-.13,0-.19c0-.24.05-.47.06-.71a2.71,2.71,0,0,0-.05-.56.3.3,0,0,0-.22,0c-.24.12-.37,0-.38-.22a.48.48,0,0,0,0-.12c0-.14.06-.16.16-.14a1.92,1.92,0,0,1,.27.11.28.28,0,0,1,.23-.31,2.13,2.13,0,0,0,.49-.31s0,0,0,0c0-.26.22-.43.23-.64s.13-.24.14-.37,0-.3,0-.44,0-.54.07-.81c0-.05,0-.09,0-.14a.91.91,0,0,0,0-.33.58.58,0,0,1,.12-.58.42.42,0,0,0,.19-.5s0-.08,0-.12c0-.31.1-.62.12-.94a2.66,2.66,0,0,1,.14-1,.64.64,0,0,0,0-.28l.06-1c0-.35,0-.71,0-1.06a6.42,6.42,0,0,0,0-.76,8.41,8.41,0,0,1-.11-1.42s-.05-.09-.08-.12c-.19-.15-.21-.24-.08-.43s.18-.24.27-.36A1.41,1.41,0,0,0,3.77,54a11,11,0,0,0,0-1.15,4.6,4.6,0,0,0-.13-.5c-.07-.31-.1-.63-.19-.93a1.66,1.66,0,0,1,0-.54c0-.43,0-.86,0-1.29,0-.2-.08-.41-.1-.61s0-.44,0-.66a4,4,0,0,0-.09-.85,1.79,1.79,0,0,1-.06-.76,1.63,1.63,0,0,0,0-.54.65.65,0,0,1,.32-.67,1.44,1.44,0,0,0,.51-.8A2,2,0,0,0,4,44.5c.08-.25.15-.51.22-.77A1,1,0,0,1,4.76,43c.12,0,.2-.2.29-.32a4.8,4.8,0,0,0,.3-.48,2.08,2.08,0,0,0,.22-.38A3,3,0,0,1,5.9,41,1.31,1.31,0,0,0,6,40.55a1.73,1.73,0,0,1,.5-.89,2.13,2.13,0,0,0,.25-.5c.09-.2.14-.42.21-.63s.07-.19.1-.29a3.65,3.65,0,0,0,.24-.75,2.63,2.63,0,0,1,.24-.55,4.94,4.94,0,0,0,.15-.55c0-.2.07-.41.1-.61a1.32,1.32,0,0,0,0-.34,1.7,1.7,0,0,1,.24-1l.3-.64a5.62,5.62,0,0,0,.25-.56,1.59,1.59,0,0,0,.12-.78s.05-.1.06-.16c.07-.36.14-.73.22-1.09a13,13,0,0,0,.19-2.07,3.67,3.67,0,0,1,.3-.94A9.8,9.8,0,0,0,10,27a3.52,3.52,0,0,0,.14-.81.6.6,0,0,1,.29-.46,1,1,0,0,0,.45-.62c.06-.26.12-.52.19-.78,0-.06.08-.12.1-.18l.18-.48c.07-.22.16-.45.22-.68s.07-.32.11-.48.06-.16.08-.25,0-.16,0-.24a.84.84,0,0,1,.05-.17,2.09,2.09,0,0,0,.28-.69c0-.26.15-.51.21-.77s.06-.39.1-.58.09-.16.1-.25a4.12,4.12,0,0,0,0-.54c.08,0,.19-.05.3-.06a.44.44,0,0,0,.38-.29.42.42,0,0,1,.35-.36c.11,0,.17-.05.2-.17.11-.38.23-.74.36-1.11,0-.15.17-.27.14-.45a4.17,4.17,0,0,1,.58-.24c.16-.05.25.08.32.21a.12.12,0,0,0,.07.07.8.8,0,0,0,.55,0c.15-.07.33-.08.47-.15s.58-.33.86-.5a1.3,1.3,0,0,0,.22-.19,2.07,2.07,0,0,0,.17-.24l.28-.42c.05-.09.09-.18.14-.26a5.36,5.36,0,0,0,.4-.69,4.41,4.41,0,0,0,.44-.9c0-.13.11-.24.13-.36s.06-.52.12-.78.18-.7.28-1.05c0,0,.05-.11,0-.15s0-.31,0-.47a.37.37,0,0,0,0-.18.38.38,0,0,1,.14-.43.36.36,0,0,0,.13-.19.6.6,0,0,1,.35-.38l.46-.2c.15-.07.1-.23.16-.33A3.17,3.17,0,0,1,20.89,8a5.58,5.58,0,0,0,.44-.64c.15-.27.28-.54.4-.81s.09-.39.16-.58a1.37,1.37,0,0,1,.22-.27s0-.12.07-.16a1.74,1.74,0,0,1,.41-.36,4.78,4.78,0,0,1,.74-.3l.13-.05L24,4.57h0a4.12,4.12,0,0,1,.7,0c.17,0,.31.2.48.27a1.27,1.27,0,0,0,.59.12,1.09,1.09,0,0,1,.46.12,2,2,0,0,0,.58.25c.27.05.52.16.79.21a.79.79,0,0,0,.4-.07c.31-.14.45-.44.64-.7a2,2,0,0,0,.22-.29q.22-.36.42-.72c.06-.14.08-.3.13-.45a1.77,1.77,0,0,1,.16-.22,1.63,1.63,0,0,0,.17-.22c.08-.21.15-.43.21-.65s.1-.43.17-.64A1.2,1.2,0,0,0,30.23,1s.09-.07.1-.12c.05-.21.22-.37.19-.61a.18.18,0,0,1,.05-.15.25.25,0,0,1,.19,0A.21.21,0,0,0,31,.1a2.65,2.65,0,0,1,.84-.1,1,1,0,0,1,.81.32,1.73,1.73,0,0,0,.9.38c.19,0,.38.15.58.19a3.18,3.18,0,0,0,.62.06,2,2,0,0,1,.6,0c.26.07.52.11.77.18a1.44,1.44,0,0,1,.4.18.34.34,0,0,0,.35,0l.4-.1.16-.07c.1-.05.19-.15.33-.06a.74.74,0,0,0,.27,0v.19c-.35.07-.44.42-.66.64,0,.35-.2.61-.28.93a4.83,4.83,0,0,1-.32.59,2.29,2.29,0,0,1-.46.71,3.85,3.85,0,0,1-.3.27c-.08.06-.12.11-.05.21a.36.36,0,0,1-.16.6c-.14.09-.29.17-.48.27h.33a.28.28,0,0,1,.12,0c.21.13.44.26.64.41s.13.16.11.21c-.09.22.06.35.18.44a1.39,1.39,0,0,1,.44.73c.12.29.27.57.41.86s.17.36,0,.53a.27.27,0,0,0,0,.2c0,.32,0,.37-.3.4,0,.2,0,.4,0,.6a.63.63,0,0,0,.14.3c.08.12.23.21.29.34a1.35,1.35,0,0,1,.07.41.69.69,0,0,0,0,.24.18.18,0,0,0,.22.11c.27-.05.41.16.59.29s.14.07.2.12a1.49,1.49,0,0,1,.4.39,1,1,0,0,1,.08.55,2,2,0,0,0,0,.65c0,.15,0,.23-.19.32a3,3,0,0,0-.94.63l-.11.08a.52.52,0,0,0-.06.69,1.3,1.3,0,0,1,.11.48,1,1,0,0,1-.15.69.49.49,0,0,0,0,.47.36.36,0,0,1,0,.28.28.28,0,0,0,.2.44.14.14,0,0,1,.09.08c.05.14.08.29.12.43s0,.07,0,.08c.2.23.06.42-.08.61a.85.85,0,0,0,.06,1,.75.75,0,0,1,.23.56,5.36,5.36,0,0,0,.06.69c0,.19,0,.39,0,.59a2.22,2.22,0,0,0,.08.63c.1.32-.1.46-.29.63a3,3,0,0,0-.5.5,1.18,1.18,0,0,0-.23,1,.78.78,0,0,0,.42.47c.24.1.26.22.14.45A1.43,1.43,0,0,0,38,26.25a4.1,4.1,0,0,0,.21.48.17.17,0,0,1,0,.05c0,.36.28.51.44.75a3.65,3.65,0,0,0,.47.49.85.85,0,0,1,.2.34c.05.34.33.51.51.76a.91.91,0,0,1,.22.39c0,.18.12.27.18.4l.06.06c.27,0,.18.2.21.35a1.3,1.3,0,0,1-.18.8.51.51,0,0,0,.12.59.57.57,0,0,1,.07.35c0,.08-.07.16-.09.25a.31.31,0,0,0,0,.19.64.64,0,0,1,0,.47,1.38,1.38,0,0,1-.29.53.57.57,0,0,0-.08.35,2.15,2.15,0,0,1-.22.86.42.42,0,0,1-.18.17,5.19,5.19,0,0,1-.5.31,1,1,0,0,0-.54.58,3.07,3.07,0,0,1-.16.31.66.66,0,0,0-.09.19c0,.2-.1.27-.31.29a2.6,2.6,0,0,0-.56,0,.79.79,0,0,0-.34.25,1.91,1.91,0,0,0-.16.32.75.75,0,0,0,0,.64c0,.2,0,.35-.15.45a.63.63,0,0,0-.32.41.4.4,0,0,1-.32.29.75.75,0,0,0-.54.52c0,.12-.13.24-.17.36a2.65,2.65,0,0,0-.13.54.65.65,0,0,1-.22.53.12.12,0,0,0,0,.09,2.37,2.37,0,0,0,.06.59.7.7,0,0,1-.18.66,5.36,5.36,0,0,1-1.07,1,1.07,1.07,0,0,1-.49.29c-.12,0-.15.23-.13.41s0,.42,0,.63a1.21,1.21,0,0,0,0,.19c0,.3,0,.6,0,.9a.85.85,0,0,0,0,.16.73.73,0,0,1-.15.54s0,.12,0,.17a1,1,0,0,0,.7.47,1.48,1.48,0,0,1,.13.08,2.79,2.79,0,0,0,.37.14c.16,0,.33,0,.44.15a.19.19,0,0,0,.13,0l.44-.3a.85.85,0,0,1-.12-.64,7.19,7.19,0,0,1,.24-.79c0-.05.06-.11.1-.12s.13-.19.17-.29a.94.94,0,0,1,.14-.26c.14-.18.3-.35.47-.55-.39-.06-.39-.4-.53-.64s-.11-.42-.28-.59a.41.41,0,0,1,0-.47.35.35,0,0,0,0-.33,3.19,3.19,0,0,1-.09-.7.63.63,0,0,1,0-.19c.06-.13.06-.29.27-.31s.16-.14.24-.21a.88.88,0,0,1,.28-.17.57.57,0,0,1,.29,0c.16,0,.23-.1.27-.2s-.06-.15-.11-.2a.68.68,0,0,0-.21-.17.35.35,0,0,1-.19-.27l.29-.28c.19-.09.27.09.38.21s0,.07.05.07c.19,0,.22.17.3.29s.23.24.32.38a.47.47,0,0,1,.08.26,1,1,0,0,1,0,.24s0,.1-.06.17l.09.28c.17-.1.27,0,.34.14a.2.2,0,0,1,0,.15c0,.09-.13.17,0,.27a.18.18,0,0,0,.26,0,.84.84,0,0,1,.42,0c.15,0,.18.17.21.3s0,.32-.12.39a.32.32,0,0,0-.2.44.64.64,0,0,1,0,.14l-.43.06a1.22,1.22,0,0,1-.12.19c-.11.11,0,.15.06.19h0c.27,0,.36.12.29.37a1,1,0,0,0,.15.64,2,2,0,0,0,.21.32.27.27,0,0,1-.07.38.13.13,0,0,0,0,.13c.08.17.17.35.27.52a.49.49,0,0,1-.12.46.58.58,0,0,0-.33.49.12.12,0,0,1,0,.08c-.15.2-.13.26,0,.45a.38.38,0,0,1,.09.28c0,.07-.14.12-.23.15a.37.37,0,0,0-.25.35.61.61,0,0,1-.37.56.59.59,0,0,1-.41.1c-.1,0-.18,0-.24-.11a1.58,1.58,0,0,1-.24-.57c0-.25-.08-.31-.31-.21l-.28.14a.24.24,0,0,0-.06.08,1,1,0,0,0,0,.73,1,1,0,0,1,0,.2,2.37,2.37,0,0,1,.05.88c0,.09.06.21.12.29s.29.39.44.59l.24.36a2.54,2.54,0,0,1,.3.85.72.72,0,0,0,.1.29,2.23,2.23,0,0,1,.47,1.31.75.75,0,0,0,0,.16,2.22,2.22,0,0,0,.18.38,2.15,2.15,0,0,0,.37.51c.18.15.12.29.1.45a4.7,4.7,0,0,0-.12.51c0,.18.08.36.1.55a.49.49,0,0,1,0,.32c-.13.21,0,.42,0,.62a.37.37,0,0,0,0,.18.82.82,0,0,0,.17.32c.14.11.19.2.13.37s-.1.31-.14.47a.55.55,0,0,0,0,.18.71.71,0,0,1-.08.63c-.05.09-.07.2-.11.29a.83.83,0,0,1-.16.18c0,.32,0,.32-.13.39a.65.65,0,0,1-.67.81c-.27,0-.32.07-.44.42s-.14.37-.46.37c-.16,0-.32,0-.43-.1a1.45,1.45,0,0,1-.18-.32c-.1-.27-.19-.54-.31-.8-.1.24-.32.31-.48.45a.22.22,0,0,1-.34,0h0c-.08-.18-.16-.35-.23-.53s-.21-.59-.32-.88a6.56,6.56,0,0,0-.3-.67A5.13,5.13,0,0,1,33.66,58c-.08-.3-.29-.38-.5-.49a1.45,1.45,0,0,0-.35-.12,2,2,0,0,0-.34,0,3,3,0,0,0-.08.32,1.05,1.05,0,0,0,.06.24l0,0a2.65,2.65,0,0,1,0,.84c0,.17,0,.46-.34.52-.11,0-.1.22,0,.28a.35.35,0,0,1,.23.3,2.49,2.49,0,0,1-.07,1.24c-.06.14-.16.35.07.53a2.53,2.53,0,0,0,.67.54c.07,0,.12.11.17.17s.2.3.38.38c0,0,0,.2-.08.22a1.59,1.59,0,0,1-.49.11c-.21,0-.43,0-.64,0s-.18.12-.24.2a.54.54,0,0,0-.09.22c0,.18-.16.2-.33.11a1.39,1.39,0,0,1,.08-.54.33.33,0,0,0,.05-.28,1,1,0,0,0-.17-.3c-.06-.12-.1-.24-.16-.36a.19.19,0,0,0-.1-.1l-.39-.07a1.12,1.12,0,0,1-.25-.11c-.2-.13-.4-.26-.59-.4s-.13-.18-.22-.21a.61.61,0,0,0-.33,0s-.06.15,0,.22a3.45,3.45,0,0,0,.2.48A.14.14,0,0,0,30,62a.81.81,0,0,1,.85.25c.08.09.24.16.26.26a1.75,1.75,0,0,1,0,.6,5.37,5.37,0,0,1-.21.56.19.19,0,0,1-.11.09c-.24,0-.14.2-.1.33s.15.46.23.69a.21.21,0,0,1,0,.16.89.89,0,0,0-.21.7.9.9,0,0,1-.21.54,1.11,1.11,0,0,0-.14.41c0,.24-.06.28-.3.27s-.18,0-.28,0l.05-.15a1.39,1.39,0,0,1,.06-.13s0,0,0,0c-.23,0-.35-.27-.57-.32l-.37-.07a.68.68,0,0,1-.26.53,6.75,6.75,0,0,0-.47.59.3.3,0,0,1-.4,0,2.86,2.86,0,0,0-.54-.3A.26.26,0,0,0,27,67a.43.43,0,0,1-.41.14c-.22,0-.44-.06-.66-.07a.93.93,0,0,1-.64-.25.35.35,0,0,1-.08-.13,1.67,1.67,0,0,0-.23-.39,1.3,1.3,0,0,1-.38-.73c0-.09-.05-.19-.09-.28a.28.28,0,0,0-.32-.16.54.54,0,0,0-.24.16c-.08.09-.12.21-.26.24a.14.14,0,0,0-.1.08c0,.15-.06.25-.14.37a2.87,2.87,0,0,0-.26.49,1.43,1.43,0,0,1-.56.63c-.14.08-.3.14-.44.22a.23.23,0,0,0-.11.13,1.49,1.49,0,0,1-.5.78c-.25.21-.4.43-.32.71A2.74,2.74,0,0,1,21.15,70a.68.68,0,0,0,.2.49,1.79,1.79,0,0,1,.33.56,1.16,1.16,0,0,0,.26.31.79.79,0,0,1,.35.62,2.21,2.21,0,0,0,.27.59,1.77,1.77,0,0,0,.12.24c-.29-.06-.38.14-.45.28a.27.27,0,0,1-.29.17,1.16,1.16,0,0,0-.71.23.62.62,0,0,1-.82-.22,1.47,1.47,0,0,1-.1-.4.42.42,0,0,0-.17-.34s-.07-.1-.13-.18l.31,0c-.09-.09-.13-.17-.2-.2s-.28-.09-.41-.15a.87.87,0,0,1-.23-.2c-.09-.14-.17-.3-.24-.42s-.18,0-.21,0,0-.3.13-.36l-.22-.9c0-.16-.08-.31-.11-.48a1.93,1.93,0,0,1,0-.24.66.66,0,0,0,0-.2c-.1-.27,0-.49.31-.49a.17.17,0,0,0,.19-.17c0-.3.06-.61.07-.91a.28.28,0,0,0-.33-.29.82.82,0,0,0-.48.14.36.36,0,0,1-.47-.07.44.44,0,0,0-.1-.08.22.22,0,0,1,0,.06c.09,0,.14.1.07.2a.16.16,0,0,1-.24,0,.93.93,0,0,0-.84-.09c-.08,0-.13.14-.21.2a.2.2,0,0,0-.06.29c0,.06,0,.2-.06.3l-.22,0a1.41,1.41,0,0,1-.16.24s-.16,0-.16-.06a.74.74,0,0,1,0-.25h0c-.52.11-.68-.32-.93-.61a.42.42,0,0,1,0-.1c0-.3,0-.6-.08-.9a.52.52,0,0,0-.12-.26.47.47,0,0,1-.15-.43c0-.06,0-.13-.08-.2s-.07-.11,0-.15a.37.37,0,0,0-.16-.47c-.19-.14-.34-.34-.52-.5a.48.48,0,0,1-.14-.54.2.2,0,0,0,0-.13c-.1-.23-.23-.44-.31-.67a.88.88,0,0,1,0-.48,1.23,1.23,0,0,1,.27-.47.75.75,0,0,0,.16-.61s-.06-.09-.11-.11a.28.28,0,0,1-.17-.32s0-.06,0-.07c.21-.06.13-.21.1-.34a.51.51,0,0,1,0-.12.63.63,0,0,1-.12-.11c0-.08,0-.15,0-.22s0,0,0,0c.12-.19.06-.32-.15-.41s-.42-.21-.63-.31-.45-.26-.69-.36a4.54,4.54,0,0,0-.53-.12c-.38-.07-.58.18-.77.45-.07.09-.15.22-.24.25a.45.45,0,0,0-.3.38,5.14,5.14,0,0,1-.51,1.12,1.46,1.46,0,0,0-.11.65.6.6,0,0,1-.13.25,1,1,0,0,0-.28.49,2.77,2.77,0,0,1-.3.56,1.53,1.53,0,0,0-.11.27c-.11.29-.34.52-.34.85,0,.09-.14.18-.23.29.14.21,0,.43-.07.66s0,.27-.18.33,0,.18,0,.27,0,.16-.06.19a.39.39,0,0,0-.16.48.74.74,0,0,1-.06.38,4.41,4.41,0,0,1-.26.72c-.13.21-.28.44-.59.41.13.34,0,.39-.48.69.08.07.19.12.22.2a.65.65,0,0,1,0,.32H6.53a.22.22,0,0,0-.25.12s-.14,0-.22,0l-.18,0c0,.06,0,.13,0,.17a.57.57,0,0,1,.17.48s0,.08,0,.11a.48.48,0,0,1,0,.7c-.1.12-.19.25-.28.38a.18.18,0,0,1-.1.06c-.17,0-.27.11-.41.17a1,1,0,0,0-.16,0,1,1,0,0,0-.17.13.39.39,0,0,1-.14.08,2.6,2.6,0,0,1-.4.1,1.92,1.92,0,0,1-.24,0c0,.09.08.2,0,.22a2.77,2.77,0,0,1-.34.2l.3.2a.9.9,0,0,1-.88.37s0,.08,0,.1a3.8,3.8,0,0,1,.47.71c.08.12,0,.24-.14.26a.33.33,0,0,0-.3.23.27.27,0,0,1-.2.16c-.17,0-.2.08-.17.21s0,.14-.09.18a.25.25,0,0,0-.18.26.08.08,0,0,1,0,.07c-.2.06-.19.29-.32.4s-.26.08-.39.11l-.24,0c.07.06.11.13.16.13s.14.17.1.26-.19.15-.24.25a1.62,1.62,0,0,0-.09.38l-.13-.17a1.13,1.13,0,0,1,.12.21c0,.15-.09.21-.18.28a3.91,3.91,0,0,1-.44.26l-.2.1s-.09,0-.1.07c0,.21-.24.22-.37.31s-.19.17-.29.25H0ZM30.14,4.73l.32.09a1.24,1.24,0,0,0,.35.1c.12,0,.24-.08.36-.09.35,0,.45-.41.77-.46,0,0,0,0,0,0a.18.18,0,0,1,.29-.08c.18.14.39,0,.58.1a5.78,5.78,0,0,0,.6.11c.08,0,.15.1.23.1a5,5,0,0,0,.53-.05l.71-.09c.1,0,.21,0,.31,0,.26,0,.54,0,.74-.25a7.34,7.34,0,0,0,.56-.69A11.58,11.58,0,0,0,37,2.43c0-.11.11-.22.17-.34l-.06,0-.21.24c-.29,0-.38,0-.51-.32l.11-.18a.72.72,0,0,0-.6-.22c0,.06.11.12.16.19s0,.16-.07.17-.15-.16-.22-.16-.4,0-.46-.27a0,0,0,0,0,0,0,1,1,0,0,0-.67-.11.45.45,0,0,1-.23,0A1.29,1.29,0,0,0,33.15,2s-.1.11-.14.1A.27.27,0,0,1,32.82,2a1.92,1.92,0,0,1-.17-.88c0-.14-.17-.36-.31-.36l-.6,0c-.06,0-.14.08-.14.12,0,.31,0,.62-.05.93s0,.33,0,.49,0,.25,0,.37a1,1,0,0,1,0,.25.24.24,0,0,1-.18.09s-.09-.06-.13-.11a.42.42,0,0,1,0-.13.47.47,0,0,1-.47,0c-.05,0-.16,0-.23,0a1.24,1.24,0,0,0-.33.15.22.22,0,0,0-.09.1c-.1.28-.2.56-.29.85s0,.31.22.31.2,0,.21.08-.12.09-.19.13l0,0,.13.27" style="fill:#fff"/><path d="M41.43,51.83c.18-.13.12-.32.15-.48s0-.52.07-.77a.46.46,0,0,1,.31-.35.64.64,0,0,0,.22-.14s0-.1,0-.13-.27,0-.3,0,0-.18,0-.27.17-.29.26-.43h0c.29.14.61.17.9.29a.39.39,0,0,0,.44,0,.21.21,0,0,1,.29,0c.08.09,0,.16-.05.23l-.07.07c.11.14.23.26.43.19a.21.21,0,0,1,.13,0,.39.39,0,0,0,.32,0c.13,0,.19.08.2.18s.1.15.2.09.33-.07.4.19a2.88,2.88,0,0,1,.42-.11.42.42,0,0,1,.25.1c.09.07,0,.17,0,.26s-.17.2-.07.34,0,.1.09.11a.53.53,0,0,1,.32.42.2.2,0,0,0,.16.09,1.64,1.64,0,0,0,.22-.14c.18-.09.09-.22,0-.3-.23-.31-.18-.53.19-.65-.08-.23,0-.51-.27-.68-.09-.06,0-.41.12-.5a.3.3,0,0,1,.46,0,1.32,1.32,0,0,1,.12.2,2,2,0,0,1,.11.2s0,0,0,0a.38.38,0,0,1,.54,0s.07,0,.11,0,0-.08,0-.11a.84.84,0,0,0-.11-.21.44.44,0,0,1,.15-.63c.25-.11.25-.11.52.14.2-.08.39-.24.61-.05s0,.29,0,.41c.15,0,.35,0,.42.13s0,.29,0,.47c.12-.13.25-.23.41-.13s.25.19.36.26a1.61,1.61,0,0,0,.22,0,.25.25,0,0,0,.12,0s0-.05,0-.08a.49.49,0,0,0-.25-.33,3,3,0,0,1-.46-.41,1.11,1.11,0,0,1-.12-.27l-.24-.49c-.07-.14,0-.22.14-.24h.11a.11.11,0,0,0,0-.2c-.36-.27-.16-.56.06-.81a1.38,1.38,0,0,0,.21-.46c.06-.16.09-.34.16-.49s.14-.05.17,0,.12.13.22,0,.19-.15.31,0a.36.36,0,0,1,0,.41,1.82,1.82,0,0,1-.15.23.44.44,0,0,1-.2.08,2.8,2.8,0,0,1-.29,0c0,.13.23.17.12.32s-.13.14-.18.21a1.75,1.75,0,0,0,0,.24,2.88,2.88,0,0,1,.35-.26c.11-.07.2-.05.25.09a.27.27,0,0,0,.08.07c.1.11.21.21.12.4a.88.88,0,0,0,0,.46,1.1,1.1,0,0,0,.09-.14c0-.13.06-.27.22-.32s0-.07,0-.09c-.07-.18-.16-.34-.22-.52a.33.33,0,0,1,0-.24,1.2,1.2,0,0,1,.27-.28c.13-.11.21,0,.28.11.15-.14.31-.36.5-.08s0,.31-.2.46l.6,0c0,.06,0,.13,0,.14s-.11.18-.13.28a.26.26,0,0,1-.27.23l-.44,0-.31.62c.13.09.3,0,.41-.14s.1-.13.14-.12a.26.26,0,0,1,.18.12c0,.06,0,.14-.06.21s-.25.24-.19.48a.39.39,0,0,1-.3.47L52,50l-.07.08.56.2s.07,0,.07-.06c-.08-.33.16-.57.24-.86,0,0,0-.05,0-.08.22.07,0,.3.21.41s.2-.27.4-.12a.44.44,0,0,0-.08-.4c-.08-.1-.05-.3,0-.45s.1-.13.15-.19c.34.27.27.1.37.67a.51.51,0,0,0,.23-.35,2.7,2.7,0,0,1,0-.28c0-.15.19-.19.29-.07s.19.11.24-.05,0-.06,0-.06c.24,0,.31-.25.52-.29s.3,0,.31.21a.17.17,0,0,0,.06.11.14.14,0,0,1,0,.25,1.84,1.84,0,0,1-.84.29c-.31,0-.44.22-.57.45a.49.49,0,0,0-.08.18c0,.06,0,.12,0,.22l.25-.08,0,0c0,.31.07.63-.21.87a1,1,0,0,0-.2.22.19.19,0,0,0,.06.17.2.2,0,0,1,.08.22c0,.06.06.14.09.2l.1-.14a3.63,3.63,0,0,1,.28-.67c.05-.09.22-.1.35-.16s0-.17,0-.32l.4,0c0-.18-.17-.39.12-.52l.18.11c.2.11.31,0,.31-.18s.08-.3.31-.19l0,0a.5.5,0,0,1,.12-.13s.09.05.09.08a.24.24,0,0,1,0,.16c-.07.12-.16.23-.22.35s0,.14,0,.21.1.1.1.12a1.3,1.3,0,0,1-.19.22.23.23,0,0,1-.11,0c-.25,0-.29.07-.27.32v.15l.34,0c0,.13,0,.25,0,.37a2.58,2.58,0,0,0,0,.39.23.23,0,0,1-.16.24.63.63,0,0,1-.24,0,.34.34,0,0,0-.25.1.78.78,0,0,1-.42.15,2.35,2.35,0,0,1-.27,0,.13.13,0,0,0-.08.21.22.22,0,0,1-.13.36l-.5.1s-.09.07-.13.11L54,53a1.65,1.65,0,0,0,.32.06,3.73,3.73,0,0,0,.47,0c.19,0,.38,0,.58,0,0,.27,0,.5-.2.61a1.53,1.53,0,0,1-.54.09.86.86,0,0,1-.23,0c0,.11,0,.2,0,.29s-.19.23-.35.11a.09.09,0,0,0-.06,0L53.42,54l0,.1c.08.18,0,.26-.13.35l-.7.37a3.59,3.59,0,0,1-.39.12s0,0,0,.07.12.21-.08.3l-.3.11.1.11a.19.19,0,0,1-.05.3c-.19.08-.37.23-.6.12,0,0-.08,0-.1,0-.17.08-.27,0-.34-.12l-.38.29.22.12a1.23,1.23,0,0,1-.19.2,1.89,1.89,0,0,1-.28.17.25.25,0,0,1-.34-.06c-.22-.21-.28-.2-.5,0a1.24,1.24,0,0,1-.33.15c-.35.17-.4.16-.54-.2a2,2,0,0,1-.23-.76s-.1-.1-.14-.16L47.82,55l-.34.08,0,.26c-.22,0-.43.06-.6-.13,0,.1,0,.2,0,.3a.34.34,0,0,1-.07.15,1.1,1.1,0,0,0-.15.26c-.11.31-.35.41-.71.25.14.26,0,.43-.17.58,0,0-.07.11,0,.15.09.24,0,.38-.2.47,0,0,0,0,0,.06l-.15.37s0,.11,0,.14a1.29,1.29,0,0,1,.11.67l-.2,0c0,.16.06.33-.16.38a1.19,1.19,0,0,1,.08.22c0,.07,0,.17,0,.21-.21.21-.16.5-.27.74a3.58,3.58,0,0,1-.32.47.83.83,0,0,0,.23,0,.3.3,0,0,1,.37.1l.28.31.17-.18c.13.18.38.21.45.44a.5.5,0,0,0,0,.13c0,.05,0,.17.13.1h0c.1.12.25.23.29.37a3.16,3.16,0,0,0,.48.86l.39.54c.09.11.2.21.29.32s.09.18.15.26.1.21.26.17.12.06.16.11a.49.49,0,0,1,.11.18c.07.23.26.29.46.36a4.6,4.6,0,0,1,.68.31c.09,0,.14.17.2.26s.07.09.11.11l.67.31.78.44c.08,0,.17,0,.25.09.24.14.47.31.73.43a.69.69,0,0,0,.42.07,1,1,0,0,1,.71.17c.23.11.31.34.49.48,0,0,0,0,0,0a2,2,0,0,0,.47.83,6.17,6.17,0,0,0,.54.48c.17.13.35.24.52.36l.8.59a1.68,1.68,0,0,1,.4.44l.13.24a.27.27,0,0,1-.33,0l-.75-.34v.25a3.25,3.25,0,0,1-.46-.22s0-.13-.08-.2,0-.08,0-.1h-.1a.38.38,0,0,0-.15.09c-.1.16-.19.07-.28,0l-.33-.31c-.36.08-.51,0-.45-.38h-.22c-.17,0-.26-.07-.3-.26s-.08-.09-.13-.14-.13-.08-.12-.11-.12-.19-.21-.19-.17,0-.13-.16,0-.17-.14-.22-.22-.11-.06-.25,0-.21-.06-.31l0,0c-.12-.15-.22-.28-.47-.24s-.26-.16-.38-.26-.16-.16-.23-.22a3.43,3.43,0,0,1-.44-.09s0-.13-.07-.21l.23,0v-.06a1,1,0,0,0-.32-.09.62.62,0,0,1-.35-.08c-.13-.07-.25-.24-.46-.17a.45.45,0,0,1-.33-.06,3.39,3.39,0,0,0-.94-.22.14.14,0,0,1-.1-.07.7.7,0,0,0-.4-.28c-.1,0-.18-.09-.18-.23a.17.17,0,0,0-.2-.18s-.13-.12-.17-.2-.15-.25-.22-.38l0,0v.17h-.15c-.16,0-.21-.09-.19-.25s0-.14,0-.15a.33.33,0,0,1-.27-.31l-.05.06-.22-.16s0,0,0,0c-.29,0-.32-.31-.47-.47a.32.32,0,0,0-.27-.13c-.06,0-.16-.09-.2-.16s-.23-.37-.35-.56a.21.21,0,0,0,0-.06,5.12,5.12,0,0,0-.56-.39,1.34,1.34,0,0,1-.57-.63,1,1,0,0,0-.25-.28,3.34,3.34,0,0,1-.67-.5c-.15-.17-.27-.37-.41-.55a.2.2,0,0,0-.08-.08c-.32-.1-.41-.4-.56-.64a1.64,1.64,0,0,0-.31-.28.69.69,0,0,1-.13-.2c0-.05,0-.12-.09-.15a.59.59,0,0,1-.26-.56c0-.21-.14-.32-.23-.47a1.34,1.34,0,0,1-.26-.83c0-.18.1-.36,0-.55,0,0,.07-.1.1-.16l.14-.28.23-.45.42-.76s0-.07,0-.1,0-.21-.08-.32,0-.08,0-.1-.06-.33-.09-.5a1.37,1.37,0,0,1,.15-.73.9.9,0,0,0,0-.72c0-.11-.09-.23-.14-.37" style="fill:#fff"/><path d="M17.29,37.36a2.42,2.42,0,1,1-2.41-2.42,2.41,2.41,0,0,1,2.41,2.42" style="fill:#ec2227"/></g></g></svg>