<!-- Generator: Adobe Illustrator 25.2.1, SVG Export Plug-In  -->
<svg version="1.1" xmlns="http://www.w3.org/2000/svg" xmlns:xlink="http://www.w3.org/1999/xlink" x="0px" y="0px" width="75.1px"
	 height="78.1px" viewBox="0 0 75.1 78.1" style="overflow:visible;enable-background:new 0 0 75.1 78.1;" xml:space="preserve">
<style type="text/css">
	.st0{fill:#49C8F5;}
	.st1{fill:#FFFFFF;}
	.st2{fill:#EC2227;stroke:#FFFFFF;stroke-miterlimit:10;}
</style>
<defs>
</defs>
<path class="st0" d="M52.9,10.1c-0.9,0-1.7-0.2-2.3-0.5c-3.3-1.5-3.6-6.5-0.9-8.6c0.1-0.3,0.2-0.7,0.3-1H6C2.7,0,0,2.7,0,6v66.1
	c0,3.3,2.7,6,6,6h12.3c0-0.1,0.1-0.3,0.2-0.3c-0.1,0.1,0,0,0,0c0,0,0,0,0.1-0.1c0.1-0.1,0.1-0.1,0.2-0.2c0,0,0.1,0,0.1-0.1
	c0,0,0.1-0.1,0,0c0.1,0,0.1-0.1,0.2-0.1c0.1-0.1,0.3-0.2,0.4-0.3c0,0,0.1,0,0.1-0.1c0,0,0,0,0,0c0,0,0.1-0.1,0.1-0.1
	c0,0,0.1-0.1,0.1-0.1c0,0,0,0,0,0c0,0,0,0,0,0c0,0,0.1-0.1,0.1-0.1c0,0,0,0,0,0c0,0,0,0,0-0.1c0,0,0-0.1,0-0.1c0-0.1,0-0.1,0-0.2
	c0-0.2,0-0.4,0-0.5c0-0.2,0.2-0.3,0.3-0.3c0.1-0.3,0.2-0.6,0.2-1c0.5-2,1.1-3.9,1.8-5.8c0.5-1.4,1.6-2.6,2.2-4
	c-0.6-6.1,4.9-11.3,10.9-6.2c1.4,1.2,3.1,4,4.7,4.5c0.7,0.3,1.5,0.1,2.3-0.2c4.7-6.4,6.6-17.9,7.1-23.2c0.5-6-0.4-12.9,1-18.7
	c0.6-2.2,1-3.8,1.2-6.1c0.1-1.6,0.4-3.1,1.2-4.5C53,10.1,52.9,10.1,52.9,10.1z"/>
<path class="st1" d="M58.7,32.1c0-0.1,0-0.3-0.1-0.4c-0.2-0.2-0.2-0.4-0.1-0.6c0.1-0.3,0.2-0.5,0.2-0.8c0-0.1,0.1-0.3-0.2-0.4
	c0,0,0,0-0.1-0.1c-0.1-0.1-0.2-0.2-0.2-0.4c0-0.1-0.1-0.3-0.2-0.4c-0.2-0.2-0.5-0.4-0.5-0.8c0-0.1-0.1-0.2-0.2-0.3
	c-0.2-0.2-0.3-0.3-0.5-0.5c-0.2-0.2-0.5-0.4-0.4-0.7c0,0,0,0,0,0c-0.1-0.2-0.2-0.3-0.2-0.5c-0.1-0.4,0-0.7,0.2-1.1
	c0.1-0.2,0.1-0.3-0.1-0.5c-0.2-0.1-0.3-0.3-0.4-0.5c-0.1-0.4,0-0.7,0.2-1c0.1-0.2,0.3-0.3,0.5-0.5c0.2-0.2,0.4-0.3,0.3-0.6
	c-0.1-0.2-0.1-0.4-0.1-0.6c0-0.2,0-0.4,0-0.6c0-0.2-0.1-0.5-0.1-0.7c0-0.2-0.1-0.4-0.2-0.6c-0.2-0.3-0.3-0.7-0.1-1
	c0.1-0.2,0.3-0.4,0.1-0.6c0,0,0-0.1,0-0.1c0-0.1-0.1-0.3-0.1-0.4c0,0-0.1-0.1-0.1-0.1c-0.2,0-0.3-0.2-0.2-0.4c0-0.1,0.1-0.2,0-0.3
	c-0.1-0.2,0-0.3,0-0.5c0.1-0.2,0.2-0.4,0.2-0.7c0-0.2,0-0.3-0.1-0.5c-0.1-0.2-0.1-0.5,0.1-0.7c0,0,0.1,0,0.1-0.1
	c0.2-0.3,0.6-0.4,0.9-0.6c0.2-0.1,0.2-0.2,0.2-0.3c0-0.2,0-0.4,0-0.7c0-0.2,0-0.4-0.1-0.5c-0.1-0.2-0.3-0.3-0.4-0.4
	c-0.1-0.1-0.1-0.1-0.2-0.1c-0.2-0.1-0.3-0.3-0.6-0.3c-0.1,0-0.2,0-0.2-0.1c0-0.1,0-0.2,0-0.2c0-0.1,0-0.3-0.1-0.4
	c-0.1-0.1-0.2-0.2-0.3-0.3c-0.1-0.1-0.1-0.2-0.1-0.3c0-0.2,0-0.4,0-0.6c0.3,0,0.3-0.1,0.3-0.4c0-0.1,0-0.2,0-0.2
	c0.2-0.2,0.1-0.3,0-0.5c-0.1-0.3-0.3-0.6-0.4-0.9c-0.1-0.3-0.2-0.5-0.4-0.7c-0.1-0.1-0.3-0.2-0.2-0.4c0-0.1,0-0.2-0.1-0.2
	c-0.2-0.1-0.4-0.3-0.6-0.4c0,0-0.1,0-0.1,0c-0.1,0-0.2,0-0.3,0c0.2-0.1,0.3-0.2,0.5-0.3c0.3-0.2,0.3-0.4,0.2-0.6
	c-0.1-0.1,0-0.2,0-0.2c0.1-0.1,0.2-0.2,0.3-0.3C54.8,4,54.9,3.8,55,3.5c0.1-0.2,0.3-0.4,0.3-0.6c0.1-0.3,0.3-0.6,0.3-0.9
	c0.2-0.2,0.3-0.6,0.7-0.6V1.2c-0.1,0-0.2,0-0.3,0c-0.1-0.1-0.2,0-0.3,0.1c-0.1,0-0.1,0.1-0.2,0.1c-0.1,0-0.3,0.1-0.4,0.1
	c-0.1,0-0.2,0.1-0.3,0c-0.1-0.1-0.3-0.1-0.4-0.2C54.1,1.1,53.9,1,53.6,1c-0.2,0-0.4,0-0.6,0c-0.2,0-0.4,0-0.6-0.1
	c-0.2,0-0.4-0.1-0.6-0.2c-0.3-0.1-0.6-0.1-0.9-0.4C50.7,0.1,50.4,0,50.1,0c-0.3,0-0.6,0-0.8,0.1c-0.1,0-0.2,0.1-0.3,0
	c0,0-0.1,0-0.2,0c0,0-0.1,0.1-0.1,0.1c0,0.2-0.1,0.4-0.2,0.6c0,0-0.1,0.1-0.1,0.1c0,0.2-0.1,0.4-0.2,0.6c-0.1,0.2-0.1,0.4-0.2,0.6
	c-0.1,0.2-0.1,0.4-0.2,0.6c0,0.1-0.1,0.1-0.2,0.2c-0.1,0.1-0.1,0.1-0.2,0.2c-0.1,0.1-0.1,0.3-0.1,0.4C47.3,4,47.2,4.2,47,4.5
	c-0.1,0.1-0.1,0.2-0.2,0.3c-0.2,0.3-0.3,0.6-0.6,0.7c-0.1,0.1-0.3,0.1-0.4,0.1c-0.3,0-0.5-0.2-0.8-0.2c-0.2,0-0.4-0.2-0.6-0.3
	C44.3,5,44.1,4.9,44,4.9c-0.2,0-0.4,0-0.6-0.1c-0.2-0.1-0.3-0.2-0.5-0.3c-0.2,0-0.5,0-0.7,0c0,0,0,0,0,0c-0.2,0.1-0.3,0.2-0.5,0.3
	c0,0-0.1,0-0.1,0C41.3,5,41,5.1,40.8,5.2c-0.2,0.1-0.3,0.2-0.4,0.4c0,0,0,0.1-0.1,0.2c-0.1,0.1-0.2,0.2-0.2,0.3
	C40,6.2,40,6.4,40,6.6c-0.1,0.3-0.3,0.5-0.4,0.8c-0.1,0.2-0.3,0.4-0.4,0.6c-0.2,0.2-0.2,0.4-0.3,0.7c-0.1,0.1,0,0.3-0.2,0.3
	c-0.2,0.1-0.3,0.1-0.5,0.2c-0.2,0.1-0.3,0.2-0.3,0.4c0,0.1-0.1,0.1-0.1,0.2c-0.2,0.1-0.2,0.3-0.1,0.4c0,0.1,0,0.1,0,0.2
	c0,0.2-0.1,0.3,0,0.5c0,0,0,0.1,0,0.2c-0.1,0.3-0.2,0.7-0.3,1.1c-0.1,0.3-0.1,0.5-0.1,0.8c0,0.1-0.1,0.2-0.1,0.4
	c-0.1,0.3-0.3,0.6-0.4,0.9c-0.1,0.2-0.3,0.5-0.4,0.7C36.1,14.9,36.1,15,36,15c-0.1,0.1-0.2,0.3-0.3,0.4c-0.1,0.1-0.1,0.2-0.2,0.2
	c-0.1,0.1-0.1,0.1-0.2,0.2c-0.3,0.2-0.6,0.4-0.9,0.5c-0.1,0.1-0.3,0.1-0.5,0.1c-0.2,0.1-0.4,0.1-0.5,0c0,0-0.1,0-0.1-0.1
	c-0.1-0.1-0.2-0.3-0.3-0.2c-0.2,0.1-0.4,0.2-0.6,0.2c0,0.2-0.1,0.3-0.1,0.4c-0.1,0.4-0.3,0.7-0.4,1.1c0,0.1-0.1,0.2-0.2,0.2
	c-0.2,0-0.3,0.2-0.4,0.4c0,0.2-0.2,0.3-0.4,0.3c-0.1,0-0.2,0-0.3,0.1c0,0.2,0,0.4,0,0.5c0,0.1-0.1,0.2-0.1,0.2
	c0,0.2-0.1,0.4-0.1,0.6c-0.1,0.3-0.2,0.5-0.2,0.8c0,0.3-0.2,0.5-0.3,0.7c0,0.1,0,0.1-0.1,0.2c0,0.1,0,0.2,0,0.2
	c0,0.1-0.1,0.2-0.1,0.2c0,0.2-0.1,0.3-0.1,0.5c-0.1,0.2-0.2,0.5-0.2,0.7c-0.1,0.2-0.1,0.3-0.2,0.5c0,0.1-0.1,0.1-0.1,0.2
	c-0.1,0.3-0.1,0.5-0.2,0.8c-0.1,0.3-0.2,0.5-0.5,0.6c-0.2,0.1-0.3,0.3-0.3,0.5c0,0.3-0.1,0.5-0.1,0.8c-0.1,0.4-0.3,0.8-0.4,1.3
	c-0.1,0.3-0.3,0.6-0.3,0.9c0,0.7-0.1,1.4-0.2,2.1c-0.1,0.4-0.1,0.7-0.2,1.1c0,0.1-0.1,0.1-0.1,0.2c0,0.3,0,0.5-0.1,0.8
	c-0.1,0.2-0.2,0.4-0.2,0.6c-0.1,0.2-0.2,0.4-0.3,0.6c-0.1,0.3-0.3,0.6-0.2,1c0,0.1,0,0.2,0,0.3c0,0.2-0.1,0.4-0.1,0.6
	c0,0.2-0.1,0.4-0.1,0.5c-0.1,0.2-0.2,0.4-0.2,0.6c0,0.3-0.2,0.5-0.2,0.7c0,0.1-0.1,0.2-0.1,0.3c-0.1,0.2-0.1,0.4-0.2,0.6
	c-0.1,0.2-0.1,0.4-0.2,0.5c-0.2,0.2-0.4,0.5-0.5,0.9c0,0.2-0.1,0.3-0.1,0.5c-0.2,0.2-0.2,0.5-0.3,0.8c0,0.1-0.1,0.3-0.2,0.4
	c-0.1,0.2-0.2,0.3-0.3,0.5c-0.1,0.1-0.2,0.3-0.3,0.3c-0.4,0.1-0.5,0.4-0.6,0.8c-0.1,0.3-0.1,0.5-0.2,0.8c0,0.1-0.1,0.1-0.1,0.2
	c-0.1,0.3-0.2,0.6-0.5,0.8c-0.2,0.1-0.4,0.4-0.3,0.7c0,0.2,0,0.4,0,0.5c0,0.3,0,0.5,0.1,0.8c0.1,0.3,0.1,0.6,0.1,0.8
	c0,0.2,0,0.4,0,0.7c0,0.2,0.1,0.4,0.1,0.6c0,0.4,0,0.9,0,1.3c0,0.2,0,0.4,0,0.5c0.1,0.3,0.1,0.6,0.2,0.9c0,0.2,0.1,0.3,0.1,0.5
	c0,0.4,0,0.8,0,1.2c0,0.3-0.1,0.5-0.2,0.8c-0.1,0.1-0.2,0.2-0.3,0.4c-0.1,0.2-0.1,0.3,0.1,0.4c0,0,0.1,0.1,0.1,0.1
	c0,0.5,0.1,0.9,0.1,1.4c0,0.2,0,0.5,0,0.8c0,0.4,0,0.7-0.1,1.1c0,0.3,0,0.7-0.1,1c0,0.1,0,0.2,0,0.3c-0.1,0.3-0.1,0.6-0.1,1
	c0,0.3-0.1,0.6-0.1,0.9c0,0,0,0.1,0,0.1c0.1,0.2,0,0.4-0.2,0.5c-0.1,0.1-0.2,0.4-0.1,0.6c0,0.1,0,0.2,0,0.3c0,0,0,0.1,0,0.1
	c0,0.3-0.1,0.5-0.1,0.8c0,0.1,0,0.3,0,0.4c0,0.1-0.1,0.2-0.1,0.4c0,0.2-0.3,0.4-0.2,0.6c0,0,0,0,0,0c-0.2,0.1-0.3,0.2-0.5,0.3
	c-0.2,0.1-0.2,0.1-0.2,0.3c-0.1,0-0.2-0.1-0.3-0.1c-0.1,0-0.2,0-0.2,0.1c0,0,0,0.1,0,0.1c0,0.3,0.1,0.3,0.4,0.2c0.1,0,0.2,0,0.2,0
	c0,0.2,0.1,0.4,0,0.6c0,0.2,0,0.5-0.1,0.7c0,0.1,0,0.1,0,0.2c0,0.2-0.1,0.3-0.1,0.5c0,0.1,0,0.1,0.1,0.2c-0.1,0.1-0.1,0.3-0.4,0.3
	c-0.1,0-0.3,0.1-0.4,0.2c-0.1,0.1-0.1,0.4-0.1,0.5c0,0.2,0,0.3-0.2,0.4c-0.1,0-0.2,0.1-0.2,0.2c0,0.1-0.1,0.1-0.2,0.1
	c-0.1,0-0.1,0-0.1,0.1c0,0.2,0,0.3,0,0.5c0.1,0.2,0.2,0.4,0.2,0.6c0,0.1,0,0.1,0,0.2c0.1,0.3,0.2,0.3,0.5,0.2
	c0.2,0.2,0.3,0.4,0.5,0.6c0,0,0.1,0.1,0.1,0.1c0.1,0,0.2,0,0.3,0.1c0.1,0.2,0.1,0.4,0.2,0.5c-0.1,0.1-0.3,0.1-0.3,0.2
	c0,0.2-0.2,0.3-0.4,0.4c-0.2,0-0.1,0.2-0.2,0.3c0,0.2,0,0.4,0,0.6c0,0,0,0.1,0,0.1c-0.1,0.1-0.1,0.2-0.2,0.3c0,0.2,0,0.4,0,0.5
	c0,0.2,0,0.4,0.1,0.5c0,0,0,0.1-0.1,0.2c-0.1,0.1-0.2,0.1-0.3,0.2c-0.1,0.2-0.3,0.3-0.5,0.3c0,0.1-0.1,0.2-0.1,0.2v0.6h0.1
	c0-0.1,0.1-0.3,0.2-0.3c-0.1,0.1,0,0,0,0c0,0,0,0,0.1-0.1c0.1-0.1,0.1-0.1,0.2-0.2c0,0,0.1,0,0.1-0.1c0,0,0.1-0.1,0,0
	c0.1,0,0.1-0.1,0.2-0.1c0.1-0.1,0.3-0.2,0.4-0.3c0,0,0.1,0,0.1-0.1c0,0,0,0,0,0c0,0,0.1-0.1,0.1-0.1c0,0,0.1-0.1,0.1-0.1
	c0,0,0,0,0,0c0,0,0,0,0,0c0,0,0,0,0,0c0,0,0,0,0,0c0,0,0,0,0,0c0,0,0.1-0.1,0.1-0.1c0,0,0,0,0,0c0,0,0,0,0-0.1c0,0,0-0.1,0-0.1
	c0-0.1,0-0.1,0-0.2c0-0.2,0-0.4,0-0.5c0.1-0.3,0.3-0.4,0.6-0.3c0.1,0,0.1,0.1,0.2,0.1c0,0,0.1-0.1,0.1-0.1c0,0,0,0,0-0.1
	c0-0.1,0.1-0.2,0.2-0.3c0.1,0,0.1-0.1,0.1-0.2c0-0.1,0-0.2,0.2-0.2c0.1,0,0.2-0.1,0.2-0.2c0.1-0.2,0.1-0.2,0.3-0.2
	c0.2,0,0.2-0.1,0.1-0.3c-0.2-0.2-0.2-0.5-0.5-0.7c0,0,0-0.1,0-0.1c0.4,0,0.7,0,0.9-0.4c-0.1-0.1-0.2-0.1-0.3-0.2
	c0.1-0.1,0.2-0.1,0.3-0.2c0,0,0-0.1,0-0.2c0.1,0,0.2,0,0.2,0c0.1,0,0.3-0.1,0.4-0.1c0.1,0,0.1-0.1,0.1-0.1c0.1,0,0.1-0.1,0.2-0.1
	c0,0,0.1,0,0.2-0.1c0.1-0.1,0.2-0.2,0.4-0.2c0,0,0.1,0,0.1-0.1c0.1-0.1,0.2-0.3,0.3-0.4c0.2-0.3,0.2-0.4,0-0.7c0,0-0.1-0.1-0.1-0.1
	c0-0.2,0-0.3-0.2-0.5c0,0,0-0.1,0-0.2c0.1,0,0.1,0,0.2,0c0.1,0,0.2,0,0.2,0c0.1-0.1,0.1-0.1,0.3-0.1c0.1,0,0.2,0,0.3,0
	c0-0.1,0-0.2,0-0.3c0-0.1-0.1-0.1-0.2-0.2c0.5-0.3,0.6-0.3,0.5-0.7c0.3,0,0.5-0.2,0.6-0.4c0.1-0.2,0.2-0.5,0.3-0.7
	c0-0.1,0.1-0.3,0.1-0.4c-0.1-0.2,0-0.3,0.2-0.5c0,0,0.1-0.1,0.1-0.2c0-0.1,0-0.3,0-0.3c0.2-0.1,0.1-0.2,0.2-0.3
	c0.1-0.2,0.2-0.5,0.1-0.7c0.1-0.1,0.2-0.2,0.2-0.3c0-0.3,0.2-0.6,0.3-0.9c0-0.1,0.1-0.2,0.1-0.3c0.1-0.2,0.3-0.4,0.3-0.6
	c0-0.2,0.1-0.3,0.3-0.5c0.1-0.1,0.1-0.2,0.1-0.2c0-0.2,0-0.4,0.1-0.7c0.2-0.4,0.4-0.7,0.5-1.1c0-0.1,0.1-0.3,0.3-0.4
	c0.1,0,0.2-0.2,0.2-0.3c0.2-0.3,0.4-0.5,0.8-0.4c0.2,0,0.4,0.1,0.5,0.1c0.2,0.1,0.5,0.2,0.7,0.4c0.2,0.1,0.4,0.2,0.6,0.3
	c0.2,0.1,0.3,0.2,0.2,0.4c0,0,0,0,0,0c0,0.1,0,0.1,0,0.2c0,0,0.1,0.1,0.1,0.1c0,0,0,0.1,0,0.1c0,0.1,0.1,0.3-0.1,0.3c0,0,0,0,0,0.1
	c0,0.1,0,0.2,0.2,0.3c0,0,0.1,0.1,0.1,0.1c0,0.2,0,0.4-0.2,0.6c-0.1,0.1-0.2,0.3-0.3,0.5c0,0.1,0,0.3,0,0.5c0.1,0.2,0.2,0.4,0.3,0.7
	c0,0,0,0.1,0,0.1c-0.1,0.2,0,0.4,0.1,0.5c0.2,0.2,0.3,0.4,0.5,0.5c0.2,0.1,0.2,0.3,0.2,0.5c0,0,0,0.1,0.1,0.2c0,0.1,0.1,0.1,0.1,0.2
	c0,0.2,0,0.3,0.1,0.4c0.1,0.1,0.1,0.2,0.1,0.3c0,0.3,0.1,0.6,0.1,0.9c0,0,0,0.1,0,0.1c0.2,0.3,0.4,0.7,0.9,0.6c0,0.1,0,0.2,0,0.2
	c0,0,0.1,0.1,0.2,0.1c0.1-0.1,0.1-0.1,0.2-0.2c0,0,0.1,0,0.2,0c0-0.1,0.1-0.2,0.1-0.3c-0.1-0.1,0-0.2,0.1-0.3
	c0.1-0.1,0.1-0.2,0.2-0.2c0.3-0.1,0.6-0.1,0.8,0.1c0.1,0.1,0.2,0,0.2,0c0.1-0.1,0-0.2-0.1-0.2c0,0,0,0,0-0.1c0,0,0.1,0,0.1,0.1
	c0.1,0.1,0.3,0.2,0.5,0.1c0.1-0.1,0.3-0.1,0.5-0.1c0.2,0,0.3,0.1,0.3,0.3c0,0.3,0,0.6-0.1,0.9c0,0.1-0.1,0.2-0.2,0.2
	c-0.3,0-0.4,0.2-0.3,0.5c0,0.1,0,0.1,0,0.2c0,0.1,0,0.2,0,0.2c0,0.2,0.1,0.3,0.1,0.5c0.1,0.3,0.1,0.6,0.2,0.9
	c-0.1,0.1-0.3,0.2-0.1,0.4c0,0,0.1,0,0.2,0c0.1,0.1,0.1,0.3,0.2,0.4c0.1,0.1,0.1,0.2,0.2,0.2c0.1,0.1,0.3,0.1,0.4,0.2
	c0.1,0,0.1,0.1,0.2,0.2c-0.1,0-0.2,0-0.3,0c0.1,0.1,0.1,0.1,0.1,0.2c0.1,0.1,0.2,0.2,0.2,0.3c0,0.1,0.1,0.3,0.1,0.4
	c0.1,0.3,0.5,0.4,0.8,0.2c0.2-0.1,0.4-0.3,0.7-0.2c0.1,0,0.2,0,0.3-0.2c0.1-0.1,0.2-0.3,0.5-0.3c-0.1-0.1-0.1-0.2-0.1-0.2
	c-0.1-0.2-0.2-0.4-0.3-0.6c0-0.3-0.1-0.5-0.4-0.6c-0.1-0.1-0.2-0.2-0.3-0.3c-0.1-0.2-0.2-0.4-0.3-0.6c-0.1-0.1-0.2-0.3-0.2-0.5
	c0-0.4,0.2-0.7,0.1-1.1c-0.1-0.3,0.1-0.5,0.3-0.7c0.2-0.2,0.4-0.5,0.5-0.8c0,0,0.1-0.1,0.1-0.1c0.1-0.1,0.3-0.1,0.4-0.2
	c0.3-0.1,0.4-0.4,0.6-0.6c0.1-0.2,0.2-0.3,0.3-0.5c0.1-0.1,0.2-0.2,0.1-0.4c0,0,0.1-0.1,0.1-0.1c0.1,0,0.2-0.1,0.3-0.2
	c0.1-0.1,0.2-0.1,0.2-0.2c0.1,0,0.3,0,0.3,0.2c0,0.1,0.1,0.2,0.1,0.3c0.1,0.3,0.2,0.5,0.4,0.7c0.1,0.1,0.2,0.3,0.2,0.4
	c0,0,0,0.1,0.1,0.1c0.2,0.2,0.4,0.2,0.6,0.3c0.2,0,0.4,0,0.7,0.1c0.2,0,0.3,0,0.4-0.1c0,0,0.2-0.1,0.2-0.1c0.2,0.1,0.4,0.2,0.5,0.3
	c0.1,0.1,0.3,0.1,0.4,0c0.2-0.2,0.3-0.4,0.5-0.6c0.2-0.2,0.3-0.3,0.3-0.5c0.1,0,0.3,0,0.4,0.1c0.2,0.1,0.3,0.3,0.6,0.3c0,0,0,0,0,0
	c0,0,0,0.1-0.1,0.1c0,0,0,0.1,0,0.1c0.1,0,0.2,0,0.3,0c0.2,0,0.3,0,0.3-0.3c0-0.1,0.1-0.3,0.1-0.4c0.1-0.2,0.2-0.3,0.2-0.5
	c0-0.2,0-0.5,0.2-0.7c0,0,0-0.1,0-0.2c-0.1-0.2-0.2-0.5-0.2-0.7c0-0.1-0.1-0.3,0.1-0.3c0,0,0.1,0,0.1-0.1c0.1-0.2,0.2-0.4,0.2-0.6
	c0-0.2,0.1-0.4,0-0.6c0-0.1-0.2-0.2-0.3-0.3c-0.2-0.3-0.5-0.3-0.9-0.2c0,0-0.1,0-0.1-0.1c-0.1-0.2-0.2-0.3-0.2-0.5
	c0-0.1,0-0.2,0-0.2c0.1,0,0.2,0,0.3,0c0.1,0,0.1,0.2,0.2,0.2c0.2,0.1,0.4,0.3,0.6,0.4c0.1,0,0.2,0.1,0.2,0.1c0.1,0,0.3,0,0.4,0.1
	c0,0,0.1,0.1,0.1,0.1c0.1,0.1,0.1,0.2,0.2,0.4c0.1,0.1,0.1,0.2,0.2,0.3c0,0.1,0,0.2-0.1,0.3C50,63.2,50,63.4,50,63.6
	c0.2,0.1,0.3,0.1,0.3-0.1c0-0.1,0-0.2,0.1-0.2c0.1-0.1,0.2-0.2,0.2-0.2c0.2,0,0.4,0,0.6,0c0.2,0,0.3,0,0.5-0.1c0,0,0.1-0.2,0.1-0.2
	c-0.2-0.1-0.3-0.2-0.4-0.4c-0.1-0.1-0.1-0.1-0.2-0.2c-0.3-0.1-0.4-0.4-0.7-0.5c-0.2-0.2-0.1-0.4-0.1-0.5c0.2-0.4,0.1-0.8,0.1-1.2
	c0-0.1-0.1-0.2-0.2-0.3c-0.1-0.1-0.1-0.3,0-0.3c0.3-0.1,0.3-0.3,0.3-0.5c0.1-0.3,0-0.6,0-0.8c0,0,0,0,0,0c0-0.1-0.1-0.2-0.1-0.2
	c0-0.1,0-0.2,0.1-0.3c0.1,0,0.2,0,0.3,0c0.1,0,0.2,0.1,0.3,0.1c0.2,0.1,0.4,0.2,0.5,0.5c0.1,0.4,0.1,0.8,0.3,1.2
	c0.1,0.2,0.2,0.4,0.3,0.7c0.1,0.3,0.2,0.6,0.3,0.9c0.1,0.2,0.2,0.4,0.2,0.5c0,0,0,0,0,0c0.1,0.1,0.2,0.1,0.3,0
	c0.2-0.1,0.4-0.2,0.5-0.4c0.1,0.3,0.2,0.5,0.3,0.8c0,0.1,0.1,0.2,0.2,0.3c0.1,0.1,0.3,0.1,0.4,0.1c0.3,0,0.3,0,0.5-0.4
	c0.1-0.3,0.2-0.4,0.4-0.4c0.5,0,0.7-0.3,0.7-0.8c0.1-0.1,0.1-0.1,0.1-0.4c0.1-0.1,0.1-0.1,0.2-0.2c0-0.1,0.1-0.2,0.1-0.3
	c0.1-0.2,0.1-0.4,0.1-0.6c0-0.1,0-0.1,0-0.2c0-0.2,0.1-0.3,0.1-0.5c0.1-0.2,0-0.3-0.1-0.4c-0.1-0.1-0.1-0.2-0.2-0.3
	c0-0.1,0-0.1,0-0.2c0-0.2-0.1-0.4,0-0.6c0-0.1,0-0.2,0-0.3c0-0.2-0.1-0.4-0.1-0.5c0-0.2,0.1-0.3,0.1-0.5c0-0.2,0.1-0.3-0.1-0.4
	c-0.2-0.1-0.3-0.3-0.4-0.5c-0.1-0.1-0.1-0.3-0.2-0.4c0-0.1,0-0.1-0.1-0.2c0-0.5-0.2-0.9-0.5-1.3c-0.1-0.1-0.1-0.2-0.1-0.3
	c-0.1-0.3-0.1-0.6-0.3-0.8c-0.1-0.1-0.2-0.2-0.2-0.4c-0.1-0.2-0.3-0.4-0.4-0.6c-0.1-0.1-0.1-0.2-0.1-0.3c0.1-0.3,0-0.6-0.1-0.9
	c0-0.1,0-0.1,0-0.2c-0.1-0.2-0.1-0.6,0-0.7c0,0,0-0.1,0.1-0.1c0.1-0.1,0.2-0.1,0.3-0.1c0.2-0.1,0.3,0,0.3,0.2c0,0.2,0.1,0.4,0.2,0.6
	c0.1,0.1,0.1,0.1,0.2,0.1c0.2,0,0.3,0,0.4-0.1c0.2-0.1,0.4-0.3,0.4-0.6c0-0.2,0.1-0.3,0.3-0.4c0.1,0,0.2-0.1,0.2-0.1
	c0-0.1,0-0.2-0.1-0.3c-0.1-0.2-0.2-0.2,0-0.4c0,0,0-0.1,0-0.1c0-0.2,0.1-0.4,0.3-0.5c0.1-0.1,0.2-0.4,0.1-0.5
	c-0.1-0.2-0.2-0.3-0.3-0.5c0,0,0-0.1,0-0.1c0.1-0.1,0.2-0.2,0.1-0.4c-0.1-0.1-0.2-0.2-0.2-0.3c-0.1-0.2-0.2-0.4-0.1-0.6
	c0.1-0.3,0-0.3-0.3-0.4c0,0,0,0,0,0c-0.1,0-0.2-0.1-0.1-0.2c0.1-0.1,0.1-0.1,0.1-0.2c0.1,0,0.3,0,0.4-0.1c0-0.1,0-0.1,0-0.1
	c-0.1-0.2,0-0.3,0.2-0.4c0.2-0.1,0.2-0.2,0.1-0.4c0-0.1-0.1-0.3-0.2-0.3c-0.1,0-0.3,0-0.4,0c-0.1,0.1-0.2,0-0.3,0
	c-0.1-0.1,0-0.2,0-0.3c0,0,0-0.1,0-0.1c-0.1-0.1-0.2-0.2-0.3-0.1c0-0.1-0.1-0.2-0.1-0.3c0-0.1,0.1-0.1,0.1-0.2c0-0.1,0-0.2,0-0.2
	c0-0.1,0-0.2-0.1-0.3c-0.1-0.1-0.2-0.2-0.3-0.4c-0.1-0.1-0.1-0.3-0.3-0.3c0,0,0,0-0.1-0.1c-0.1-0.1-0.2-0.3-0.4-0.2
	c-0.1,0.1-0.2,0.2-0.3,0.3c0,0.1,0.1,0.2,0.2,0.3c0.1,0,0.1,0.1,0.2,0.2c0.1,0.1,0.1,0.2,0.1,0.2c0,0.1-0.1,0.2-0.3,0.2
	c-0.1,0-0.2,0-0.3,0c-0.1,0-0.2,0.1-0.3,0.2c-0.1,0.1-0.2,0.2-0.2,0.2c-0.2,0-0.2,0.2-0.3,0.3c0,0.1,0,0.1,0,0.2
	c0,0.2,0,0.5,0.1,0.7c0,0.1,0.1,0.2,0,0.3c-0.1,0.2-0.1,0.3,0,0.5c0.2,0.2,0.2,0.4,0.3,0.6c0.1,0.2,0.1,0.6,0.5,0.6
	c-0.2,0.2-0.3,0.4-0.5,0.6c-0.1,0.1-0.1,0.2-0.1,0.3c0,0.1,0,0.2-0.2,0.3c0,0-0.1,0.1-0.1,0.1c-0.1,0.3-0.2,0.5-0.2,0.8
	c0,0.2,0,0.4,0.1,0.6c-0.1,0.1-0.3,0.2-0.4,0.3c0,0-0.1,0-0.1,0c-0.1-0.2-0.3-0.1-0.4-0.2c-0.1,0-0.2-0.1-0.4-0.1
	c0,0-0.1-0.1-0.1-0.1c-0.3-0.1-0.5-0.2-0.7-0.5c0,0,0-0.1,0-0.2c0.1-0.2,0.2-0.3,0.2-0.5c0-0.1,0-0.1,0-0.2c0-0.3,0-0.6,0-0.9
	c0-0.1,0-0.1,0-0.2c0-0.2,0-0.4,0-0.6c0-0.2,0-0.4,0.1-0.4c0.2,0,0.3-0.2,0.5-0.3c0.4-0.3,0.8-0.6,1.1-1c0.1-0.2,0.3-0.4,0.2-0.7
	c-0.1-0.2,0-0.4-0.1-0.6c0,0,0-0.1,0-0.1c0.2-0.1,0.2-0.3,0.2-0.5c0-0.2,0.1-0.4,0.1-0.5c0-0.1,0.1-0.2,0.2-0.4
	c0.1-0.3,0.3-0.4,0.5-0.5c0.2,0,0.3-0.1,0.3-0.3c0.1-0.2,0.1-0.3,0.3-0.4c0.2-0.1,0.2-0.2,0.1-0.4c-0.1-0.2-0.1-0.4,0-0.6
	c0.1-0.1,0.1-0.2,0.2-0.3c0.1-0.1,0.2-0.2,0.3-0.2c0.2,0,0.4,0,0.6,0c0.2,0,0.3-0.1,0.3-0.3c0-0.1,0.1-0.1,0.1-0.2
	c0.1-0.1,0.1-0.2,0.2-0.3c0.1-0.3,0.3-0.5,0.5-0.6c0.2-0.1,0.3-0.2,0.5-0.3c0.1,0,0.1-0.1,0.2-0.2c0.1-0.3,0.2-0.5,0.2-0.9
	c0-0.1,0-0.3,0.1-0.4c0.1-0.2,0.2-0.3,0.3-0.5c0.1-0.2,0.1-0.3,0-0.5c0-0.1,0-0.1,0-0.2C58.6,32.2,58.7,32.1,58.7,32.1z M53.4,4.4
	c-0.1,0-0.2,0-0.3,0c-0.2,0-0.5,0.1-0.7,0.1c-0.2,0-0.4,0-0.5,0c-0.1,0-0.1-0.1-0.2-0.1c-0.2,0-0.4,0-0.6-0.1
	c-0.2-0.1-0.4,0-0.6-0.1c-0.1-0.1-0.2,0-0.3,0.1c0,0,0,0,0,0c-0.3,0-0.4,0.5-0.8,0.5c-0.1,0-0.2,0.1-0.4,0.1c-0.1,0-0.2-0.1-0.3-0.1
	c-0.1,0-0.2-0.1-0.3-0.1c0-0.1-0.1-0.2-0.1-0.3c0,0,0,0,0,0c0.1,0,0.2-0.1,0.2-0.1c0-0.1-0.1-0.1-0.2-0.1c-0.2,0-0.3-0.1-0.2-0.3
	c0.1-0.3,0.2-0.6,0.3-0.9c0,0,0-0.1,0.1-0.1c0.1-0.1,0.2-0.1,0.3-0.2c0.1,0,0.2-0.1,0.2,0c0.2,0.1,0.3,0.1,0.5,0c0,0,0,0.1,0,0.1
	c0,0,0.1,0.1,0.1,0.1c0.1,0,0.2,0,0.2-0.1c0-0.1,0-0.2,0-0.2c0-0.1,0-0.2,0-0.4c0-0.2,0-0.3,0-0.5c0-0.3,0-0.6,0-0.9
	c0,0,0.1-0.1,0.1-0.1c0.2,0,0.4,0,0.6,0c0.1,0,0.3,0.2,0.3,0.4c0,0.3,0,0.6,0.2,0.9c0,0.1,0.1,0.1,0.2,0.1c0,0,0.1-0.1,0.1-0.1
	c0.2-0.3,0.8-0.7,1.3-0.6c0.1,0,0.2,0,0.2,0c0.2,0,0.5,0,0.7,0.1c0,0,0,0,0,0c0.1,0.3,0.3,0.3,0.5,0.3c0.1,0,0.1,0.1,0.2,0.2
	c0.1,0,0.1-0.1,0.1-0.2c0-0.1-0.1-0.1-0.2-0.2c0.1-0.1,0.4,0.1,0.6,0.2c0,0.1-0.1,0.1-0.1,0.2c0.1,0.3,0.2,0.3,0.5,0.3
	c0.1-0.1,0.1-0.2,0.2-0.2c0,0,0,0,0.1,0c-0.1,0.1-0.1,0.2-0.2,0.3c-0.2,0.4-0.3,0.7-0.5,1.1c-0.2,0.3-0.4,0.4-0.6,0.7
	C54,4.4,53.7,4.4,53.4,4.4z"/>
<path class="st1" d="M59.7,51.8c0.2-0.1,0.1-0.3,0.1-0.5c0-0.3,0-0.5,0.1-0.8c0-0.2,0.1-0.3,0.3-0.3c0.1,0,0.2-0.1,0.2-0.1
	c0,0,0-0.1,0-0.1c-0.1,0-0.3,0-0.3,0c0-0.1,0-0.2,0-0.3c0-0.2,0.2-0.3,0.3-0.4c0,0,0,0,0,0c0.3,0.1,0.6,0.2,0.9,0.3
	c0.2,0.1,0.3,0.1,0.4,0c0.1-0.1,0.2,0,0.3,0.1c0.1,0.1,0,0.2,0,0.2c0,0,0,0-0.1,0.1c0.1,0.1,0.2,0.3,0.4,0.2c0,0,0.1,0,0.1,0
	c0.1,0.1,0.2,0.1,0.3,0c0.1,0,0.2,0.1,0.2,0.2c0,0.2,0.1,0.1,0.2,0.1c0.2-0.1,0.3-0.1,0.4,0.2c0.1,0,0.3-0.1,0.4-0.1
	c0.1,0,0.2,0,0.3,0.1c0.1,0.1,0,0.2,0,0.3c0,0.1-0.2,0.2-0.1,0.3c0,0,0,0.1,0.1,0.1c0.2,0.1,0.3,0.2,0.3,0.4c0,0,0.1,0.1,0.2,0.1
	c0.1,0,0.1-0.1,0.2-0.1c0.2-0.1,0.1-0.2,0-0.3c-0.2-0.3-0.2-0.5,0.2-0.7c-0.1-0.2,0-0.5-0.3-0.7c-0.1-0.1,0-0.4,0.1-0.5
	c0.2-0.1,0.3-0.1,0.5,0c0,0.1,0.1,0.1,0.1,0.2c0,0.1,0.1,0.1,0.1,0.2c0,0,0,0,0,0c0.2-0.2,0.4-0.1,0.5,0c0,0,0.1,0,0.1,0
	c0,0,0-0.1,0-0.1c0-0.1-0.1-0.1-0.1-0.2c-0.1-0.2-0.1-0.5,0.2-0.6c0.3-0.1,0.3-0.1,0.5,0.1c0.2-0.1,0.4-0.2,0.6-0.1
	c0.2,0.1,0,0.3,0,0.4c0.1,0,0.3,0,0.4,0.1s0,0.3,0,0.5c0.1-0.1,0.3-0.2,0.4-0.1c0.1,0.1,0.2,0.2,0.4,0.3c0.1,0,0.2,0,0.2,0
	c0,0,0.1,0,0.1,0c0,0,0-0.1,0-0.1c0-0.2-0.1-0.2-0.3-0.3c-0.2-0.1-0.3-0.3-0.5-0.4c-0.1-0.1-0.1-0.2-0.1-0.3
	c-0.1-0.2-0.2-0.3-0.2-0.5c-0.1-0.1,0-0.2,0.1-0.2c0,0,0.1,0,0.1,0c0.1,0,0.1-0.1,0-0.2c-0.4-0.3-0.2-0.6,0.1-0.8
	c0.1-0.1,0.1-0.3,0.2-0.5c0.1-0.2,0.1-0.3,0.2-0.5c0-0.1,0.1,0,0.2,0c0,0.2,0.1,0.1,0.2,0c0.1-0.1,0.2-0.2,0.3,0
	c0.1,0.1,0.1,0.3,0,0.4c-0.1,0.1-0.1,0.2-0.2,0.2c0,0-0.1,0.1-0.2,0.1c-0.1,0-0.2,0-0.3,0c0,0.1,0.2,0.2,0.1,0.3
	c-0.1,0.1-0.1,0.1-0.2,0.2c0,0.1,0,0.2,0,0.2c0.1-0.1,0.2-0.2,0.4-0.3c0.1-0.1,0.2,0,0.3,0.1c0,0,0,0.1,0.1,0.1
	c0.1,0.1,0.2,0.2,0.1,0.4c-0.1,0.1,0,0.3,0,0.5c0,0,0.1-0.1,0.1-0.1c0-0.1,0.1-0.3,0.2-0.3c0,0,0.1-0.1,0-0.1
	c-0.1-0.2-0.2-0.3-0.2-0.5c0-0.1,0-0.2,0-0.2c0.1-0.1,0.2-0.2,0.3-0.3c0.1-0.1,0.2,0,0.3,0.1c0.1-0.1,0.3-0.4,0.5-0.1
	c0.1,0.2-0.1,0.3-0.2,0.5c0.2,0,0.4,0,0.6,0c0,0.1,0,0.1,0,0.1c-0.1,0.1-0.1,0.2-0.1,0.3c0,0.2-0.1,0.2-0.3,0.2c-0.2,0-0.3,0-0.4,0
	c-0.1,0.2-0.2,0.4-0.3,0.6c0.1,0.1,0.3,0,0.4-0.1c0,0,0.1-0.1,0.1-0.1c0.1,0,0.2,0.1,0.2,0.1c0,0.1,0,0.1-0.1,0.2
	c-0.1,0.2-0.2,0.2-0.2,0.5c0,0.2-0.1,0.4-0.3,0.5c0,0,0,0-0.1,0c0,0,0,0-0.1,0.1c0.2,0.1,0.4,0.1,0.6,0.2c0,0,0.1,0,0.1-0.1
	c-0.1-0.3,0.2-0.6,0.2-0.9c0,0,0,0,0-0.1c0.2,0.1,0,0.3,0.2,0.4c0.1,0,0.2-0.3,0.4-0.1c0-0.2,0-0.3-0.1-0.4c-0.1-0.1-0.1-0.3,0-0.4
	c0-0.1,0.1-0.1,0.1-0.2c0.3,0.3,0.3,0.1,0.4,0.7c0.1-0.1,0.2-0.2,0.2-0.3c0-0.1,0-0.2,0-0.3c0-0.2,0.2-0.2,0.3-0.1
	c0.1,0.1,0.2,0.1,0.2,0c0,0,0-0.1,0-0.1c0.2,0,0.3-0.3,0.5-0.3c0.2,0,0.3,0,0.3,0.2c0,0,0,0.1,0.1,0.1c0.1,0.1,0.1,0.2,0,0.2
	c-0.3,0.1-0.5,0.3-0.8,0.3c-0.3,0-0.4,0.2-0.6,0.4c0,0.1-0.1,0.1-0.1,0.2c0,0.1,0,0.1,0,0.2c0.1,0,0.2-0.1,0.2-0.1c0,0,0,0,0,0
	c0,0.3,0.1,0.6-0.2,0.9c-0.1,0.1-0.2,0.1-0.2,0.2c0,0,0,0.1,0.1,0.2c0.1,0.1,0.1,0.1,0.1,0.2c0,0.1,0.1,0.1,0.1,0.2
	c0,0,0.1-0.1,0.1-0.1c0.1-0.2,0.2-0.5,0.3-0.7c0.1-0.1,0.2-0.1,0.4-0.2c0-0.1,0-0.2,0-0.3c0.1,0,0.3,0,0.4,0
	c-0.1-0.2-0.2-0.4,0.1-0.5c0.1,0,0.1,0.1,0.2,0.1c0.2,0.1,0.3,0.1,0.3-0.2c0-0.3,0.1-0.3,0.3-0.2c0,0,0,0,0,0c0,0,0.1-0.1,0.1-0.1
	c0,0,0.1,0,0.1,0.1c0,0,0,0.1,0,0.2c-0.1,0.1-0.2,0.2-0.2,0.4c0,0.1,0,0.1,0,0.2c0,0,0.1,0.1,0.1,0.1c0,0.1-0.1,0.2-0.2,0.2
	c0,0-0.1,0-0.1,0c-0.2,0-0.3,0.1-0.3,0.3c0,0,0,0.1,0,0.2c0.1,0,0.2,0,0.3,0c0,0.1,0,0.3,0,0.4c0,0.1,0,0.3,0,0.4
	c0,0.1-0.1,0.2-0.2,0.2c-0.1,0-0.2,0-0.2,0c-0.1,0-0.2,0-0.2,0.1c-0.1,0.1-0.3,0.1-0.4,0.2c-0.1,0-0.2,0-0.3,0
	c-0.1,0-0.1,0.1-0.1,0.2c0.1,0.1,0.1,0.3-0.1,0.4c-0.2,0-0.3,0.1-0.5,0.1c0,0-0.1,0.1-0.1,0.1c0,0,0.1,0.1,0.1,0.1
	c0.1,0,0.2,0.1,0.3,0.1c0.2,0,0.3,0,0.5,0c0.2,0,0.4,0,0.6,0c0,0.3,0,0.5-0.2,0.6c-0.2,0.1-0.4,0.1-0.5,0.1c-0.1,0-0.2,0-0.2,0
	c0,0.1,0,0.2,0,0.3c0,0.2-0.2,0.2-0.3,0.1c0,0,0,0-0.1,0c-0.2,0-0.3-0.1-0.5-0.1c0,0,0,0.1,0,0.1c0.1,0.2,0,0.3-0.1,0.3
	c-0.2,0.1-0.5,0.3-0.7,0.4c-0.1,0.1-0.3,0.1-0.4,0.1c0,0,0,0.1,0,0.1c0.1,0.2,0.1,0.2-0.1,0.3c-0.1,0-0.2,0.1-0.3,0.1
	c0,0,0.1,0.1,0.1,0.1c0.1,0.1,0.1,0.3,0,0.3c-0.2,0.1-0.4,0.2-0.6,0.1c0,0-0.1,0-0.1,0c-0.2,0.1-0.3,0-0.3-0.1
	c-0.1,0.1-0.3,0.2-0.4,0.3c0,0,0.1,0.1,0.2,0.1c-0.1,0.1-0.1,0.1-0.2,0.2c-0.1,0.1-0.2,0.1-0.3,0.2c-0.1,0.1-0.2,0-0.3-0.1
	c-0.2-0.2-0.3-0.2-0.5,0c-0.1,0.1-0.2,0.1-0.3,0.2c-0.3,0.2-0.4,0.2-0.5-0.2c-0.1-0.2-0.2-0.5-0.2-0.8c0-0.1-0.1-0.1-0.1-0.2
	c-0.1-0.2-0.2-0.3-0.4-0.5c-0.1,0-0.2,0.1-0.3,0.1c0,0.1,0,0.2,0,0.3c-0.2,0-0.4,0.1-0.6-0.1c0,0.1,0,0.2,0,0.3c0,0,0,0.1-0.1,0.1
	C65,55.8,65,55.9,64.9,56c-0.1,0.3-0.3,0.4-0.7,0.2c0.1,0.3,0,0.4-0.2,0.6c0,0-0.1,0.1-0.1,0.1c0.1,0.2,0,0.4-0.2,0.5c0,0,0,0,0,0.1
	c-0.1,0.1-0.1,0.2-0.2,0.4c0,0,0,0.1,0,0.1c0.1,0.2,0.1,0.4,0.1,0.7c-0.1,0-0.1,0-0.2,0c0,0.2,0.1,0.3-0.2,0.4
	c0,0.1,0.1,0.2,0.1,0.2c0,0.1,0,0.2,0,0.2c-0.2,0.2-0.2,0.5-0.3,0.7c-0.1,0.2-0.2,0.3-0.3,0.5c0.1,0,0.2,0,0.2,0
	c0.2-0.1,0.3,0,0.4,0.1c0.1,0.1,0.2,0.2,0.3,0.3c0.1-0.1,0.1-0.1,0.2-0.2c0.1,0.2,0.4,0.2,0.4,0.4c0,0,0,0.1,0.1,0.1
	c0,0,0,0.2,0.1,0.1c0,0,0,0,0,0c0.1,0.1,0.2,0.2,0.3,0.4c0.1,0.3,0.3,0.6,0.5,0.9c0.1,0.2,0.3,0.4,0.4,0.5c0.1,0.1,0.2,0.2,0.3,0.3
	c0.1,0.1,0.1,0.2,0.1,0.3c0.1,0.1,0.1,0.2,0.3,0.2c0,0,0.1,0.1,0.2,0.1c0,0.1,0.1,0.1,0.1,0.2c0.1,0.2,0.3,0.3,0.5,0.4
	c0.2,0.1,0.5,0.2,0.7,0.3c0.1,0,0.1,0.2,0.2,0.3c0,0,0.1,0.1,0.1,0.1c0.2,0.1,0.5,0.2,0.7,0.3c0.3,0.1,0.5,0.3,0.8,0.4
	c0.1,0,0.2,0.1,0.2,0.1c0.2,0.1,0.5,0.3,0.7,0.4c0.1,0.1,0.3,0.1,0.4,0.1c0.3-0.1,0.5,0.1,0.7,0.2c0.2,0.1,0.3,0.3,0.5,0.5
	c0,0,0,0,0,0c0.1,0.3,0.2,0.6,0.5,0.8c0.2,0.2,0.4,0.3,0.5,0.5c0.2,0.1,0.3,0.2,0.5,0.4c0.3,0.2,0.5,0.4,0.8,0.6
	c0.2,0.1,0.3,0.3,0.4,0.4c0,0.1,0.1,0.1,0.1,0.2c-0.1,0.1-0.2,0.1-0.3,0c-0.2-0.1-0.5-0.2-0.7-0.3v0.3c-0.2-0.1-0.3-0.1-0.5-0.2
	c0,0-0.1-0.1-0.1-0.2c0,0,0-0.1,0-0.1c0,0-0.1,0-0.1,0c-0.1,0-0.1,0-0.1,0.1C73,70,73,70,72.9,69.9c-0.1-0.1-0.2-0.2-0.3-0.3
	c-0.4,0.1-0.5,0-0.4-0.4c-0.1,0-0.1,0-0.2,0c-0.2,0-0.3-0.1-0.3-0.3c0-0.1-0.1-0.1-0.1-0.1c0,0-0.1-0.1-0.1-0.1
	c0-0.2-0.1-0.2-0.2-0.2c-0.1,0-0.2,0-0.1-0.2c0-0.1-0.1-0.2-0.1-0.2c-0.1-0.1-0.2-0.1-0.1-0.2c0.1-0.1,0-0.2-0.1-0.3c0,0,0,0,0,0
	c-0.1-0.2-0.2-0.3-0.5-0.2c-0.1,0-0.3-0.2-0.4-0.3c-0.1-0.1-0.2-0.2-0.2-0.2c-0.1,0-0.3,0-0.4-0.1c0,0,0-0.1-0.1-0.2
	c0.1,0,0.2,0,0.2,0c0,0,0,0,0-0.1c-0.1,0-0.2-0.1-0.3-0.1c-0.1,0-0.2,0-0.3-0.1c-0.1-0.1-0.3-0.2-0.5-0.2c-0.1,0-0.2,0-0.3-0.1
	c-0.3-0.1-0.6-0.2-0.9-0.2c0,0-0.1,0-0.1-0.1c-0.1-0.2-0.2-0.2-0.4-0.3c-0.1,0-0.2-0.1-0.2-0.2c0-0.1,0-0.2-0.2-0.2
	c0,0-0.1-0.1-0.2-0.2c-0.1-0.1-0.1-0.3-0.2-0.4c0,0,0,0,0,0v0.2c-0.1,0-0.1,0-0.2,0c-0.2,0-0.2-0.1-0.2-0.2c0,0,0-0.1,0-0.2
	c-0.2,0-0.3-0.1-0.3-0.3c0,0,0,0-0.1,0.1c-0.1-0.1-0.1-0.1-0.2-0.2c0,0,0,0,0,0c-0.3,0-0.3-0.3-0.5-0.5c-0.1-0.1-0.1-0.1-0.3-0.1
	c-0.1,0-0.2-0.1-0.2-0.2c-0.1-0.2-0.2-0.4-0.3-0.6c0,0,0,0,0-0.1c-0.2-0.1-0.4-0.3-0.6-0.4c-0.3-0.1-0.4-0.4-0.6-0.6
	c-0.1-0.1-0.1-0.2-0.2-0.3c-0.2-0.1-0.5-0.3-0.7-0.5c-0.2-0.2-0.3-0.4-0.4-0.5c0,0-0.1-0.1-0.1-0.1c-0.3-0.1-0.4-0.4-0.6-0.6
	c-0.1-0.1-0.2-0.2-0.3-0.3c-0.1-0.1-0.1-0.1-0.1-0.2c0,0,0-0.1-0.1-0.1c-0.2-0.1-0.3-0.4-0.3-0.6c0-0.2-0.1-0.3-0.2-0.5
	c-0.2-0.3-0.3-0.5-0.3-0.8c0-0.2,0.1-0.4,0-0.5c0,0,0.1-0.1,0.1-0.2c0.1-0.1,0.1-0.2,0.1-0.3c0.1-0.1,0.2-0.3,0.2-0.4
	c0.1-0.3,0.3-0.5,0.4-0.8c0,0,0-0.1,0-0.1c0-0.1-0.1-0.2-0.1-0.3c0,0,0-0.1,0-0.1c-0.2-0.1-0.1-0.3-0.1-0.5c0-0.3,0-0.5,0.1-0.7
	c0.1-0.2,0.1-0.5,0-0.7C59.7,52.1,59.7,52,59.7,51.8"/>
<path class="st2" d="M36.6,37.4c0,1.9-1.6,3.5-3.5,3.5c-1.9,0-3.5-1.6-3.5-3.5c0-1.9,1.6-3.5,3.5-3.5C35,33.9,36.6,35.4,36.6,37.4"
	/>
</svg>
