<svg version="1.1" id="Layer_1" xmlns="http://www.w3.org/2000/svg" xmlns:xlink="http://www.w3.org/1999/xlink" x="0px" y="0px"
	 viewBox="0 0 108 84.8" enable-background="new 0 0 108 84.8" xml:space="preserve">
<path fill-rule="evenodd" clip-rule="evenodd" fill="#FFFFFF" d="M79.3,41.9L108,22.6v48.8L79.3,41.9z M14.4,18.8h93.3L61.1,50.2
	L14.4,18.8z M14,71.5l0.1-49l28.7,19.3L14,71.5z M61.1,54.1L61.1,54.1L61.1,54.1L61.1,54.1L61.1,54.1L77,43.4l27.5,28.3H17.6
	l27.5-28.3L61.1,54.1z"/>
<path fill-rule="evenodd" clip-rule="evenodd" fill="#272525" d="M49.9,22.9c-2.6,3-4.1,5.2-3.3,5.9c0.5,0.5,1.9-0.1,3.1-0.9
	C30.9,46.7,9.2,68.9,6.3,73.6c-2.9,4.6-6,10.7-6.3,11.2c0.5-0.3,6.6-3.4,11.2-6.3C19.6,73.3,85,7.3,85,7.3c0-1.9-0.8-3.8-2.3-5.1
	C81.4,0.8,79.6,0,77.6,0c0,0-1.7,1.7-4.6,4.5l-1.1-1.1l-5.2,5.2C66.8,8.6,52.4,19.9,49.9,22.9z M67.7,9.5l0.2,0.2
	C63.2,14.3,57.3,20.2,51,26.5c0,0,0.1-0.1,0.1-0.2c0.3-0.9,0.2-1.8-0.3-2.6C53.3,20.8,67.7,9.5,67.7,9.5L67.7,9.5z"/>
</svg>
