<svg id="Layer_1" data-name="Layer 1" xmlns="http://www.w3.org/2000/svg" xmlns:xlink="http://www.w3.org/1999/xlink" viewBox="0 0 471.93 78"><defs><style>.cls-1{fill:none;}.cls-2{fill:#2aace2;}.cls-3{clip-path:url(#clip-path);}.cls-4{fill:#006838;}.cls-5{fill:#8dc63f;}.cls-6{fill:#ea2529;stroke:#fff;}.cls-12,.cls-6{stroke-miterlimit:10;}.cls-7{fill:#333;}.cls-10,.cls-7,.cls-8,.cls-9{fill-rule:evenodd;}.cls-8{fill:#555;}.cls-9{fill:#27aae1;}.cls-10{fill:#e9e9ea;}.cls-11{fill:#fbb040;}.cls-12{fill:#fdb614;stroke:#f26722;}</style><clipPath id="clip-path" transform="translate(-222.53 -446.83)"><path class="cls-1" d="M246.75,510.49c-.39-8.6,7.59-15.93,15.93-15.93a15.4,15.4,0,0,1,6,1.22c.35-9.72,2.39-19.34,2.55-29.07a16.12,16.12,0,0,1,1.44-6.45h-34.9A4.78,4.78,0,0,0,233,465v41.19a4.78,4.78,0,0,0,4.78,4.77h9C246.78,510.83,246.76,510.66,246.75,510.49Z"/></clipPath></defs><path class="cls-2" d="M246.75,510.49c-.39-8.6,7.59-15.93,15.93-15.93a15.4,15.4,0,0,1,6,1.22c.35-9.72,2.39-19.34,2.55-29.07a16.12,16.12,0,0,1,1.44-6.45h-34.9A4.78,4.78,0,0,0,233,465v41.19a4.78,4.78,0,0,0,4.78,4.77h9C246.78,510.83,246.76,510.66,246.75,510.49Z" transform="translate(-222.53 -446.83)"/><g class="cls-3"><path class="cls-4" d="M276.88,478.77a.65.65,0,0,0-.09-.4.47.47,0,0,1-.1-.6,2.33,2.33,0,0,0,.19-.79c0-.1.1-.3-.19-.4l-.1-.1a.52.52,0,0,1-.2-.4.76.76,0,0,0-.2-.4c-.2-.2-.5-.4-.5-.79,0-.1-.1-.2-.2-.3l-.5-.5c-.19-.2-.49-.4-.39-.7h0c-.1-.2-.2-.3-.2-.49a1.47,1.47,0,0,1,.2-1.1c.1-.2.1-.3-.1-.5a1,1,0,0,1-.4-.49,1.16,1.16,0,0,1,.2-1c.1-.2.3-.3.5-.5s.39-.29.29-.59a1.27,1.27,0,0,1-.1-.6v-.6c0-.2-.09-.49-.09-.69a1.42,1.42,0,0,0-.2-.6.9.9,0,0,1-.1-1c.1-.2.3-.4.1-.6v-.1c0-.1-.1-.3-.1-.4l-.1-.1c-.2,0-.3-.2-.2-.4s.1-.2,0-.3,0-.29,0-.49a1.45,1.45,0,0,0,.2-.7.9.9,0,0,0-.1-.5.6.6,0,0,1,.1-.69.1.1,0,0,0,.1-.1c.2-.3.59-.4.89-.6s.2-.2.2-.3v-.69a.75.75,0,0,0-.1-.5c-.1-.2-.3-.3-.4-.4s-.1-.1-.2-.1-.29-.3-.59-.3c-.1,0-.2,0-.2-.1v-.2a.57.57,0,0,0-.1-.39l-.3-.3a.37.37,0,0,1-.1-.3v-.6c.3,0,.3-.1.3-.4v-.19c.2-.2.1-.3,0-.5s-.3-.6-.4-.9a1.52,1.52,0,0,0-.4-.69c-.1-.1-.29-.2-.2-.4s0-.2-.09-.2-.4-.3-.6-.4h-.4c.2-.1.3-.2.5-.3s.3-.4.2-.59a.14.14,0,0,1,0-.2l.3-.3a4.93,4.93,0,0,0,.49-.7c.1-.2.3-.4.3-.6a3,3,0,0,0,.3-.89c.2-.2.3-.6.7-.6V448h-.3c-.1-.1-.2,0-.3.1s-.1.1-.2.1-.3.1-.4.1-.2.1-.3,0-.29-.1-.39-.2a2.65,2.65,0,0,0-1-.3h-.6a1.35,1.35,0,0,1-.59-.09,1.42,1.42,0,0,1-.6-.2,1.8,1.8,0,0,1-.9-.4,1.09,1.09,0,0,0-.79-.3,2,2,0,0,0-.8.1c-.1,0-.2.1-.3,0H267l-.1.1a1.42,1.42,0,0,1-.2.6l-.1.1a1.43,1.43,0,0,1-.2.59c-.1.2-.1.4-.2.6s-.1.4-.2.6-.1.1-.2.19l-.2.2c.2.3.2.5.1.6s-.3.5-.4.7-.1.2-.19.3c-.2.29-.3.59-.6.69a.6.6,0,0,1-.4.1c-.3,0-.5-.2-.8-.2s-.39-.2-.59-.3a.75.75,0,0,0-.5-.1,1.39,1.39,0,0,1-.6-.09c-.2-.1-.3-.2-.49-.3h-.7c-.2.1-.3.2-.5.3h-.1c-.2.09-.5.19-.69.29a.78.78,0,0,0-.4.4.31.31,0,0,1-.1.2c-.1.1-.2.2-.2.3s-.1.4-.2.6-.3.49-.4.79-.3.4-.4.6-.19.4-.29.7c-.1.09,0,.29-.2.29s-.3.1-.5.2-.3.2-.3.4-.1.1-.1.2a.25.25,0,0,0-.1.4v.2c0,.2-.1.3,0,.49v.2c-.1.3-.2.7-.3,1.1a2.15,2.15,0,0,0-.1.79c0,.1-.1.2-.1.4s-.29.6-.39.9-.3.49-.4.69a.37.37,0,0,0-.1.3c-.1.1-.2.3-.3.4s-.1.2-.2.2l-.2.2a3.58,3.58,0,0,1-.89.49.75.75,0,0,1-.5.1.45.45,0,0,1-.5,0,.1.1,0,0,1-.1-.1c-.1-.09-.2-.29-.3-.19a1.32,1.32,0,0,1-.59.19c0,.2-.1.3-.1.4-.1.4-.3.7-.4,1.1a.22.22,0,0,1-.2.2c-.2,0-.3.2-.4.39s-.2.3-.39.3a.37.37,0,0,0-.3.1v.5a.35.35,0,0,1-.1.2c0,.2-.1.4-.1.6a2.25,2.25,0,0,0-.2.79,1.49,1.49,0,0,1-.3.7c0,.1,0,.1-.1.2v.2a.31.31,0,0,1-.1.19c0,.2-.1.3-.1.5a1.85,1.85,0,0,0-.2.7c-.1.2-.1.3-.2.5s-.1.1-.1.2c-.1.29-.1.49-.19.79s-.2.5-.5.6a.55.55,0,0,0-.3.5c0,.29-.1.49-.1.79s-.3.8-.4,1.29a3.18,3.18,0,0,0-.3.9,14.78,14.78,0,0,1-.2,2.09c-.09.4-.09.7-.19,1.09,0,.1-.1.1-.1.2a2.2,2.2,0,0,1-.1.8,1.42,1.42,0,0,0-.2.6l-.3.59a1.64,1.64,0,0,0-.2,1v.3c0,.19-.1.39-.1.59a4.33,4.33,0,0,1-.1.5,1.42,1.42,0,0,0-.2.6c0,.3-.2.49-.2.69s-.1.2-.1.3-.1.4-.2.6-.09.4-.19.5a1.9,1.9,0,0,0-.5.89c0,.2-.1.3-.1.5-.2.2-.2.5-.3.8a.77.77,0,0,1-.2.39c-.1.2-.2.3-.3.5s-.2.3-.3.3c-.39.1-.49.4-.59.8s-.1.49-.2.79c0,.1-.1.1-.1.2a1.37,1.37,0,0,1-.5.8.6.6,0,0,0-.3.69v.5a2.2,2.2,0,0,0,.1.8,2.4,2.4,0,0,1,.1.79v.7c0,.2.1.4.1.6v1.79c.1.29.1.59.2.89s.1.3.1.5v1.19a2.35,2.35,0,0,1-.2.8,1.38,1.38,0,0,0-.3.4c-.1.2-.1.29.1.39l.1.1c0,.5.1.9.1,1.4v.79a4.1,4.1,0,0,1-.1,1.1,3.34,3.34,0,0,1-.1,1v.3a3.08,3.08,0,0,0-.1,1c0,.29-.1.59-.1.89v.1a.37.37,0,0,1-.2.5.63.63,0,0,0-.1.59v.4c0,.3-.09.5-.09.8v.4c0,.1-.1.2-.1.39s-.3.4-.2.6h0c-.2.1-.3.2-.5.3s-.2.1-.2.3c-.1,0-.2-.1-.3-.1s-.2,0-.2.1v.1c0,.3.1.3.4.2h.2c0,.2.1.39,0,.59a1.7,1.7,0,0,1-.1.7v.2c0,.2-.1.3-.1.5s0,.1.1.2c-.1.1-.1.29-.4.29a.76.76,0,0,0-.4.2c-.1.1-.1.4-.1.5s0,.3-.19.4a.22.22,0,0,0-.2.2c0,.1-.1.1-.2.1s-.1,0-.1.1v.49a1.42,1.42,0,0,1,.2.6v.2c.1.3.2.3.49.2.2.2.3.4.5.6l.1.1a.39.39,0,0,1,.3.09c.1.2.1.4.2.5-.1.1-.3.1-.3.2s-.2.3-.4.4-.1.2-.2.3V522c-.1.1-.1.2-.2.3v.5a.75.75,0,0,0,.1.5.31.31,0,0,1-.1.2c-.09.1-.19.1-.29.2a.56.56,0,0,1-.5.29.35.35,0,0,1-.1.2v.6h.1c0-.1.1-.3.2-.3h0l.1-.1.2-.2a.1.1,0,0,0,.1-.1h0c.1,0,.1-.1.19-.1s.3-.2.4-.29a.1.1,0,0,0,.1-.1h0l.1-.1.1-.1h0l.1-.1h0v-.9a.42.42,0,0,1,.6-.3c.1,0,.1.1.2.1l.1-.1V522c0-.1.1-.2.2-.29s.09-.1.09-.2,0-.2.2-.2a.22.22,0,0,0,.2-.2c.1-.2.1-.2.3-.2s.2-.1.1-.3-.2-.5-.5-.7v-.09c.4,0,.7,0,.9-.4-.1-.1-.2-.1-.3-.2.1-.1.2-.1.3-.2v-.2h.2c.1,0,.3-.1.4-.1s.09-.1.09-.1.1-.1.2-.1a.31.31,0,0,0,.2-.1.52.52,0,0,1,.4-.2.1.1,0,0,0,.1-.1c.1-.1.2-.29.3-.39a.48.48,0,0,0,0-.7l-.1-.1a.55.55,0,0,0-.2-.5v-.2h.4c.1-.1.1-.1.3-.1h.3v-.29c0-.1-.1-.1-.2-.2.49-.3.59-.3.49-.7a.68.68,0,0,0,.6-.4c.1-.2.2-.5.3-.69s.1-.3.1-.4,0-.3.2-.5a.35.35,0,0,0,.1-.2v-.3c.2-.1.1-.2.2-.3a.85.85,0,0,0,.1-.69c.1-.1.19-.2.19-.3a3.18,3.18,0,0,1,.3-.9c0-.1.1-.19.1-.29s.3-.4.3-.6.1-.3.3-.5a.31.31,0,0,0,.1-.2,1.88,1.88,0,0,1,.1-.69,5.36,5.36,0,0,0,.5-1.1.54.54,0,0,1,.29-.4c.1,0,.2-.2.2-.29.2-.3.4-.5.8-.4a4.33,4.33,0,0,1,.5.1,2.68,2.68,0,0,1,.69.39l.6.3c.2.1.3.2.2.4h0v.2l.1.1v.1c0,.1.1.3-.1.3v.1c0,.1,0,.2.2.3l.1.09a.73.73,0,0,1-.2.6,2.19,2.19,0,0,0-.3.5v.5a4.7,4.7,0,0,1,.3.69v.1a.44.44,0,0,0,.1.5c.2.2.3.4.5.5s.19.3.19.49a.31.31,0,0,0,.1.2c0,.1.1.1.1.2s0,.3.1.4a.37.37,0,0,1,.1.3c0,.3.1.6.1.89v.1c.2.3.4.7.9.6v.2a.35.35,0,0,0,.2.1l.2-.2h.19c0-.1.1-.2.1-.3s0-.2.1-.3.1-.2.2-.2a.8.8,0,0,1,.8.1.14.14,0,0,0,.2,0c.1-.1,0-.19-.1-.19v-.1a.1.1,0,0,1,.1.1.44.44,0,0,0,.49.09.82.82,0,0,1,.5-.09c.2,0,.3.09.3.29a2.77,2.77,0,0,1-.1.9.22.22,0,0,1-.2.2c-.3,0-.4.2-.3.5v.39c0,.2.1.3.1.5s.1.6.2.9c-.1.1-.3.2-.1.39h.2c.1.1.1.3.2.4s.1.2.2.2.3.1.4.2.1.1.2.2h-.3c.1.1.1.1.1.2s.2.2.2.3.1.3.1.39a.51.51,0,0,0,.79.2c.2-.1.4-.29.7-.2a.28.28,0,0,0,.3-.19c.1-.1.2-.3.49-.3a.31.31,0,0,1-.1-.2l-.29-.6a.55.55,0,0,0-.4-.6l-.3-.29-.3-.6a.76.76,0,0,1-.2-.5c0-.4.2-.69.1-1.09s.1-.5.3-.7a2.18,2.18,0,0,0,.5-.8l.1-.09c.1-.1.3-.1.4-.2.29-.1.39-.4.59-.6s.2-.3.3-.5.2-.2.1-.4l.1-.1c.1,0,.2-.1.3-.19s.2-.1.2-.2.3,0,.3.2.09.19.09.29a1.61,1.61,0,0,0,.4.7.76.76,0,0,1,.2.4.1.1,0,0,0,.1.1c.2.2.4.2.6.3a1.88,1.88,0,0,1,.69.1c.2,0,.3,0,.4-.1l.2-.1a2.19,2.19,0,0,1,.5.3.33.33,0,0,0,.4,0c.2-.2.3-.4.49-.6s.3-.3.3-.5a.6.6,0,0,1,.4.1c.2.1.3.3.6.3h0a.1.1,0,0,1-.1.1v.1h.3c.2,0,.3,0,.3-.3,0-.1.09-.3.09-.4s.2-.3.2-.5a.93.93,0,0,1,.2-.69v-.2a1.85,1.85,0,0,1-.2-.7c0-.1-.1-.3.1-.3a.1.1,0,0,0,.1-.1,1.34,1.34,0,0,0,.2-.59c0-.2.1-.4,0-.6s-.2-.2-.3-.3c-.2-.3-.49-.3-.89-.2a.1.1,0,0,1-.1-.1c-.1-.2-.2-.3-.2-.49v-.2h.3c.1,0,.1.2.2.2s.39.29.59.39a.35.35,0,0,1,.2.1.6.6,0,0,1,.4.1l.1.1c.1.1.1.2.2.4s.1.2.2.3a.37.37,0,0,1-.1.3c-.1.1-.1.4-.1.49.2.1.3.1.3-.09s0-.2.1-.2l.2-.2h.59a.9.9,0,0,0,.5-.1l.1-.2a.78.78,0,0,1-.4-.4l-.2-.2c-.3-.1-.39-.4-.69-.5s-.1-.39-.1-.49a2.46,2.46,0,0,0,.1-1.2c0-.1-.1-.2-.2-.3s-.1-.29,0-.29c.3-.1.3-.3.3-.5a2.13,2.13,0,0,0,0-.8h0a.35.35,0,0,0-.1-.2.34.34,0,0,1,.1-.29h.29c.1,0,.2.09.3.09a.82.82,0,0,1,.5.5,5.27,5.27,0,0,0,.3,1.2,4.7,4.7,0,0,1,.3.69l.3.9a1.6,1.6,0,0,1,.19.5h0a.2.2,0,0,0,.3,0,1,1,0,0,0,.5-.4c.1.3.2.49.3.79,0,.1.1.2.2.3a.6.6,0,0,0,.4.1c.29,0,.29,0,.49-.4s.2-.39.4-.39c.5,0,.7-.3.7-.8.1-.1.1-.1.1-.4l.2-.2c0-.1.1-.2.1-.3a1.21,1.21,0,0,0,.1-.59v-.2c0-.2.1-.3.1-.5a.31.31,0,0,0-.1-.4c-.1-.1-.1-.2-.2-.3v-.19c0-.2-.1-.4,0-.6v-.3a4.33,4.33,0,0,0-.1-.5c0-.2.1-.3.1-.5s.1-.29-.1-.39a1,1,0,0,1-.4-.5c-.1-.1-.1-.3-.2-.4s0-.1-.1-.2a2.1,2.1,0,0,0-.5-1.29.37.37,0,0,1-.1-.3c-.1-.3-.1-.6-.29-.8a.48.48,0,0,1-.2-.39c-.1-.2-.3-.4-.4-.6a.37.37,0,0,1-.1-.3,1.38,1.38,0,0,0-.1-.89v-.2a.85.85,0,0,1,0-.7.1.1,0,0,1,.1-.1.37.37,0,0,1,.3-.1c.2-.1.3,0,.3.2a1.55,1.55,0,0,0,.19.6c.1.1.1.1.2.1s.3,0,.4-.1a.68.68,0,0,0,.4-.6c0-.2.1-.3.3-.4a.35.35,0,0,0,.2-.1.37.37,0,0,0-.1-.3c-.1-.19-.2-.19,0-.39v-.1a.55.55,0,0,1,.3-.5c.1-.1.2-.4.1-.5s-.2-.3-.3-.5v-.09c.1-.1.2-.2.1-.4s-.2-.2-.2-.3a.66.66,0,0,1-.1-.6c.1-.3,0-.3-.3-.4h0c-.1,0-.2-.1-.1-.19s.1-.1.1-.2a.6.6,0,0,0,.4-.1v-.1c-.1-.2,0-.3.2-.4s.2-.2.1-.4-.1-.3-.2-.3h-.4c-.1.1-.2,0-.3,0s0-.2,0-.3v-.1c-.1-.09-.2-.19-.3-.09,0-.1-.1-.2-.1-.3s.1-.1.1-.2v-.2a.37.37,0,0,0-.1-.3,1.38,1.38,0,0,1-.3-.4c-.1-.1-.1-.3-.29-.3l-.1-.1c-.1-.09-.2-.29-.4-.19l-.3.29c0,.1.1.2.2.3s.1.1.2.2a.31.31,0,0,1,.1.2c0,.1-.1.2-.3.2h-.3c-.1,0-.2.1-.3.2l-.2.2c-.2,0-.2.2-.3.3v.19a1.7,1.7,0,0,0,.1.7c0,.1.1.2,0,.3a.45.45,0,0,0,0,.5c.2.2.2.4.3.59s.1.6.5.6c-.2.2-.3.4-.5.6a.37.37,0,0,0-.1.3c0,.1,0,.2-.2.29l-.1.1a2.33,2.33,0,0,0-.19.8,1.39,1.39,0,0,0,.09.6c-.09.1-.29.2-.39.3h-.1c-.1-.2-.3-.1-.4-.2s-.2-.1-.4-.1l-.1-.1a1.11,1.11,0,0,1-.69-.5v-.2a1,1,0,0,0,.19-.5V490.9c0-.2,0-.39.1-.39s.3-.2.5-.3a5.24,5.24,0,0,0,1.1-1c.1-.2.29-.4.19-.69s0-.4-.09-.6v-.1c.19-.1.19-.3.19-.5a4.33,4.33,0,0,1,.1-.5c0-.09.1-.19.2-.39a.82.82,0,0,1,.5-.5.27.27,0,0,0,.3-.3c.1-.2.1-.3.3-.4s.2-.2.1-.4a.62.62,0,0,1,0-.59c.1-.1.1-.2.2-.3s.19-.2.29-.2h.6a.27.27,0,0,0,.3-.3c0-.1.1-.1.1-.2s.1-.2.2-.3a1,1,0,0,1,.5-.59c.19-.1.29-.2.49-.3s.1-.1.2-.2a2.39,2.39,0,0,0,.2-.9.59.59,0,0,1,.1-.39c.1-.2.2-.3.3-.5a.45.45,0,0,0,0-.5v-.2C276.88,478.87,276.88,478.77,276.88,478.77Zm-5.17-27.56h-.3c-.2,0-.49.1-.69.1h-.5c-.1,0-.1-.1-.2-.1a1.27,1.27,0,0,1-.6-.1c-.2-.1-.39,0-.59-.1s-.2,0-.3.1h0c-.3,0-.4.5-.8.5-.1,0-.2.09-.4.09s-.2-.09-.29-.09-.2-.1-.3-.1-.1-.2-.1-.3h0a.35.35,0,0,0,.2-.1c0-.1-.1-.1-.2-.1s-.3-.1-.2-.3l.3-.9a.1.1,0,0,1,.1-.1c.1-.09.2-.09.29-.19s.2-.1.2,0a.45.45,0,0,0,.5,0v.1c-.1.19,0,.19,0,.19s.2,0,.2-.1v-2l.1-.1h.6a.43.43,0,0,1,.3.39,1.55,1.55,0,0,0,.19.9c0,.1.1.1.2.1l.1-.1a1.49,1.49,0,0,1,1.3-.6H271a1.7,1.7,0,0,1,.7.1h0c.1.3.3.3.5.3s.1.1.2.2.1-.1.1-.2-.1-.1-.2-.2c.1-.1.4.1.6.2,0,.1-.1.1-.1.2.1.3.19.3.49.3.1-.1.1-.2.2-.2h.1c-.1.1-.1.2-.2.3-.2.39-.3.69-.49,1.09s-.4.4-.6.7C272.21,451.21,271.91,451.21,271.71,451.21Z" transform="translate(-222.53 -446.83)"/><path class="cls-4" d="M277.88,498.37c.2-.1.1-.3.1-.5a2.2,2.2,0,0,1,.1-.8.27.27,0,0,1,.3-.3.35.35,0,0,0,.2-.1v-.1h-.3v-.29c0-.2.2-.3.3-.4h0l.89.3c.2.1.3.1.4,0s.2,0,.3.1a.14.14,0,0,1,0,.2l-.1.09c.1.1.2.3.4.2h.1a.18.18,0,0,0,.29,0,.22.22,0,0,1,.2.2c0,.2.1.1.2.1s.3-.1.4.2c.1,0,.3-.1.4-.1a.37.37,0,0,1,.3.1c.1.1,0,.2,0,.3s-.2.2-.1.3a.1.1,0,0,0,.1.1c.2.1.3.2.3.4a.32.32,0,0,0,.19.09c.1,0,.1-.09.2-.09s.1-.2,0-.3c-.2-.3-.2-.5.2-.7-.1-.2,0-.5-.3-.7-.1-.1,0-.39.1-.49a.45.45,0,0,1,.5,0c0,.1.1.1.1.2s.1.1.1.19h0a.35.35,0,0,1,.5,0h.1v-.09c0-.1-.1-.1-.1-.2a.4.4,0,0,1,.2-.6c.29-.1.29-.1.49.1a.66.66,0,0,1,.6-.1c.2.1,0,.3,0,.4a.6.6,0,0,1,.4.1c.1.1,0,.3,0,.49.1-.1.3-.19.4-.1a1.46,1.46,0,0,0,.39.3h.3v-.1c0-.2-.1-.2-.3-.29s-.29-.3-.49-.4a.37.37,0,0,1-.1-.3c-.1-.2-.2-.3-.2-.5s0-.2.1-.2h.1c.1,0,.1-.1,0-.2-.4-.3-.2-.59.1-.79.1-.1.1-.3.2-.5s.1-.3.19-.5.1,0,.2,0c0,.2.1.1.2,0s.2-.2.3,0a.3.3,0,0,1,0,.4c-.1.1-.1.2-.2.2a.35.35,0,0,1-.2.1h-.3c0,.1.2.2.1.3l-.19.2v.2a1.2,1.2,0,0,1,.39-.3c.1-.1.2,0,.3.1a.1.1,0,0,0,.1.1c.1.1.2.19.1.39s0,.3,0,.5l.1-.1c0-.1.1-.3.2-.3s.1-.1,0-.1c-.1-.2-.2-.29-.2-.49v-.2l.3-.3c.1-.1.2,0,.3.1.1-.1.3-.4.49-.1s-.09.3-.19.5H289v.1a.35.35,0,0,0-.1.29c0,.2-.1.2-.3.2h-.39l-.3.6c.1.1.3,0,.4-.1l.1-.1a.31.31,0,0,1,.19.1c0,.1,0,.1-.09.2s-.2.2-.2.5a.53.53,0,0,1-.3.49h-.1l-.1.1c.2.1.4.1.6.2a.1.1,0,0,0,.1-.1c-.1-.29.19-.59.19-.89v-.1c.2.1,0,.3.2.4s.2-.3.4-.1c0-.2,0-.3-.1-.4a.3.3,0,0,1,0-.4c0-.1.1-.1.1-.2.3.3.3.1.4.7.1-.1.2-.2.2-.3v-.3c0-.2.2-.2.3-.1s.2.1.2,0V495c.19,0,.29-.3.49-.3s.3,0,.3.2a.1.1,0,0,0,.1.1c.1.1.1.2,0,.2-.3.1-.5.3-.8.3s-.39.2-.59.4c0,.1-.1.1-.1.2v.2a.35.35,0,0,0,.2-.1h0c0,.3.1.59-.2.89-.1.1-.2.1-.2.2a.31.31,0,0,0,.1.2c.1.1.1.1.1.2s.1.1.1.2l.1-.1c.1-.2.2-.5.3-.7s.19-.1.39-.2v-.3h.4c-.1-.19-.2-.39.1-.49.1,0,.1.1.2.1s.3.1.3-.2.1-.3.3-.2h0l.1-.1a.1.1,0,0,1,.1.1v.2a.52.52,0,0,0-.2.4v.19l.1.1a.22.22,0,0,1-.2.2h-.1a.27.27,0,0,0-.3.3v.2h.3v.8a.22.22,0,0,1-.2.2h-.2c-.1,0-.2,0-.2.09s-.3.1-.4.2h-.3c-.09,0-.09.1-.09.2a.26.26,0,0,1-.1.4c-.2,0-.3.1-.5.1l-.1.1.1.1c.1,0,.2.1.3.1h1.09c0,.3,0,.5-.2.6a1.09,1.09,0,0,1-.5.1h-.19v.29c0,.2-.2.2-.3.1h-.1c-.2,0-.3-.1-.5-.1v.1c.1.2,0,.3-.1.3s-.5.3-.7.4a.56.56,0,0,1-.39.1v.1c.1.2.1.2-.1.3s-.2.1-.3.1l.1.1c.1.1.1.29,0,.29a.66.66,0,0,1-.6.1h-.1c-.2.1-.3,0-.3-.1-.1.1-.3.2-.39.3a.31.31,0,0,0,.19.1l-.19.2c-.1.1-.2.1-.3.2s-.2,0-.3-.1-.3-.2-.5,0-.2.1-.3.2c-.3.2-.4.2-.49-.2a1.52,1.52,0,0,0,.09-.89c0-.1-.09-.1-.09-.2a1.76,1.76,0,0,0-.4-.5c-.1,0-.2.1-.3.1v.3c-.2,0-.4.1-.6-.1v.3a.1.1,0,0,1-.1.1c-.1.09-.1.19-.2.29-.1.3-.3.4-.69.2.1.3,0,.4-.2.6l-.1.1a.37.37,0,0,1-.2.5v.1c-.1.1-.1.2-.2.39v.1a1.48,1.48,0,0,1,.1.7h-.2c0,.2.1.3-.2.4a.35.35,0,0,0,.1.2v.2c-.2.2-.2.49-.3.69s-.2.3-.3.5h.2c.2-.1.3,0,.4.1l.3.3.2-.2c.1.2.4.2.4.4a.1.1,0,0,0,.1.1s0,.2.1.1h0a1.31,1.31,0,0,1,.29.39,4.05,4.05,0,0,0,.5.9,2.18,2.18,0,0,0,.4.5l.3.3a.34.34,0,0,1,.1.29c.1.1.1.2.3.2a.35.35,0,0,0,.2.1c0,.1.09.1.09.2a1,1,0,0,0,.5.4c.2.1.5.2.7.3s.1.2.2.3l.1.1c.2.09.49.19.69.29s.5.3.8.4a.35.35,0,0,1,.2.1c.2.1.5.3.69.4a.6.6,0,0,0,.4.1c.3-.1.5.1.7.2s.3.3.5.5h0a1.42,1.42,0,0,0,.49.79c.2.2.4.3.5.5a1.76,1.76,0,0,1,.5.4c.3.2.5.39.79.59s.3.3.4.4.1.1.1.2a.19.19,0,0,1-.3,0c-.2-.1-.49-.2-.69-.3v.3c-.2-.1-.3-.1-.5-.2a.35.35,0,0,1-.1-.2v-.1h-.1c-.1,0-.1,0-.1.1s-.2.1-.3,0l-.3-.3c-.39.1-.49,0-.39-.39H290a.27.27,0,0,1-.3-.3.1.1,0,0,0-.1-.1l-.1-.1c0-.2-.1-.2-.2-.2s-.2,0-.1-.2a.35.35,0,0,0-.1-.2c-.2-.2-.4-.2-.2-.3s0-.2-.1-.3h0c-.1-.19-.2-.29-.49-.19-.1,0-.3-.2-.4-.3l-.2-.2a.6.6,0,0,1-.4-.1.31.31,0,0,0-.1-.2h.2V513c-.1,0-.2-.1-.3-.1a.37.37,0,0,1-.3-.1.74.74,0,0,0-.49-.2.37.37,0,0,1-.3-.1,2.92,2.92,0,0,0-.9-.2.1.1,0,0,1-.1-.1c-.1-.19-.2-.19-.39-.29a.22.22,0,0,1-.2-.2c0-.1,0-.2-.2-.2l-.2-.2c-.1-.1-.1-.3-.2-.4h0v.2h-.2c-.2,0-.2-.1-.2-.2v-.2a.27.27,0,0,1-.3-.3l-.1.1-.2-.2h0c-.29,0-.29-.29-.49-.49s-.1-.1-.3-.1a.22.22,0,0,1-.2-.2l-.3-.6v-.1c-.2-.1-.4-.3-.6-.4s-.39-.39-.59-.59-.1-.2-.2-.3a3,3,0,0,1-.7-.5c-.2-.2-.3-.4-.4-.5l-.1-.1c-.29-.1-.39-.39-.59-.59l-.3-.3c-.1-.1-.1-.1-.1-.2a.1.1,0,0,0-.1-.1.71.71,0,0,1-.3-.6c0-.2-.1-.3-.2-.49a1.33,1.33,0,0,1-.3-.8c0-.2.1-.4,0-.5a.35.35,0,0,0,.1-.2.36.36,0,0,0,.1-.29.76.76,0,0,0,.2-.4c.1-.3.3-.5.4-.8v-.1c0-.1-.1-.2-.1-.3v-.1c-.2-.1-.1-.29-.1-.49a1.48,1.48,0,0,1,.1-.7.85.85,0,0,0,0-.7c.2-.1.1-.2.1-.39" transform="translate(-222.53 -446.83)"/></g><path class="cls-5" d="M280.88,478.77a.65.65,0,0,0-.09-.4.47.47,0,0,1-.1-.6,2.33,2.33,0,0,0,.19-.79c0-.1.1-.3-.19-.4l-.1-.1a.52.52,0,0,1-.2-.4.76.76,0,0,0-.2-.4c-.2-.2-.5-.4-.5-.79,0-.1-.1-.2-.2-.3l-.5-.5c-.19-.2-.49-.4-.39-.7h0c-.1-.2-.2-.3-.2-.49a1.47,1.47,0,0,1,.2-1.1c.1-.2.1-.3-.1-.5a1,1,0,0,1-.4-.49,1.16,1.16,0,0,1,.2-1c.1-.2.3-.3.5-.5s.39-.29.29-.59a1.27,1.27,0,0,1-.1-.6v-.6c0-.2-.09-.49-.09-.69a1.42,1.42,0,0,0-.2-.6.9.9,0,0,1-.1-1c.1-.2.3-.4.1-.6v-.1c0-.1-.1-.3-.1-.4l-.1-.1c-.2,0-.3-.2-.2-.4s.1-.2,0-.3,0-.29,0-.49a1.45,1.45,0,0,0,.2-.7.9.9,0,0,0-.1-.5.6.6,0,0,1,.1-.69.1.1,0,0,0,.1-.1c.2-.3.59-.4.89-.6s.2-.2.2-.3v-.69a.75.75,0,0,0-.1-.5c-.1-.2-.3-.3-.4-.4s-.1-.1-.2-.1-.29-.3-.59-.3c-.1,0-.2,0-.2-.1v-.2a.57.57,0,0,0-.1-.39l-.3-.3a.37.37,0,0,1-.1-.3v-.6c.3,0,.3-.1.3-.4v-.19c.2-.2.1-.3,0-.5s-.3-.6-.4-.9a1.52,1.52,0,0,0-.4-.69c-.1-.1-.29-.2-.2-.4s0-.2-.09-.2-.4-.3-.6-.4h-.4c.2-.1.3-.2.5-.3s.3-.4.2-.59a.14.14,0,0,1,0-.2l.3-.3a4.93,4.93,0,0,0,.49-.7c.1-.2.3-.4.3-.6a3,3,0,0,0,.3-.89c.2-.2.3-.6.7-.6V448h-.3c-.1-.1-.2,0-.3.1s-.1.1-.2.1-.3.1-.4.1-.2.1-.3,0-.29-.1-.39-.2a2.65,2.65,0,0,0-1-.3h-.6a1.35,1.35,0,0,1-.59-.09,1.42,1.42,0,0,1-.6-.2,1.8,1.8,0,0,1-.9-.4,1.09,1.09,0,0,0-.79-.3,2,2,0,0,0-.8.1c-.1,0-.2.1-.3,0H271l-.1.1a1.42,1.42,0,0,1-.2.6l-.1.1a1.43,1.43,0,0,1-.2.59c-.1.2-.1.4-.2.6s-.1.4-.2.6-.1.1-.2.19l-.2.2c.2.3.2.5.1.6s-.3.5-.4.7-.1.2-.19.3c-.2.29-.3.59-.6.69a.6.6,0,0,1-.4.1c-.3,0-.5-.2-.8-.2s-.39-.2-.59-.3a.75.75,0,0,0-.5-.1,1.39,1.39,0,0,1-.6-.09c-.2-.1-.3-.2-.49-.3h-.7c-.2.1-.3.2-.5.3h-.1c-.2.09-.5.19-.69.29a.78.78,0,0,0-.4.4.31.31,0,0,1-.1.2c-.1.1-.2.2-.2.3s-.1.4-.2.6-.3.49-.4.79-.3.4-.4.6-.19.4-.29.7c-.1.09,0,.29-.2.29s-.3.1-.5.2-.3.2-.3.4-.1.1-.1.2a.25.25,0,0,0-.1.4v.2c0,.2-.1.3,0,.49v.2c-.1.3-.2.7-.3,1.1a2.15,2.15,0,0,0-.1.79c0,.1-.1.2-.1.4s-.29.6-.39.9-.3.49-.4.69a.37.37,0,0,0-.1.3c-.1.1-.2.3-.3.4s-.1.2-.2.2l-.2.2a3.58,3.58,0,0,1-.89.49.75.75,0,0,1-.5.1.45.45,0,0,1-.5,0,.1.1,0,0,1-.1-.1c-.1-.09-.2-.29-.3-.19a1.32,1.32,0,0,1-.59.19c0,.2-.1.3-.1.4-.1.4-.3.7-.4,1.1a.22.22,0,0,1-.2.2c-.2,0-.3.2-.4.39s-.2.3-.39.3a.37.37,0,0,0-.3.1v.5a.35.35,0,0,1-.1.2c0,.2-.1.4-.1.6a2.25,2.25,0,0,0-.2.79,1.49,1.49,0,0,1-.3.7c0,.1,0,.1-.1.2v.2a.31.31,0,0,1-.1.19c0,.2-.1.3-.1.5a1.85,1.85,0,0,0-.2.7c-.1.2-.1.3-.2.5s-.1.1-.1.2c-.1.29-.1.49-.19.79s-.2.5-.5.6a.55.55,0,0,0-.3.5c0,.29-.1.49-.1.79s-.3.8-.4,1.29a3.18,3.18,0,0,0-.3.9,14.78,14.78,0,0,1-.2,2.09c-.09.4-.09.7-.19,1.09,0,.1-.1.1-.1.2a2.2,2.2,0,0,1-.1.8,1.42,1.42,0,0,0-.2.6l-.3.59a1.64,1.64,0,0,0-.2,1v.3c0,.19-.1.39-.1.59a4.33,4.33,0,0,1-.1.5,1.42,1.42,0,0,0-.2.6c0,.3-.2.49-.2.69s-.1.2-.1.3-.1.4-.2.6-.09.4-.19.5a1.9,1.9,0,0,0-.5.89c0,.2-.1.3-.1.5-.2.2-.2.5-.3.8a.77.77,0,0,1-.2.39c-.1.2-.2.3-.3.5s-.2.3-.3.3c-.39.1-.49.4-.59.8s-.1.49-.2.79c0,.1-.1.1-.1.2a1.37,1.37,0,0,1-.5.8.6.6,0,0,0-.3.69v.5a2.2,2.2,0,0,0,.1.8,2.4,2.4,0,0,1,.1.79v.7c0,.2.1.4.1.6v1.79c.1.29.1.59.2.89s.1.3.1.5v1.19a2.35,2.35,0,0,1-.2.8,1.38,1.38,0,0,0-.3.4c-.1.2-.1.29.1.39l.1.1c0,.5.1.9.1,1.4v.79a4.1,4.1,0,0,1-.1,1.1,3.34,3.34,0,0,1-.1,1v.3a3.08,3.08,0,0,0-.1,1c0,.29-.1.59-.1.89v.1a.37.37,0,0,1-.2.5.63.63,0,0,0-.1.59v.4c0,.3-.09.5-.09.8v.4c0,.1-.1.2-.1.39s-.3.4-.2.6h0c-.2.1-.3.2-.5.3s-.2.1-.2.3c-.1,0-.2-.1-.3-.1s-.2,0-.2.1v.1c0,.3.1.3.4.2h.2c0,.2.1.39,0,.59a1.7,1.7,0,0,1-.1.7v.2c0,.2-.1.3-.1.5s0,.1.1.2c-.1.1-.1.29-.4.29a.76.76,0,0,0-.4.2c-.1.1-.1.4-.1.5s0,.3-.19.4a.22.22,0,0,0-.2.2c0,.1-.1.1-.2.1s-.1,0-.1.1v.49a1.42,1.42,0,0,1,.2.6v.2c.1.3.2.3.49.2.2.2.3.4.5.6l.1.1a.39.39,0,0,1,.3.09c.1.2.1.4.2.5-.1.1-.3.1-.3.2s-.2.3-.4.4-.1.2-.2.3V522c-.1.1-.1.2-.2.3v.5a.75.75,0,0,0,.1.5.31.31,0,0,1-.1.2c-.09.1-.19.1-.29.2a.56.56,0,0,1-.5.29.35.35,0,0,1-.1.2v.6h.1c0-.1.1-.3.2-.3h0l.1-.1.2-.2a.1.1,0,0,0,.1-.1h0c.1,0,.1-.1.19-.1s.3-.2.4-.29a.1.1,0,0,0,.1-.1h0l.1-.1.1-.1h0l.1-.1h0v-.9a.42.42,0,0,1,.6-.3c.1,0,.1.1.2.1l.1-.1V522c0-.1.1-.2.2-.29s.09-.1.09-.2,0-.2.2-.2a.22.22,0,0,0,.2-.2c.1-.2.1-.2.3-.2s.2-.1.1-.3-.2-.5-.5-.7v-.09c.4,0,.7,0,.9-.4-.1-.1-.2-.1-.3-.2.1-.1.2-.1.3-.2v-.2h.2c.1,0,.3-.1.4-.1s.09-.1.09-.1.1-.1.2-.1a.31.31,0,0,0,.2-.1.52.52,0,0,1,.4-.2.1.1,0,0,0,.1-.1c.1-.1.2-.29.3-.39a.48.48,0,0,0,0-.7l-.1-.1a.55.55,0,0,0-.2-.5v-.2h.4c.1-.1.1-.1.3-.1h.3v-.29c0-.1-.1-.1-.2-.2.49-.3.59-.3.49-.7a.68.68,0,0,0,.6-.4c.1-.2.2-.5.3-.69s.1-.3.1-.4,0-.3.2-.5a.35.35,0,0,0,.1-.2v-.3c.2-.1.1-.2.2-.3a.85.85,0,0,0,.1-.69c.1-.1.19-.2.19-.3a3.18,3.18,0,0,1,.3-.9c0-.1.1-.19.1-.29s.3-.4.3-.6.1-.3.3-.5a.31.31,0,0,0,.1-.2,1.88,1.88,0,0,1,.1-.69,5.36,5.36,0,0,0,.5-1.1.54.54,0,0,1,.29-.4c.1,0,.2-.2.2-.29.2-.3.4-.5.8-.4a4.33,4.33,0,0,1,.5.1,2.68,2.68,0,0,1,.69.39l.6.3c.2.1.3.2.2.4h0v.2l.1.1v.1c0,.1.1.3-.1.3v.1c0,.1,0,.2.2.3l.1.09a.73.73,0,0,1-.2.6,2.19,2.19,0,0,0-.3.5v.5a4.7,4.7,0,0,1,.3.69v.1a.44.44,0,0,0,.1.5c.2.2.3.4.5.5s.19.3.19.49a.31.31,0,0,0,.1.2c0,.1.1.1.1.2s0,.3.1.4a.37.37,0,0,1,.1.3c0,.3.1.6.1.89v.1c.2.3.4.7.9.6v.2a.35.35,0,0,0,.2.1l.2-.2h.19c0-.1.1-.2.1-.3s0-.2.1-.3.1-.2.2-.2a.8.8,0,0,1,.8.1.14.14,0,0,0,.2,0c.1-.1,0-.19-.1-.19v-.1a.1.1,0,0,1,.1.1.44.44,0,0,0,.49.09.82.82,0,0,1,.5-.09c.2,0,.3.09.3.29a2.77,2.77,0,0,1-.1.9.22.22,0,0,1-.2.2c-.3,0-.4.2-.3.5v.39c0,.2.1.3.1.5s.1.6.2.9c-.1.1-.3.2-.1.39h.2c.1.1.1.3.2.4s.1.2.2.2.3.1.4.2.1.1.2.2h-.3c.1.1.1.1.1.2s.2.2.2.3.1.3.1.39a.51.51,0,0,0,.79.2c.2-.1.4-.29.7-.2a.28.28,0,0,0,.3-.19c.1-.1.2-.3.49-.3a.31.31,0,0,1-.1-.2l-.29-.6a.55.55,0,0,0-.4-.6l-.3-.29-.3-.6a.76.76,0,0,1-.2-.5c0-.4.2-.69.1-1.09s.1-.5.3-.7a2.18,2.18,0,0,0,.5-.8l.1-.09c.1-.1.3-.1.4-.2.29-.1.39-.4.59-.6s.2-.3.3-.5.2-.2.1-.4l.1-.1c.1,0,.2-.1.3-.19s.2-.1.2-.2.3,0,.3.2.09.19.09.29a1.61,1.61,0,0,0,.4.7.76.76,0,0,1,.2.4.1.1,0,0,0,.1.1c.2.2.4.2.6.3a1.88,1.88,0,0,1,.69.1c.2,0,.3,0,.4-.1l.2-.1a2.19,2.19,0,0,1,.5.3.33.33,0,0,0,.4,0c.2-.2.3-.4.49-.6s.3-.3.3-.5a.6.6,0,0,1,.4.1c.2.1.3.3.6.3h0a.1.1,0,0,1-.1.1v.1h.3c.2,0,.3,0,.3-.3,0-.1.09-.3.09-.4s.2-.3.2-.5a.93.93,0,0,1,.2-.69v-.2a1.85,1.85,0,0,1-.2-.7c0-.1-.1-.3.1-.3a.1.1,0,0,0,.1-.1,1.34,1.34,0,0,0,.2-.59c0-.2.1-.4,0-.6s-.2-.2-.3-.3c-.2-.3-.49-.3-.89-.2a.1.1,0,0,1-.1-.1c-.1-.2-.2-.3-.2-.49v-.2h.3c.1,0,.1.2.2.2s.39.29.59.39a.35.35,0,0,1,.2.1.6.6,0,0,1,.4.1l.1.1c.1.1.1.2.2.4s.1.2.2.3a.37.37,0,0,1-.1.3c-.1.1-.1.4-.1.49.2.1.3.1.3-.09s0-.2.1-.2l.2-.2h.59a.9.9,0,0,0,.5-.1l.1-.2a.78.78,0,0,1-.4-.4l-.2-.2c-.3-.1-.39-.4-.69-.5s-.1-.39-.1-.49a2.46,2.46,0,0,0,.1-1.2c0-.1-.1-.2-.2-.3s-.1-.29,0-.29c.3-.1.3-.3.3-.5a2.13,2.13,0,0,0,0-.8h0a.35.35,0,0,0-.1-.2.34.34,0,0,1,.1-.29h.29c.1,0,.2.09.3.09a.82.82,0,0,1,.5.5,5.27,5.27,0,0,0,.3,1.2,4.7,4.7,0,0,1,.3.69l.3.9a1.6,1.6,0,0,1,.19.5h0a.2.2,0,0,0,.3,0,1,1,0,0,0,.5-.4c.1.3.2.49.3.79,0,.1.1.2.2.3a.6.6,0,0,0,.4.1c.29,0,.29,0,.49-.4s.2-.39.4-.39c.5,0,.7-.3.7-.8.1-.1.1-.1.1-.4l.2-.2c0-.1.1-.2.1-.3a1.21,1.21,0,0,0,.1-.59v-.2c0-.2.1-.3.1-.5a.31.31,0,0,0-.1-.4c-.1-.1-.1-.2-.2-.3v-.19c0-.2-.1-.4,0-.6v-.3a4.33,4.33,0,0,0-.1-.5c0-.2.1-.3.1-.5s.1-.29-.1-.39a1,1,0,0,1-.4-.5c-.1-.1-.1-.3-.2-.4s0-.1-.1-.2a2.1,2.1,0,0,0-.5-1.29.37.37,0,0,1-.1-.3c-.1-.3-.1-.6-.29-.8a.48.48,0,0,1-.2-.39c-.1-.2-.3-.4-.4-.6a.37.37,0,0,1-.1-.3,1.38,1.38,0,0,0-.1-.89v-.2a.85.85,0,0,1,0-.7.1.1,0,0,1,.1-.1.37.37,0,0,1,.3-.1c.2-.1.3,0,.3.2a1.55,1.55,0,0,0,.19.6c.1.1.1.1.2.1s.3,0,.4-.1a.68.68,0,0,0,.4-.6c0-.2.1-.3.3-.4a.35.35,0,0,0,.2-.1.37.37,0,0,0-.1-.3c-.1-.19-.2-.19,0-.39v-.1a.55.55,0,0,1,.3-.5c.1-.1.2-.4.1-.5s-.2-.3-.3-.5v-.09c.1-.1.2-.2.1-.4s-.2-.2-.2-.3a.66.66,0,0,1-.1-.6c.1-.3,0-.3-.3-.4h0c-.1,0-.2-.1-.1-.19s.1-.1.1-.2a.6.6,0,0,0,.4-.1v-.1c-.1-.2,0-.3.2-.4s.2-.2.1-.4-.1-.3-.2-.3h-.4c-.1.1-.2,0-.3,0s0-.2,0-.3v-.1c-.1-.09-.2-.19-.3-.09,0-.1-.1-.2-.1-.3s.1-.1.1-.2v-.2a.37.37,0,0,0-.1-.3,1.38,1.38,0,0,1-.3-.4c-.1-.1-.1-.3-.29-.3l-.1-.1c-.1-.09-.2-.29-.4-.19l-.3.29c0,.1.1.2.2.3s.1.1.2.2a.31.31,0,0,1,.1.2c0,.1-.1.2-.3.2h-.3c-.1,0-.2.1-.3.2l-.2.2c-.2,0-.2.2-.3.3v.19a1.7,1.7,0,0,0,.1.7c0,.1.1.2,0,.3a.45.45,0,0,0,0,.5c.2.2.2.4.3.59s.1.6.5.6c-.2.2-.3.4-.5.6a.37.37,0,0,0-.1.3c0,.1,0,.2-.2.29l-.1.1a2.33,2.33,0,0,0-.19.8,1.39,1.39,0,0,0,.09.6c-.09.1-.29.2-.39.3h-.1c-.1-.2-.3-.1-.4-.2s-.2-.1-.4-.1l-.1-.1a1.11,1.11,0,0,1-.69-.5v-.2a1,1,0,0,0,.19-.5V490.9c0-.2,0-.39.1-.39s.3-.2.5-.3a5.24,5.24,0,0,0,1.1-1c.1-.2.29-.4.19-.69s0-.4-.09-.6v-.1c.19-.1.19-.3.19-.5a4.33,4.33,0,0,1,.1-.5c0-.09.1-.19.2-.39a.82.82,0,0,1,.5-.5.27.27,0,0,0,.3-.3c.1-.2.1-.3.3-.4s.2-.2.1-.4a.62.62,0,0,1,0-.59c.1-.1.1-.2.2-.3s.19-.2.29-.2h.6a.27.27,0,0,0,.3-.3c0-.1.1-.1.1-.2s.1-.2.2-.3a1,1,0,0,1,.5-.59c.19-.1.29-.2.49-.3s.1-.1.2-.2a2.39,2.39,0,0,0,.2-.9.59.59,0,0,1,.1-.39c.1-.2.2-.3.3-.5a.45.45,0,0,0,0-.5v-.2C280.88,478.87,280.88,478.77,280.88,478.77Zm-5.17-27.56h-.3c-.2,0-.49.1-.69.1h-.5c-.1,0-.1-.1-.2-.1a1.27,1.27,0,0,1-.6-.1c-.2-.1-.39,0-.59-.1s-.2,0-.3.1h0c-.3,0-.4.5-.8.5-.1,0-.2.09-.4.09s-.2-.09-.29-.09-.2-.1-.3-.1-.1-.2-.1-.3h0a.35.35,0,0,0,.2-.1c0-.1-.1-.1-.2-.1s-.3-.1-.2-.3l.3-.9a.1.1,0,0,1,.1-.1c.1-.09.2-.09.29-.19s.2-.1.2,0a.45.45,0,0,0,.5,0v.1c-.1.19,0,.19,0,.19s.2,0,.2-.1v-2l.1-.1h.6a.43.43,0,0,1,.3.39,1.55,1.55,0,0,0,.19.9c0,.1.1.1.2.1l.1-.1a1.49,1.49,0,0,1,1.3-.6H275a1.7,1.7,0,0,1,.7.1h0c.1.3.3.3.5.3s.1.1.2.2.1-.1.1-.2-.1-.1-.2-.2c.1-.1.4.1.6.2,0,.1-.1.1-.1.2.1.3.19.3.49.3.1-.1.1-.2.2-.2h.1c-.1.1-.1.2-.2.3-.2.39-.3.69-.49,1.09s-.4.4-.6.7C276.21,451.21,275.91,451.21,275.71,451.21Z" transform="translate(-222.53 -446.83)"/><path class="cls-5" d="M281.88,498.37c.2-.1.1-.3.1-.5a2.2,2.2,0,0,1,.1-.8.27.27,0,0,1,.3-.3.35.35,0,0,0,.2-.1v-.1h-.3v-.29c0-.2.2-.3.3-.4h0l.89.3c.2.1.3.1.4,0s.2,0,.3.1a.14.14,0,0,1,0,.2l-.1.09c.1.1.2.3.4.2h.1a.18.18,0,0,0,.29,0,.22.22,0,0,1,.2.2c0,.2.1.1.2.1s.3-.1.4.2c.1,0,.3-.1.4-.1a.37.37,0,0,1,.3.1c.1.1,0,.2,0,.3s-.2.2-.1.3a.1.1,0,0,0,.1.1c.2.1.3.2.3.4a.32.32,0,0,0,.19.09c.1,0,.1-.09.2-.09s.1-.2,0-.3c-.2-.3-.2-.5.2-.7-.1-.2,0-.5-.3-.7-.1-.1,0-.39.1-.49a.45.45,0,0,1,.5,0c0,.1.1.1.1.2s.1.1.1.19h0a.35.35,0,0,1,.5,0h.1v-.09c0-.1-.1-.1-.1-.2a.4.4,0,0,1,.2-.6c.29-.1.29-.1.49.1a.66.66,0,0,1,.6-.1c.2.1,0,.3,0,.4a.6.6,0,0,1,.4.1c.1.1,0,.3,0,.49.1-.1.3-.19.4-.1a1.46,1.46,0,0,0,.39.3h.3v-.1c0-.2-.1-.2-.3-.29s-.29-.3-.49-.4a.37.37,0,0,1-.1-.3c-.1-.2-.2-.3-.2-.5s0-.2.1-.2h.1c.1,0,.1-.1,0-.2-.4-.3-.2-.59.1-.79.1-.1.1-.3.2-.5s.1-.3.19-.5.1,0,.2,0c0,.2.1.1.2,0s.2-.2.3,0a.3.3,0,0,1,0,.4c-.1.1-.1.2-.2.2a.35.35,0,0,1-.2.1h-.3c0,.1.2.2.1.3l-.19.2v.2a1.2,1.2,0,0,1,.39-.3c.1-.1.2,0,.3.1a.1.1,0,0,0,.1.1c.1.1.2.19.1.39s0,.3,0,.5l.1-.1c0-.1.1-.3.2-.3s.1-.1,0-.1c-.1-.2-.2-.29-.2-.49v-.2l.3-.3c.1-.1.2,0,.3.1.1-.1.3-.4.49-.1s-.09.3-.19.5H293v.1a.35.35,0,0,0-.1.29c0,.2-.1.2-.3.2h-.39l-.3.6c.1.1.3,0,.4-.1l.1-.1a.31.31,0,0,1,.19.1c0,.1,0,.1-.09.2s-.2.2-.2.5a.53.53,0,0,1-.3.49h-.1l-.1.1c.2.1.4.1.6.2a.1.1,0,0,0,.1-.1c-.1-.29.19-.59.19-.89v-.1c.2.1,0,.3.2.4s.2-.3.4-.1c0-.2,0-.3-.1-.4a.3.3,0,0,1,0-.4c0-.1.1-.1.1-.2.3.3.3.1.4.7.1-.1.2-.2.2-.3v-.3c0-.2.2-.2.3-.1s.2.1.2,0V495c.19,0,.29-.3.49-.3s.3,0,.3.2a.1.1,0,0,0,.1.1c.1.1.1.2,0,.2-.3.1-.5.3-.8.3s-.39.2-.59.4c0,.1-.1.1-.1.2v.2a.35.35,0,0,0,.2-.1h0c0,.3.1.59-.2.89-.1.1-.2.1-.2.2a.31.31,0,0,0,.1.2c.1.1.1.1.1.2s.1.1.1.2l.1-.1c.1-.2.2-.5.3-.7s.19-.1.39-.2v-.3h.4c-.1-.19-.2-.39.1-.49.1,0,.1.1.2.1s.3.1.3-.2.1-.3.3-.2h0l.1-.1a.1.1,0,0,1,.1.1v.2a.52.52,0,0,0-.2.4v.19l.1.1a.22.22,0,0,1-.2.2h-.1a.27.27,0,0,0-.3.3v.2h.3v.8a.22.22,0,0,1-.2.2h-.2c-.1,0-.2,0-.2.09s-.3.1-.4.2h-.3c-.09,0-.09.1-.09.2a.26.26,0,0,1-.1.4c-.2,0-.3.1-.5.1l-.1.1.1.1c.1,0,.2.1.3.1h1.09c0,.3,0,.5-.2.6a1.09,1.09,0,0,1-.5.1h-.19v.29c0,.2-.2.2-.3.1h-.1c-.2,0-.3-.1-.5-.1v.1c.1.2,0,.3-.1.3s-.5.3-.7.4a.56.56,0,0,1-.39.1v.1c.1.2.1.2-.1.3s-.2.1-.3.1l.1.1c.1.1.1.29,0,.29a.66.66,0,0,1-.6.1h-.1c-.2.1-.3,0-.3-.1-.1.1-.3.2-.39.3a.31.31,0,0,0,.19.1l-.19.2c-.1.1-.2.1-.3.2s-.2,0-.3-.1-.3-.2-.5,0-.2.1-.3.2c-.3.2-.4.2-.49-.2a1.52,1.52,0,0,0,.09-.89c0-.1-.09-.1-.09-.2a1.76,1.76,0,0,0-.4-.5c-.1,0-.2.1-.3.1v.3c-.2,0-.4.1-.6-.1v.3a.1.1,0,0,1-.1.1c-.1.09-.1.19-.2.29-.1.3-.3.4-.69.2.1.3,0,.4-.2.6l-.1.1a.37.37,0,0,1-.2.5v.1c-.1.1-.1.2-.2.39v.1a1.48,1.48,0,0,1,.1.7h-.2c0,.2.1.3-.2.4a.35.35,0,0,0,.1.2v.2c-.2.2-.2.49-.3.69s-.2.3-.3.5h.2c.2-.1.3,0,.4.1l.3.3.2-.2c.1.2.4.2.4.4a.1.1,0,0,0,.1.1s0,.2.1.1h0a1.31,1.31,0,0,1,.29.39,4.05,4.05,0,0,0,.5.9,2.18,2.18,0,0,0,.4.5l.3.3a.34.34,0,0,1,.1.29c.1.1.1.2.3.2a.35.35,0,0,0,.2.1c0,.1.09.1.09.2a1,1,0,0,0,.5.4c.2.1.5.2.7.3s.1.2.2.3l.1.1c.2.09.49.19.69.29s.5.3.8.4a.35.35,0,0,1,.2.1c.2.1.5.3.69.4a.6.6,0,0,0,.4.1c.3-.1.5.1.7.2s.3.3.5.5h0a1.42,1.42,0,0,0,.49.79c.2.2.4.3.5.5a1.76,1.76,0,0,1,.5.4c.3.2.5.39.79.59s.3.3.4.4.1.1.1.2a.19.19,0,0,1-.3,0c-.2-.1-.49-.2-.69-.3v.3c-.2-.1-.3-.1-.5-.2a.35.35,0,0,1-.1-.2v-.1h-.1c-.1,0-.1,0-.1.1s-.2.1-.3,0l-.3-.3c-.39.1-.49,0-.39-.39H294a.27.27,0,0,1-.3-.3.1.1,0,0,0-.1-.1l-.1-.1c0-.2-.1-.2-.2-.2s-.2,0-.1-.2a.35.35,0,0,0-.1-.2c-.2-.2-.4-.2-.2-.3s0-.2-.1-.3h0c-.1-.19-.2-.29-.49-.19-.1,0-.3-.2-.4-.3l-.2-.2a.6.6,0,0,1-.4-.1.31.31,0,0,0-.1-.2h.2V513c-.1,0-.2-.1-.3-.1a.37.37,0,0,1-.3-.1.74.74,0,0,0-.49-.2.37.37,0,0,1-.3-.1,2.92,2.92,0,0,0-.9-.2.1.1,0,0,1-.1-.1c-.1-.19-.2-.19-.39-.29a.22.22,0,0,1-.2-.2c0-.1,0-.2-.2-.2l-.2-.2c-.1-.1-.1-.3-.2-.4h0v.2h-.2c-.2,0-.2-.1-.2-.2v-.2a.27.27,0,0,1-.3-.3l-.1.1-.2-.2h0c-.29,0-.29-.29-.49-.49s-.1-.1-.3-.1a.22.22,0,0,1-.2-.2l-.3-.6v-.1c-.2-.1-.4-.3-.6-.4s-.39-.39-.59-.59-.1-.2-.2-.3a3,3,0,0,1-.7-.5c-.2-.2-.3-.4-.4-.5l-.1-.1c-.29-.1-.39-.39-.59-.59l-.3-.3c-.1-.1-.1-.1-.1-.2a.1.1,0,0,0-.1-.1.71.71,0,0,1-.3-.6c0-.2-.1-.3-.2-.49a1.33,1.33,0,0,1-.3-.8c0-.2.1-.4,0-.5a.35.35,0,0,0,.1-.2.36.36,0,0,0,.1-.29.76.76,0,0,0,.2-.4c.1-.3.3-.5.4-.8v-.1c0-.1-.1-.2-.1-.3v-.1c-.2-.1-.1-.29-.1-.49a1.48,1.48,0,0,1,.1-.7.85.85,0,0,0,0-.7c.2-.1.1-.2.1-.39" transform="translate(-222.53 -446.83)"/><path class="cls-6" d="M258.86,486.56a3.5,3.5,0,1,1-3.5-3.5,3.42,3.42,0,0,1,3.5,3.5" transform="translate(-222.53 -446.83)"/><path class="cls-7" d="M682.31,509.2v-4.36h-.52C679.15,508,675.69,510,670,510c-9.79,0-19.09-7-19.09-21.8,0-14.65,9.13-21.81,18.76-21.81,5.51,0,9.3,2.06,12.1,5.58h.52v-5.56h12.15V509.2Zm-9.16-32c-5,0-9.35,4.11-9.35,11s3.92,10.94,9.35,10.94c5,0,9.54-4.12,9.54-10.94C682.69,481.14,678.17,477.19,673.15,477.19Zm-33,32H627.64V477.93H616v-10.7h35.79v10.7h-11.6ZM601,504.84h-.16c-2.63,3.12-6.25,5.18-11.77,5.18-9.79,0-19.08-7-19.08-21.8,0-14.65,9.13-21.81,18.76-21.81,5.51,0,9.29,2.06,12.09,5.58H601v-5.56h12.51V509.2H601Zm-8.8-27.65c-4.86,0-9.79,4.11-9.79,11s4.36,10.94,9.79,10.94c5,0,10-4.12,10-10.94C602.14,481.14,597.2,477.19,592.18,477.19Zm-4.52-15.71,8.47-14.65L607,451.6l-10.42,9.88ZM559.19,509.2H546.68V477.93H535v-10.7h35.79v10.7h-11.6Zm-44.6.82a17.58,17.58,0,0,1-10-3.11h-.16v17.92H491.88V488.22c0-12.43,8.31-21.81,21.64-21.81,12.67,0,22.29,8.15,22.29,21.31C535.81,501.87,525,510,514.59,510Zm-1.15-33c-6,0-9.71,4.69-9.71,11.19,0,5.84,3.42,11.1,9.54,11.1s9.63-4.85,9.63-11.1C522.9,481.8,519.85,477,513.44,477ZM467,510c-12.76,0-22.3-9.13-22.3-21.8s9.63-21.81,22.46-21.81,22.3,9.13,22.3,21.81S479.78,510,467,510Zm0-32.83c-6.09,0-9.88,5-9.88,11,0,5.84,4,10.94,10,10.94s9.79-4.94,9.79-10.94S473,477.19,467,477.19Zm-18.19,32H433.62L421,489.53,408.28,509.2H393.63l20-29-19-28.6h15.14l11.44,18.1,11.68-18.1h14.73l-19.09,27.89Z" transform="translate(-222.53 -446.83)"/><path class="cls-8" d="M369,501.87h-.25c-2.86,4.69-8.88,8.15-16.12,8.15-11.24,0-20.57-8.15-20.57-21.23s9.13-21.23,20.48-21.23A20,20,0,0,1,368.7,476H369v-7.65h3.78V509.2H369Zm-16.54-30.69c-8.88,0-16.29,6.34-16.29,17.61,0,11.11,7.57,18.12,16.29,18.12,8.56,0,16.7-6.62,16.7-18C369.11,477.6,361,471.18,352.41,471.18Zm-33.9,38h-3.78V471.92h-14.4v-3.53h32.33v3.53H318.51Z" transform="translate(-222.53 -446.83)"/><path class="cls-9" d="M267.37,477.86h-31c.35-3.66,3-6.51,6.27-6.6a6.59,6.59,0,0,1,6.07-4.85,6.33,6.33,0,0,1,5.5,3.53h.06a6.12,6.12,0,0,1,4.87,2.55,5.79,5.79,0,0,1,1.95-.34C264.13,472.14,266.7,474.58,267.37,477.86Z" transform="translate(-222.53 -446.83)"/><path class="cls-10" d="M267.37,477.86h-31a6.46,6.46,0,0,1,6.27-5.74A6.47,6.47,0,0,1,254.19,471h.06a6.41,6.41,0,0,1,4.87,2.21,6.63,6.63,0,0,1,1.95-.3A6.48,6.48,0,0,1,267.37,477.86Z" transform="translate(-222.53 -446.83)"/><g id="sun"><rect class="cls-11" x="232.86" y="450.15" width="0.95" height="17" transform="translate(-441.43 257.36) rotate(-91.53)"/><rect class="cls-11" x="232.86" y="450.15" width="0.95" height="17" transform="translate(-218.81 472.35) rotate(-126.53)"/><rect class="cls-11" x="232.86" y="450.15" width="0.95" height="17" transform="translate(86.86 520.77) rotate(-161.53)"/><rect class="cls-11" x="232.86" y="450.15" width="0.95" height="17" transform="translate(365.03 385.11) rotate(163.47)"/><rect class="cls-11" x="232.86" y="450.15" width="0.95" height="17" transform="translate(515.07 114.43) rotate(128.47)"/><rect class="cls-11" x="10.2" y="0.8" width="1.23" height="22.05"/><rect class="cls-11" x="232.72" y="447.63" width="1.23" height="22.05" transform="translate(-443.4 -230.05) rotate(-35)"/><rect class="cls-11" x="232.72" y="447.63" width="1.23" height="22.05" transform="translate(-499.99 74.22) rotate(-70)"/><rect class="cls-11" x="232.72" y="447.63" width="1.23" height="22.05" transform="translate(-371.82 355.92) rotate(-105)"/><rect class="cls-11" x="232.72" y="447.63" width="1.23" height="22.05" transform="translate(-105.26 513.16) rotate(-140)"/><circle class="cls-12" cx="10.81" cy="11.82" r="6.5"/></g></svg>
