
  <svg
            version="1.1"
            id="Layer_1"
            xmlns="http://www.w3.org/2000/svg"
            xmlns:xlink="http://www.w3.org/1999/xlink"
            x="0px"
            y="0px"
            viewBox="0 0 133.6 119"
            xml:space="preserve"
          >
            <g id="gegonota_copy">
              <path
                fill-rule="evenodd"
                clip-rule="evenodd"
                fill="#C5BFBF"
                d="M43.8,104.5l0.4,0.1c7.4,2.2,15.2,3.4,23,3.4
            c36.2,0,65.6-23.9,65.6-53.2S103.4,1.6,67.2,1.6S1.6,25.5,1.6,54.8c0,11.5,4.5,22.5,13,31.7l0.6,0.7L2.7,116.6L43.8,104.5z"
              />
              <path
                fill-rule="evenodd"
                clip-rule="evenodd"
                fill="#C5BFBF"
                d="M66.8,2.8c35.3,0,64,23.3,64,52s-28.7,52-64,52
            c-7.6,0-15.2-1.1-22.5-3.3l-0.8-0.2l-0.8,0.2L4.9,114.7l11-26l0.7-1.7l-1.2-1.3C7.1,76.7,2.8,66,2.8,54.8
            C2.8,26.1,31.5,2.8,66.8,2.8 M66.8,0C29.9,0,0,24.5,0,54.8c0,12.3,4.9,23.7,13.3,32.8L0,119l43.5-12.8c7.6,2.3,15.4,3.4,23.3,3.4
            c36.9,0,66.8-24.5,66.8-54.8S103.7,0,66.8,0L66.8,0L66.8,0z"
              />
              <path
                fill-rule="evenodd"
                clip-rule="evenodd"
                fill="#DBD7D7"
                d="M66.7,5.4c-29.3,0-53.9,16.5-60,38.5c50.5,2.8,90.7,23.6,96.8,50
            c15-9,24.8-23.3,24.8-39.4C128.2,27.4,100.6,5.4,66.7,5.4"
              />
              <path
                fill-rule="evenodd"
                clip-rule="evenodd"
                fill="#FFFFFF"
                d="M66.8,5.4c-21,0-39.5,8.5-50.5,21.4C27.5,17.1,43.5,11,61.3,11
            c33.8,0,61.3,22.1,61.3,49.3c0,10.3-4,20-10.8,27.9c10.2-8.8,16.4-20.6,16.4-33.5C128.2,27.5,100.7,5.4,66.8,5.4"
              />
            </g>
          </svg>
