<svg viewBox="0 0 35.81 31.89">
            <defs>
              <style>
                .sxolia-1 {
                  fill: #f6c942;
                }
                .sxolia-1,
                .sxolia-2,
                .sxolia-3 {
                  fill-rule: evenodd;
                }
                .sxolia-2 {
                  fill: #fcda7e;
                  opacity: 0.9;
                  isolation: isolate;
                }
                .sxolia-3 {
                  fill: #fff5de;
                }
              </style>
            </defs>
            <g data-name="Layer 2" id="Layer_2">
              <g data-name="Layer 1" id="Layer_1-2">
                <g id="gegonota-2">
                  <path class="sxolia-1" d="M11.75,28l.11,0a21,21,0,0,0,6.15.9c9.7,0,17.58-6.39,17.58-14.26S27.71.43,18,.43.43,6.83.43,14.69A12.47,12.47,0,0,0,3.91,23.2l.16.17L.71,31.25Z"></path>
                  <path class="sxolia-1" d="M17.9.75C27.36.75,35.06,7,35.06,14.68S27.37,28.62,17.9,28.62a20.45,20.45,0,0,1-6-.88l-.22-.07-.21.06-10.15,3,3-7,.19-.44L4.11,23A12.2,12.2,0,0,1,.75,14.68C.75,7,8.44.75,17.9.75m0-.75C8,0,0,6.58,0,14.68a13,13,0,0,0,3.56,8.8L0,31.89l11.66-3.44a21.62,21.62,0,0,0,6.24.92c9.89,0,17.91-6.57,17.91-14.69S27.79,0,17.9,0Z"></path>
                  <path class="sxolia-2" d="M17.87,1.45C10,1.45,3.41,5.87,1.78,11.76c13.53.75,24.3,6.33,25.93,13.39,4-2.4,6.64-6.23,6.64-10.55C34.35,7.35,27,1.45,17.87,1.45"></path>
                  <path class="sxolia-3" d="M17.91,1.45A17.83,17.83,0,0,0,4.37,7.19,18.39,18.39,0,0,1,16.42,3c9.06,0,16.44,5.93,16.44,13.22A11.41,11.41,0,0,1,30,23.64a11.89,11.89,0,0,0,4.39-9C34.35,7.38,27,1.45,17.91,1.45"></path>
                </g>
              </g>
            </g>
          </svg>
